G04*
G04 #@! TF.GenerationSoftware,Altium Limited,Altium Designer,18.1.11 (251)*
G04*
G04 Layer_Color=128*
%FSLAX25Y25*%
%MOIN*%
G70*
G01*
G75*
%ADD15R,0.11024X0.02165*%
D15*
X9451Y74016D02*
D03*
Y77166D02*
D03*
Y80316D02*
D03*
Y83465D02*
D03*
Y86615D02*
D03*
Y89764D02*
D03*
Y92914D02*
D03*
Y96064D02*
D03*
Y99213D02*
D03*
Y102363D02*
D03*
Y105512D02*
D03*
Y108662D02*
D03*
Y111812D02*
D03*
Y114961D02*
D03*
Y118111D02*
D03*
Y121260D02*
D03*
Y124410D02*
D03*
Y127560D02*
D03*
Y130709D02*
D03*
Y133859D02*
D03*
Y137008D02*
D03*
Y140158D02*
D03*
Y143308D02*
D03*
Y159056D02*
D03*
Y162205D02*
D03*
Y165355D02*
D03*
Y168505D02*
D03*
Y171654D02*
D03*
Y174804D02*
D03*
Y177953D02*
D03*
Y181103D02*
D03*
Y184253D02*
D03*
Y187402D02*
D03*
Y190552D02*
D03*
Y193701D02*
D03*
Y196851D02*
D03*
Y200001D02*
D03*
Y203150D02*
D03*
Y206300D02*
D03*
Y209449D02*
D03*
Y212599D02*
D03*
Y215749D02*
D03*
Y218898D02*
D03*
Y222048D02*
D03*
Y225197D02*
D03*
Y228347D02*
D03*
Y231497D02*
D03*
Y234646D02*
D03*
Y237796D02*
D03*
Y240945D02*
D03*
M02*
