G04*
G04 #@! TF.GenerationSoftware,Altium Limited,Altium Designer,18.1.11 (251)*
G04*
G04 Layer_Color=8388736*
%FSLAX25Y25*%
%MOIN*%
G70*
G01*
G75*
%ADD16R,0.07414X0.13162*%
%ADD17R,0.04737X0.04343*%
%ADD18R,0.11417X0.02559*%
%ADD19C,0.07453*%
%ADD20C,0.19540*%
%ADD21R,0.07453X0.07453*%
%ADD22C,0.06600*%
%ADD23R,0.06600X0.06600*%
%ADD24C,0.02375*%
%ADD25C,0.04737*%
D16*
X61945Y242915D02*
D03*
X43126D02*
D03*
X61945Y227955D02*
D03*
X43126D02*
D03*
X61945Y212994D02*
D03*
X43126D02*
D03*
D17*
X54528Y72925D02*
D03*
Y66626D02*
D03*
X48528Y66642D02*
D03*
Y72941D02*
D03*
X42717Y66642D02*
D03*
Y72941D02*
D03*
D18*
X9451Y74016D02*
D03*
Y77166D02*
D03*
Y80316D02*
D03*
Y83465D02*
D03*
Y86615D02*
D03*
Y89764D02*
D03*
Y92914D02*
D03*
Y96064D02*
D03*
Y99213D02*
D03*
Y102363D02*
D03*
Y105512D02*
D03*
Y108662D02*
D03*
Y111812D02*
D03*
Y114961D02*
D03*
Y118111D02*
D03*
Y121260D02*
D03*
Y124410D02*
D03*
Y127560D02*
D03*
Y130709D02*
D03*
Y133859D02*
D03*
Y137008D02*
D03*
Y140158D02*
D03*
Y143308D02*
D03*
Y159056D02*
D03*
Y162205D02*
D03*
Y165355D02*
D03*
Y168505D02*
D03*
Y171654D02*
D03*
Y174804D02*
D03*
Y177953D02*
D03*
Y181103D02*
D03*
Y184253D02*
D03*
Y187402D02*
D03*
Y190552D02*
D03*
Y193701D02*
D03*
Y196851D02*
D03*
Y200001D02*
D03*
Y203150D02*
D03*
Y206300D02*
D03*
Y209449D02*
D03*
Y212599D02*
D03*
Y215749D02*
D03*
Y218898D02*
D03*
Y222048D02*
D03*
Y225197D02*
D03*
Y228347D02*
D03*
Y231497D02*
D03*
Y234646D02*
D03*
Y237796D02*
D03*
Y240945D02*
D03*
D19*
X155829Y70519D02*
D03*
Y81389D02*
D03*
Y92260D02*
D03*
Y103130D02*
D03*
Y114000D02*
D03*
Y124870D02*
D03*
Y135740D02*
D03*
Y146610D02*
D03*
Y157480D02*
D03*
Y168350D02*
D03*
Y179220D02*
D03*
Y190090D02*
D03*
Y200960D02*
D03*
Y211830D02*
D03*
Y222701D02*
D03*
Y233571D02*
D03*
Y244441D02*
D03*
X144648Y75954D02*
D03*
Y86825D02*
D03*
Y97695D02*
D03*
Y108565D02*
D03*
Y119435D02*
D03*
Y130305D02*
D03*
Y141175D02*
D03*
Y152045D02*
D03*
Y162915D02*
D03*
Y173785D02*
D03*
Y184655D02*
D03*
Y195525D02*
D03*
Y206395D02*
D03*
Y217265D02*
D03*
Y228135D02*
D03*
Y239006D02*
D03*
X133467Y70519D02*
D03*
Y81389D02*
D03*
Y92260D02*
D03*
Y103130D02*
D03*
Y114000D02*
D03*
Y233571D02*
D03*
Y222701D02*
D03*
Y211830D02*
D03*
Y200960D02*
D03*
Y190090D02*
D03*
Y179220D02*
D03*
Y168350D02*
D03*
Y157480D02*
D03*
Y146610D02*
D03*
Y135740D02*
D03*
Y124870D02*
D03*
D20*
X144648Y277775D02*
D03*
Y37185D02*
D03*
D21*
X133467Y244441D02*
D03*
D22*
X96618Y242480D02*
D03*
X86618D02*
D03*
X96618Y252480D02*
D03*
X86618D02*
D03*
X96618Y262480D02*
D03*
X86618D02*
D03*
X96618Y272480D02*
D03*
X86618D02*
D03*
X96618Y282480D02*
D03*
X86618D02*
D03*
X96618Y292480D02*
D03*
X106618Y21980D02*
D03*
X96618D02*
D03*
X86618D02*
D03*
X106618Y31980D02*
D03*
X96618D02*
D03*
X86618D02*
D03*
X106618Y41980D02*
D03*
X96618D02*
D03*
X86618D02*
D03*
X106618Y51980D02*
D03*
X96618D02*
D03*
X86618D02*
D03*
X106618Y61980D02*
D03*
X96618D02*
D03*
X86618D02*
D03*
X106618Y71980D02*
D03*
X96618D02*
D03*
X86618D02*
D03*
X106618Y81980D02*
D03*
X96618D02*
D03*
X86618D02*
D03*
X106618Y91980D02*
D03*
X96618D02*
D03*
X86618D02*
D03*
X106618Y101980D02*
D03*
X96618D02*
D03*
X86618D02*
D03*
X106618Y111980D02*
D03*
X96618D02*
D03*
X106618Y132480D02*
D03*
X96618D02*
D03*
X86618D02*
D03*
X106618Y142480D02*
D03*
X96618D02*
D03*
X86618D02*
D03*
X106618Y152480D02*
D03*
X96618D02*
D03*
X86618D02*
D03*
X106618Y162480D02*
D03*
X96618D02*
D03*
X86618D02*
D03*
X106618Y172480D02*
D03*
X96618D02*
D03*
X86618D02*
D03*
X106618Y182480D02*
D03*
X96618D02*
D03*
X86618D02*
D03*
X106618Y192480D02*
D03*
X96618D02*
D03*
X86618D02*
D03*
X106618Y202480D02*
D03*
X96618D02*
D03*
X86618D02*
D03*
X106618Y212480D02*
D03*
X96618D02*
D03*
X86618D02*
D03*
X106618Y222480D02*
D03*
X96618D02*
D03*
D23*
X86618Y292480D02*
D03*
Y111980D02*
D03*
Y222480D02*
D03*
D24*
X118898Y87386D02*
D03*
X91275Y68962D02*
D03*
X91364Y80269D02*
D03*
X102536Y55118D02*
D03*
X83519Y35369D02*
D03*
X19121Y92520D02*
D03*
X18504Y102363D02*
D03*
Y111707D02*
D03*
X18110Y118111D02*
D03*
Y124016D02*
D03*
Y130315D02*
D03*
Y136615D02*
D03*
X17324Y163386D02*
D03*
X17323Y169307D02*
D03*
X17241Y175591D02*
D03*
X58748Y178237D02*
D03*
X22835Y177386D02*
D03*
X18110Y212138D02*
D03*
Y205906D02*
D03*
Y199334D02*
D03*
X18504Y193376D02*
D03*
X16934Y181496D02*
D03*
X17501Y187008D02*
D03*
X75420Y26772D02*
D03*
X63847Y14636D02*
D03*
X71260Y14961D02*
D03*
X17717Y231496D02*
D03*
X98035Y26704D02*
D03*
X103150Y27165D02*
D03*
X100004Y65354D02*
D03*
X57878Y68110D02*
D03*
X21657Y159055D02*
D03*
Y165354D02*
D03*
Y171653D02*
D03*
Y182283D02*
D03*
Y188189D02*
D03*
Y194488D02*
D03*
Y200787D02*
D03*
Y206693D02*
D03*
Y212598D02*
D03*
X68243Y17846D02*
D03*
X91736Y49213D02*
D03*
X111421Y38976D02*
D03*
X111815Y36220D02*
D03*
D25*
X32681Y218504D02*
D03*
X35831Y233071D02*
D03*
X31106Y238583D02*
D03*
M02*
