M48
;Layer_Color=9474304
;FILE_FORMAT=2:5
INCH,TZ
;TYPE=PLATED
T1F00S00C0.00787
T2F00S00C0.01968
T3F00S00C0.04000
T4F00S00C0.04291
T5F00S00C0.12835
%
T01
X63784Y17717
X68243Y17846
X70870Y17717
X97642Y27165
X102366
X111815Y36220
X111421Y38976
X91736Y49213
X100004Y65354
X57878Y68110
X21657Y159055
Y165354
Y171653
Y177953
Y182283
Y188189
Y194488
Y200787
Y206693
Y212598
T02
X32681Y218504
X35831Y233071
X31106Y238583
T03
X86618Y21980
X96618
X106618
Y31980
X96618
X86618
Y41980
X96618
X106618
Y51980
X96618
X86618
Y61980
X96618
X106618
Y71980
X96618
X86618
Y81980
X96618
X106618
Y91980
X96618
X86618
Y101980
X96618
X106618
Y111980
X96618
X86618
Y132480
X96618
X106618
Y142480
X96618
X86618
Y152480
X96618
X106618
Y162480
X96618
X86618
Y172480
X96618
X106618
Y182480
X96618
X86618
Y192480
X96618
X106618
Y202480
X96618
X86618
Y212480
X96618
X106618
Y222480
X96618
X86618
Y242480
X96618
Y252480
X86618
Y262480
X96618
Y272480
X86618
Y282480
X96618
Y292480
X86618
T04
X133467Y70519
Y81389
Y92260
Y103130
Y114000
Y124870
Y135740
Y146610
Y157480
Y168350
Y179220
Y190090
Y200960
Y211830
X144648Y206395
Y195525
Y184655
Y173785
Y162915
Y152045
Y141175
Y130305
Y119435
Y108565
Y97695
Y86825
Y75954
X155829Y70519
Y81389
Y92260
Y103130
Y114000
Y124870
Y135740
Y146610
Y157480
Y168350
Y179220
Y190090
Y200960
Y211830
Y222701
Y233571
Y244441
X144648Y239006
Y228135
Y217265
X133467Y222701
Y233571
Y244441
T05
X144648Y37185
Y277775
M30
