G04 Layer_Physical_Order=2*
G04 Layer_Color=16711680*
%FSLAX25Y25*%
%MOIN*%
G70*
G01*
G75*
%ADD12R,0.11024X0.02165*%
%ADD13C,0.00787*%
%ADD15C,0.01969*%
%ADD16C,0.06654*%
%ADD17C,0.18740*%
%ADD18R,0.06654X0.06654*%
%ADD19C,0.06000*%
%ADD20R,0.06000X0.06000*%
%ADD21C,0.01575*%
%ADD22C,0.03937*%
G36*
X196850Y314961D02*
Y-0D01*
X58427D01*
Y60138D01*
X34569D01*
X34183Y60119D01*
X33426Y59969D01*
X32713Y59673D01*
X32071Y59245D01*
X31525Y58699D01*
X31097Y58057D01*
X30801Y57344D01*
X30651Y56587D01*
X30632Y56201D01*
Y53526D01*
X30392Y52947D01*
X29949Y52504D01*
X29370Y52264D01*
X23625D01*
Y66044D01*
X23606Y66430D01*
X23455Y67187D01*
X23160Y67900D01*
X22731Y68541D01*
X22185Y69087D01*
X21543Y69516D01*
X20830Y69811D01*
X20073Y69962D01*
X19688Y69981D01*
X2D01*
Y146457D01*
X20474D01*
Y146457D01*
X21091Y146498D01*
X22282Y146817D01*
X23350Y147433D01*
X24223Y148306D01*
X24839Y149374D01*
X25158Y150565D01*
Y151798D01*
X24839Y152990D01*
X24223Y154058D01*
X23350Y154930D01*
X22282Y155546D01*
X21091Y155866D01*
X20474Y155906D01*
X2D01*
Y244981D01*
X19688D01*
X20073Y245000D01*
X20830Y245150D01*
X21543Y245446D01*
X22185Y245875D01*
X22731Y246420D01*
X23160Y247062D01*
X23455Y247775D01*
X23606Y248532D01*
X23625Y248918D01*
Y262697D01*
X29370D01*
X29949Y262458D01*
X30392Y262015D01*
X30632Y261436D01*
Y258760D01*
X30651Y258375D01*
X30801Y257617D01*
X31097Y256905D01*
X31525Y256263D01*
X32071Y255717D01*
X32713Y255288D01*
X33426Y254993D01*
X34183Y254842D01*
X34569Y254823D01*
X58427D01*
Y314961D01*
X196850Y314961D01*
D02*
G37*
%LPC*%
G36*
X90012Y295874D02*
X83224D01*
Y289087D01*
X90012D01*
Y295874D01*
D02*
G37*
G36*
X96618Y295903D02*
X95732Y295787D01*
X94907Y295445D01*
X94198Y294901D01*
X93654Y294192D01*
X93312Y293366D01*
X93195Y292480D01*
X93312Y291594D01*
X93654Y290769D01*
X94198Y290060D01*
X94907Y289516D01*
X95732Y289174D01*
X96618Y289057D01*
X97504Y289174D01*
X98330Y289516D01*
X99038Y290060D01*
X99582Y290769D01*
X99924Y291594D01*
X100041Y292480D01*
X99924Y293366D01*
X99582Y294192D01*
X99038Y294901D01*
X98330Y295445D01*
X97504Y295787D01*
X96618Y295903D01*
D02*
G37*
G36*
X97012Y286447D02*
Y282874D01*
X100585D01*
X100500Y283520D01*
X100098Y284490D01*
X99460Y285322D01*
X98627Y285961D01*
X97658Y286362D01*
X97012Y286447D01*
D02*
G37*
G36*
X87012D02*
Y282874D01*
X90585D01*
X90500Y283520D01*
X90098Y284490D01*
X89460Y285322D01*
X88627Y285961D01*
X87658Y286362D01*
X87012Y286447D01*
D02*
G37*
G36*
X96224D02*
X95578Y286362D01*
X94609Y285961D01*
X93777Y285322D01*
X93138Y284490D01*
X92736Y283520D01*
X92651Y282874D01*
X96224D01*
Y286447D01*
D02*
G37*
G36*
X86224D02*
X85578Y286362D01*
X84609Y285961D01*
X83776Y285322D01*
X83138Y284490D01*
X82736Y283520D01*
X82651Y282874D01*
X86224D01*
Y286447D01*
D02*
G37*
G36*
X100585Y282087D02*
X97012D01*
Y278514D01*
X97658Y278599D01*
X98627Y279000D01*
X99460Y279639D01*
X100098Y280471D01*
X100500Y281440D01*
X100585Y282087D01*
D02*
G37*
G36*
X90585D02*
X87012D01*
Y278514D01*
X87658Y278599D01*
X88627Y279000D01*
X89460Y279639D01*
X90098Y280471D01*
X90500Y281440D01*
X90585Y282087D01*
D02*
G37*
G36*
X96224D02*
X92651D01*
X92736Y281440D01*
X93138Y280471D01*
X93777Y279639D01*
X94609Y279000D01*
X95578Y278599D01*
X96224Y278514D01*
Y282087D01*
D02*
G37*
G36*
X86224D02*
X82651D01*
X82736Y281440D01*
X83138Y280471D01*
X83776Y279639D01*
X84609Y279000D01*
X85578Y278599D01*
X86224Y278514D01*
Y282087D01*
D02*
G37*
G36*
X96618Y275903D02*
X95732Y275787D01*
X94907Y275445D01*
X94198Y274901D01*
X93654Y274192D01*
X93312Y273366D01*
X93195Y272480D01*
X93312Y271594D01*
X93654Y270769D01*
X94198Y270060D01*
X94907Y269516D01*
X95732Y269174D01*
X96618Y269057D01*
X97504Y269174D01*
X98330Y269516D01*
X99038Y270060D01*
X99582Y270769D01*
X99924Y271594D01*
X100041Y272480D01*
X99924Y273366D01*
X99582Y274192D01*
X99038Y274901D01*
X98330Y275445D01*
X97504Y275787D01*
X96618Y275903D01*
D02*
G37*
G36*
X86618D02*
X85732Y275787D01*
X84907Y275445D01*
X84198Y274901D01*
X83654Y274192D01*
X83312Y273366D01*
X83195Y272480D01*
X83312Y271594D01*
X83654Y270769D01*
X84198Y270060D01*
X84907Y269516D01*
X85732Y269174D01*
X86618Y269057D01*
X87504Y269174D01*
X88330Y269516D01*
X89038Y270060D01*
X89583Y270769D01*
X89925Y271594D01*
X90041Y272480D01*
X89925Y273366D01*
X89583Y274192D01*
X89038Y274901D01*
X88330Y275445D01*
X87504Y275787D01*
X86618Y275903D01*
D02*
G37*
G36*
X97012Y266447D02*
Y262874D01*
X100585D01*
X100500Y263520D01*
X100098Y264490D01*
X99460Y265322D01*
X98627Y265961D01*
X97658Y266362D01*
X97012Y266447D01*
D02*
G37*
G36*
X87012D02*
Y262874D01*
X90585D01*
X90500Y263520D01*
X90098Y264490D01*
X89460Y265322D01*
X88627Y265961D01*
X87658Y266362D01*
X87012Y266447D01*
D02*
G37*
G36*
X96224D02*
X95578Y266362D01*
X94609Y265961D01*
X93777Y265322D01*
X93138Y264490D01*
X92736Y263520D01*
X92651Y262874D01*
X96224D01*
Y266447D01*
D02*
G37*
G36*
X86224D02*
X85578Y266362D01*
X84609Y265961D01*
X83776Y265322D01*
X83138Y264490D01*
X82736Y263520D01*
X82651Y262874D01*
X86224D01*
Y266447D01*
D02*
G37*
G36*
X100585Y262087D02*
X97012D01*
Y258513D01*
X97658Y258599D01*
X98627Y259000D01*
X99460Y259639D01*
X100098Y260471D01*
X100500Y261440D01*
X100585Y262087D01*
D02*
G37*
G36*
X90585D02*
X87012D01*
Y258513D01*
X87658Y258599D01*
X88627Y259000D01*
X89460Y259639D01*
X90098Y260471D01*
X90500Y261440D01*
X90585Y262087D01*
D02*
G37*
G36*
X96224D02*
X92651D01*
X92736Y261440D01*
X93138Y260471D01*
X93777Y259639D01*
X94609Y259000D01*
X95578Y258599D01*
X96224Y258513D01*
Y262087D01*
D02*
G37*
G36*
X86224D02*
X82651D01*
X82736Y261440D01*
X83138Y260471D01*
X83776Y259639D01*
X84609Y259000D01*
X85578Y258599D01*
X86224Y258513D01*
Y262087D01*
D02*
G37*
G36*
X96618Y255903D02*
X95732Y255787D01*
X94907Y255445D01*
X94198Y254901D01*
X93654Y254192D01*
X93312Y253366D01*
X93195Y252480D01*
X93312Y251594D01*
X93654Y250769D01*
X94198Y250060D01*
X94907Y249516D01*
X95732Y249174D01*
X96618Y249057D01*
X97504Y249174D01*
X98330Y249516D01*
X99038Y250060D01*
X99582Y250769D01*
X99924Y251594D01*
X100041Y252480D01*
X99924Y253366D01*
X99582Y254192D01*
X99038Y254901D01*
X98330Y255445D01*
X97504Y255787D01*
X96618Y255903D01*
D02*
G37*
G36*
X86618D02*
X85732Y255787D01*
X84907Y255445D01*
X84198Y254901D01*
X83654Y254192D01*
X83312Y253366D01*
X83195Y252480D01*
X83312Y251594D01*
X83654Y250769D01*
X84198Y250060D01*
X84907Y249516D01*
X85732Y249174D01*
X86618Y249057D01*
X87504Y249174D01*
X88330Y249516D01*
X89038Y250060D01*
X89583Y250769D01*
X89925Y251594D01*
X90041Y252480D01*
X89925Y253366D01*
X89583Y254192D01*
X89038Y254901D01*
X88330Y255445D01*
X87504Y255787D01*
X86618Y255903D01*
D02*
G37*
G36*
X97012Y246447D02*
Y242874D01*
X100585D01*
X100500Y243520D01*
X100098Y244490D01*
X99460Y245322D01*
X98627Y245961D01*
X97658Y246362D01*
X97012Y246447D01*
D02*
G37*
G36*
X87012D02*
Y242874D01*
X90585D01*
X90500Y243520D01*
X90098Y244490D01*
X89460Y245322D01*
X88627Y245961D01*
X87658Y246362D01*
X87012Y246447D01*
D02*
G37*
G36*
X96224D02*
X95578Y246362D01*
X94609Y245961D01*
X93777Y245322D01*
X93138Y244490D01*
X92736Y243520D01*
X92651Y242874D01*
X96224D01*
Y246447D01*
D02*
G37*
G36*
X86224D02*
X85578Y246362D01*
X84609Y245961D01*
X83776Y245322D01*
X83138Y244490D01*
X82736Y243520D01*
X82651Y242874D01*
X86224D01*
Y246447D01*
D02*
G37*
G36*
X15947Y243012D02*
X9844D01*
Y241339D01*
X15947D01*
Y243012D01*
D02*
G37*
G36*
X9057D02*
X2955D01*
Y241339D01*
X9057D01*
Y243012D01*
D02*
G37*
G36*
X137187Y248161D02*
X129746D01*
Y240720D01*
X137187D01*
Y248161D01*
D02*
G37*
G36*
X155829Y248193D02*
X154858Y248065D01*
X153953Y247691D01*
X153175Y247094D01*
X152579Y246317D01*
X152204Y245412D01*
X152076Y244441D01*
X152204Y243469D01*
X152579Y242564D01*
X153175Y241787D01*
X153953Y241191D01*
X154858Y240816D01*
X155829Y240688D01*
X156800Y240816D01*
X157705Y241191D01*
X158482Y241787D01*
X159079Y242564D01*
X159454Y243469D01*
X159581Y244441D01*
X159454Y245412D01*
X159079Y246317D01*
X158482Y247094D01*
X157705Y247691D01*
X156800Y248065D01*
X155829Y248193D01*
D02*
G37*
G36*
X145042Y243302D02*
Y239399D01*
X148944D01*
X148848Y240131D01*
X148414Y241180D01*
X147722Y242080D01*
X146822Y242771D01*
X145773Y243206D01*
X145042Y243302D01*
D02*
G37*
G36*
X144254D02*
X143523Y243206D01*
X142474Y242771D01*
X141573Y242080D01*
X140882Y241180D01*
X140448Y240131D01*
X140351Y239399D01*
X144254D01*
Y243302D01*
D02*
G37*
G36*
X100585Y242087D02*
X97012D01*
Y238513D01*
X97658Y238599D01*
X98627Y239000D01*
X99460Y239639D01*
X100098Y240471D01*
X100500Y241440D01*
X100585Y242087D01*
D02*
G37*
G36*
X90585D02*
X87012D01*
Y238513D01*
X87658Y238599D01*
X88627Y239000D01*
X89460Y239639D01*
X90098Y240471D01*
X90500Y241440D01*
X90585Y242087D01*
D02*
G37*
G36*
X96224D02*
X92651D01*
X92736Y241440D01*
X93138Y240471D01*
X93777Y239639D01*
X94609Y239000D01*
X95578Y238599D01*
X96224Y238513D01*
Y242087D01*
D02*
G37*
G36*
X86224D02*
X82651D01*
X82736Y241440D01*
X83138Y240471D01*
X83776Y239639D01*
X84609Y239000D01*
X85578Y238599D01*
X86224Y238513D01*
Y242087D01*
D02*
G37*
G36*
X31107Y241561D02*
X31107Y241561D01*
X31106D01*
X30336Y241459D01*
X29617Y241162D01*
X29000Y240689D01*
X28997Y240684D01*
X25937Y237624D01*
X15947D01*
Y238878D01*
Y240552D01*
X9451D01*
X2955D01*
Y238878D01*
Y238190D01*
X9451D01*
Y237625D01*
X8680Y237523D01*
X8388Y237402D01*
X2955D01*
Y235729D01*
X3545D01*
Y233563D01*
X2955D01*
Y231890D01*
X8388D01*
X8680Y231769D01*
X9451Y231668D01*
Y231103D01*
X2955D01*
Y229430D01*
X3545D01*
Y227264D01*
X2955D01*
Y225591D01*
X9451D01*
X15947D01*
Y226942D01*
X31107D01*
X31644Y227049D01*
X32100Y227354D01*
X35479Y230732D01*
X35831Y230662D01*
X36752Y230846D01*
X37534Y231368D01*
X38056Y232149D01*
X38239Y233071D01*
X38056Y233993D01*
X37534Y234774D01*
X36752Y235296D01*
X35831Y235479D01*
X34909Y235296D01*
X34128Y234774D01*
X33606Y233993D01*
X33422Y233071D01*
X33492Y232719D01*
X30525Y229752D01*
X15947D01*
Y231668D01*
X27171D01*
X27942Y231769D01*
X28660Y232067D01*
X29277Y232540D01*
X33213Y236477D01*
X33213Y236477D01*
X33687Y237094D01*
X33984Y237812D01*
X34086Y238583D01*
X33984Y239353D01*
X33687Y240072D01*
X33213Y240689D01*
X32596Y241162D01*
X31878Y241459D01*
X31107Y241561D01*
D02*
G37*
G36*
X148944Y238612D02*
X145042D01*
Y234709D01*
X145773Y234805D01*
X146822Y235240D01*
X147722Y235931D01*
X148414Y236831D01*
X148848Y237880D01*
X148944Y238612D01*
D02*
G37*
G36*
X144254D02*
X140351D01*
X140448Y237880D01*
X140882Y236831D01*
X141573Y235931D01*
X142474Y235240D01*
X143523Y234805D01*
X144254Y234709D01*
Y238612D01*
D02*
G37*
G36*
X155829Y237323D02*
X154858Y237195D01*
X153953Y236820D01*
X153175Y236224D01*
X152579Y235447D01*
X152204Y234542D01*
X152076Y233571D01*
X152204Y232599D01*
X152579Y231694D01*
X153175Y230917D01*
X153953Y230321D01*
X154858Y229946D01*
X155829Y229818D01*
X156800Y229946D01*
X157705Y230321D01*
X158482Y230917D01*
X159079Y231694D01*
X159454Y232599D01*
X159581Y233571D01*
X159454Y234542D01*
X159079Y235447D01*
X158482Y236224D01*
X157705Y236820D01*
X156800Y237195D01*
X155829Y237323D01*
D02*
G37*
G36*
X133467D02*
X132495Y237195D01*
X131590Y236820D01*
X130813Y236224D01*
X130217Y235447D01*
X129842Y234542D01*
X129714Y233571D01*
X129842Y232599D01*
X130217Y231694D01*
X130813Y230917D01*
X131590Y230321D01*
X132495Y229946D01*
X133467Y229818D01*
X134438Y229946D01*
X135343Y230321D01*
X136120Y230917D01*
X136717Y231694D01*
X137092Y232599D01*
X137219Y233571D01*
X137092Y234542D01*
X136717Y235447D01*
X136120Y236224D01*
X135343Y236820D01*
X134438Y237195D01*
X133467Y237323D01*
D02*
G37*
G36*
X145042Y232432D02*
Y228529D01*
X148944D01*
X148848Y229261D01*
X148414Y230310D01*
X147722Y231210D01*
X146822Y231901D01*
X145773Y232336D01*
X145042Y232432D01*
D02*
G37*
G36*
X144254D02*
X143523Y232336D01*
X142474Y231901D01*
X141573Y231210D01*
X140882Y230310D01*
X140448Y229261D01*
X140351Y228529D01*
X144254D01*
Y232432D01*
D02*
G37*
G36*
X148944Y227742D02*
X145042D01*
Y223839D01*
X145773Y223936D01*
X146822Y224370D01*
X147722Y225061D01*
X148414Y225961D01*
X148848Y227010D01*
X148944Y227742D01*
D02*
G37*
G36*
X144254D02*
X140351D01*
X140448Y227010D01*
X140882Y225961D01*
X141573Y225061D01*
X142474Y224370D01*
X143523Y223936D01*
X144254Y223839D01*
Y227742D01*
D02*
G37*
G36*
X107012Y226447D02*
Y222874D01*
X110585D01*
X110500Y223520D01*
X110098Y224490D01*
X109460Y225322D01*
X108627Y225961D01*
X107658Y226362D01*
X107012Y226447D01*
D02*
G37*
G36*
X106224D02*
X105578Y226362D01*
X104609Y225961D01*
X103777Y225322D01*
X103138Y224490D01*
X102736Y223520D01*
X102651Y222874D01*
X106224D01*
Y226447D01*
D02*
G37*
G36*
X90012Y225874D02*
X83224D01*
Y219087D01*
X90012D01*
Y225874D01*
D02*
G37*
G36*
X96618Y225903D02*
X95732Y225787D01*
X94907Y225445D01*
X94198Y224901D01*
X93654Y224192D01*
X93312Y223366D01*
X93195Y222480D01*
X93312Y221594D01*
X93654Y220769D01*
X94198Y220060D01*
X94907Y219516D01*
X95732Y219174D01*
X96618Y219057D01*
X97504Y219174D01*
X98330Y219516D01*
X99038Y220060D01*
X99582Y220769D01*
X99924Y221594D01*
X100041Y222480D01*
X99924Y223366D01*
X99582Y224192D01*
X99038Y224901D01*
X98330Y225445D01*
X97504Y225787D01*
X96618Y225903D01*
D02*
G37*
G36*
X155829Y226453D02*
X154858Y226325D01*
X153953Y225950D01*
X153175Y225354D01*
X152579Y224577D01*
X152204Y223672D01*
X152076Y222701D01*
X152204Y221729D01*
X152579Y220824D01*
X153175Y220047D01*
X153953Y219451D01*
X154858Y219076D01*
X155829Y218948D01*
X156800Y219076D01*
X157705Y219451D01*
X158482Y220047D01*
X159079Y220824D01*
X159454Y221729D01*
X159581Y222701D01*
X159454Y223672D01*
X159079Y224577D01*
X158482Y225354D01*
X157705Y225950D01*
X156800Y226325D01*
X155829Y226453D01*
D02*
G37*
G36*
X133467D02*
X132495Y226325D01*
X131590Y225950D01*
X130813Y225354D01*
X130217Y224577D01*
X129842Y223672D01*
X129714Y222701D01*
X129842Y221729D01*
X130217Y220824D01*
X130813Y220047D01*
X131590Y219451D01*
X132495Y219076D01*
X133467Y218948D01*
X134438Y219076D01*
X135343Y219451D01*
X136120Y220047D01*
X136717Y220824D01*
X137092Y221729D01*
X137219Y222701D01*
X137092Y223672D01*
X136717Y224577D01*
X136120Y225354D01*
X135343Y225950D01*
X134438Y226325D01*
X133467Y226453D01*
D02*
G37*
G36*
X110585Y222087D02*
X107012D01*
Y218513D01*
X107658Y218599D01*
X108627Y219000D01*
X109460Y219639D01*
X110098Y220471D01*
X110500Y221440D01*
X110585Y222087D01*
D02*
G37*
G36*
X106224D02*
X102651D01*
X102736Y221440D01*
X103138Y220471D01*
X103777Y219639D01*
X104609Y219000D01*
X105578Y218599D01*
X106224Y218513D01*
Y222087D01*
D02*
G37*
G36*
X145042Y221562D02*
Y217659D01*
X148944D01*
X148848Y218391D01*
X148414Y219440D01*
X147722Y220340D01*
X146822Y221031D01*
X145773Y221465D01*
X145042Y221562D01*
D02*
G37*
G36*
X144254D02*
X143523Y221465D01*
X142474Y221031D01*
X141573Y220340D01*
X140882Y219440D01*
X140448Y218391D01*
X140351Y217659D01*
X144254D01*
Y221562D01*
D02*
G37*
G36*
X15947Y224804D02*
X9451D01*
X2955D01*
Y223130D01*
X3545D01*
Y220965D01*
X2955D01*
Y219292D01*
X9451D01*
X15947D01*
Y220643D01*
X28555D01*
X30343Y218856D01*
X30273Y218504D01*
X30456Y217582D01*
X30978Y216801D01*
X31759Y216279D01*
X32681Y216095D01*
X33603Y216279D01*
X34384Y216801D01*
X34906Y217582D01*
X35090Y218504D01*
X34906Y219426D01*
X34384Y220207D01*
X33603Y220729D01*
X32681Y220912D01*
X32329Y220843D01*
X30131Y223041D01*
X29675Y223346D01*
X29137Y223453D01*
X15947D01*
Y224804D01*
D02*
G37*
G36*
X148944Y216872D02*
X145042D01*
Y212969D01*
X145773Y213065D01*
X146822Y213500D01*
X147722Y214191D01*
X148414Y215091D01*
X148848Y216140D01*
X148944Y216872D01*
D02*
G37*
G36*
X144254D02*
X140351D01*
X140448Y216140D01*
X140882Y215091D01*
X141573Y214191D01*
X142474Y213500D01*
X143523Y213065D01*
X144254Y212969D01*
Y216872D01*
D02*
G37*
G36*
X107012Y216447D02*
Y212874D01*
X110585D01*
X110500Y213520D01*
X110098Y214490D01*
X109460Y215322D01*
X108627Y215961D01*
X107658Y216362D01*
X107012Y216447D01*
D02*
G37*
G36*
X106224D02*
X105578Y216362D01*
X104609Y215961D01*
X103777Y215322D01*
X103138Y214490D01*
X102736Y213520D01*
X102651Y212874D01*
X106224D01*
Y216447D01*
D02*
G37*
G36*
X15947Y218505D02*
X9451D01*
X2955D01*
Y216831D01*
X3545D01*
Y214666D01*
X2955D01*
Y212993D01*
X9451D01*
X15947D01*
Y214666D01*
X16331Y214946D01*
X18175D01*
X20465Y212656D01*
X20453Y212598D01*
X20545Y212138D01*
X20806Y211747D01*
X21197Y211486D01*
X21657Y211394D01*
X22118Y211486D01*
X22509Y211747D01*
X22770Y212138D01*
X22862Y212598D01*
X22770Y213059D01*
X22509Y213450D01*
X22118Y213711D01*
X21657Y213803D01*
X21600Y213791D01*
X19075Y216316D01*
X18815Y216490D01*
X18507Y216551D01*
X16331D01*
X15947Y216831D01*
Y218505D01*
D02*
G37*
G36*
X96618Y215903D02*
X95732Y215787D01*
X94907Y215445D01*
X94198Y214901D01*
X93654Y214192D01*
X93312Y213366D01*
X93195Y212480D01*
X93312Y211594D01*
X93654Y210769D01*
X94198Y210060D01*
X94907Y209516D01*
X95732Y209174D01*
X96618Y209057D01*
X97504Y209174D01*
X98330Y209516D01*
X99038Y210060D01*
X99582Y210769D01*
X99924Y211594D01*
X100041Y212480D01*
X99924Y213366D01*
X99582Y214192D01*
X99038Y214901D01*
X98330Y215445D01*
X97504Y215787D01*
X96618Y215903D01*
D02*
G37*
G36*
X86618D02*
X85732Y215787D01*
X84907Y215445D01*
X84198Y214901D01*
X83654Y214192D01*
X83312Y213366D01*
X83195Y212480D01*
X83312Y211594D01*
X83654Y210769D01*
X84198Y210060D01*
X84907Y209516D01*
X85732Y209174D01*
X86618Y209057D01*
X87504Y209174D01*
X88330Y209516D01*
X89038Y210060D01*
X89583Y210769D01*
X89925Y211594D01*
X90041Y212480D01*
X89925Y213366D01*
X89583Y214192D01*
X89038Y214901D01*
X88330Y215445D01*
X87504Y215787D01*
X86618Y215903D01*
D02*
G37*
G36*
X110585Y212087D02*
X107012D01*
Y208513D01*
X107658Y208599D01*
X108627Y209000D01*
X109460Y209639D01*
X110098Y210471D01*
X110500Y211440D01*
X110585Y212087D01*
D02*
G37*
G36*
X106224D02*
X102651D01*
X102736Y211440D01*
X103138Y210471D01*
X103777Y209639D01*
X104609Y209000D01*
X105578Y208599D01*
X106224Y208513D01*
Y212087D01*
D02*
G37*
G36*
X155829Y215583D02*
X154858Y215455D01*
X153953Y215080D01*
X153175Y214484D01*
X152579Y213707D01*
X152204Y212802D01*
X152076Y211830D01*
X152204Y210859D01*
X152579Y209954D01*
X153175Y209177D01*
X153953Y208581D01*
X154858Y208206D01*
X155829Y208078D01*
X156800Y208206D01*
X157705Y208581D01*
X158482Y209177D01*
X159079Y209954D01*
X159454Y210859D01*
X159581Y211830D01*
X159454Y212802D01*
X159079Y213707D01*
X158482Y214484D01*
X157705Y215080D01*
X156800Y215455D01*
X155829Y215583D01*
D02*
G37*
G36*
X133467D02*
X132495Y215455D01*
X131590Y215080D01*
X130813Y214484D01*
X130217Y213707D01*
X129842Y212802D01*
X129714Y211830D01*
X129842Y210859D01*
X130217Y209954D01*
X130813Y209177D01*
X131590Y208581D01*
X132495Y208206D01*
X133467Y208078D01*
X134438Y208206D01*
X135343Y208581D01*
X136120Y209177D01*
X136717Y209954D01*
X137092Y210859D01*
X137219Y211830D01*
X137092Y212802D01*
X136717Y213707D01*
X136120Y214484D01*
X135343Y215080D01*
X134438Y215455D01*
X133467Y215583D01*
D02*
G37*
G36*
X15947Y212205D02*
X9451D01*
X2955D01*
Y210532D01*
X3545D01*
Y208367D01*
X2955D01*
Y206693D01*
X9451D01*
X15947D01*
Y208367D01*
X16331Y208646D01*
X18568D01*
X20465Y206750D01*
X20453Y206693D01*
X20545Y206232D01*
X20806Y205841D01*
X21197Y205580D01*
X21657Y205489D01*
X22118Y205580D01*
X22509Y205841D01*
X22770Y206232D01*
X22862Y206693D01*
X22770Y207154D01*
X22509Y207544D01*
X22118Y207805D01*
X21657Y207897D01*
X21600Y207886D01*
X19469Y210017D01*
X19208Y210191D01*
X18901Y210252D01*
X16331D01*
X15947Y210532D01*
Y212205D01*
D02*
G37*
G36*
X107012Y206447D02*
Y202874D01*
X110585D01*
X110500Y203520D01*
X110098Y204490D01*
X109460Y205322D01*
X108627Y205961D01*
X107658Y206362D01*
X107012Y206447D01*
D02*
G37*
G36*
X106224D02*
X105578Y206362D01*
X104609Y205961D01*
X103777Y205322D01*
X103138Y204490D01*
X102736Y203520D01*
X102651Y202874D01*
X106224D01*
Y206447D01*
D02*
G37*
G36*
X144648Y210148D02*
X143677Y210020D01*
X142772Y209645D01*
X141994Y209049D01*
X141398Y208272D01*
X141023Y207367D01*
X140895Y206395D01*
X141023Y205424D01*
X141398Y204519D01*
X141994Y203742D01*
X142772Y203146D01*
X143677Y202771D01*
X144648Y202643D01*
X145619Y202771D01*
X146524Y203146D01*
X147301Y203742D01*
X147898Y204519D01*
X148273Y205424D01*
X148400Y206395D01*
X148273Y207367D01*
X147898Y208272D01*
X147301Y209049D01*
X146524Y209645D01*
X145619Y210020D01*
X144648Y210148D01*
D02*
G37*
G36*
X15947Y205906D02*
X9451D01*
X2955D01*
Y204233D01*
X3545D01*
Y202067D01*
X2955D01*
Y200394D01*
X9451D01*
X15947D01*
Y202067D01*
X16331Y202347D01*
X18962D01*
X20465Y200845D01*
X20453Y200787D01*
X20545Y200327D01*
X20806Y199936D01*
X21197Y199675D01*
X21657Y199583D01*
X22118Y199675D01*
X22509Y199936D01*
X22770Y200327D01*
X22862Y200787D01*
X22770Y201248D01*
X22509Y201639D01*
X22118Y201900D01*
X21657Y201992D01*
X21600Y201980D01*
X19862Y203718D01*
X19602Y203892D01*
X19295Y203953D01*
X16331D01*
X15947Y204233D01*
Y205906D01*
D02*
G37*
G36*
X96618Y205903D02*
X95732Y205787D01*
X94907Y205445D01*
X94198Y204901D01*
X93654Y204192D01*
X93312Y203366D01*
X93195Y202480D01*
X93312Y201594D01*
X93654Y200769D01*
X94198Y200060D01*
X94907Y199516D01*
X95732Y199174D01*
X96618Y199057D01*
X97504Y199174D01*
X98330Y199516D01*
X99038Y200060D01*
X99582Y200769D01*
X99924Y201594D01*
X100041Y202480D01*
X99924Y203366D01*
X99582Y204192D01*
X99038Y204901D01*
X98330Y205445D01*
X97504Y205787D01*
X96618Y205903D01*
D02*
G37*
G36*
X86618D02*
X85732Y205787D01*
X84907Y205445D01*
X84198Y204901D01*
X83654Y204192D01*
X83312Y203366D01*
X83195Y202480D01*
X83312Y201594D01*
X83654Y200769D01*
X84198Y200060D01*
X84907Y199516D01*
X85732Y199174D01*
X86618Y199057D01*
X87504Y199174D01*
X88330Y199516D01*
X89038Y200060D01*
X89583Y200769D01*
X89925Y201594D01*
X90041Y202480D01*
X89925Y203366D01*
X89583Y204192D01*
X89038Y204901D01*
X88330Y205445D01*
X87504Y205787D01*
X86618Y205903D01*
D02*
G37*
G36*
X110585Y202087D02*
X107012D01*
Y198513D01*
X107658Y198599D01*
X108627Y199000D01*
X109460Y199639D01*
X110098Y200471D01*
X110500Y201440D01*
X110585Y202087D01*
D02*
G37*
G36*
X106224D02*
X102651D01*
X102736Y201440D01*
X103138Y200471D01*
X103777Y199639D01*
X104609Y199000D01*
X105578Y198599D01*
X106224Y198513D01*
Y202087D01*
D02*
G37*
G36*
X133467Y204713D02*
X132495Y204585D01*
X131590Y204210D01*
X130813Y203614D01*
X130217Y202837D01*
X129842Y201932D01*
X129714Y200960D01*
X129842Y199989D01*
X130217Y199084D01*
X130813Y198307D01*
X131590Y197711D01*
X132495Y197336D01*
X133467Y197208D01*
X134438Y197336D01*
X135343Y197711D01*
X136120Y198307D01*
X136717Y199084D01*
X137092Y199989D01*
X137219Y200960D01*
X137092Y201932D01*
X136717Y202837D01*
X136120Y203614D01*
X135343Y204210D01*
X134438Y204585D01*
X133467Y204713D01*
D02*
G37*
G36*
X155829Y204713D02*
X154858Y204585D01*
X153953Y204210D01*
X153175Y203614D01*
X152579Y202837D01*
X152204Y201932D01*
X152076Y200960D01*
X152204Y199989D01*
X152579Y199084D01*
X153175Y198307D01*
X153953Y197711D01*
X154858Y197336D01*
X155829Y197208D01*
X156800Y197336D01*
X157705Y197711D01*
X158482Y198307D01*
X159079Y199084D01*
X159454Y199989D01*
X159581Y200960D01*
X159454Y201932D01*
X159079Y202837D01*
X158482Y203614D01*
X157705Y204210D01*
X156800Y204585D01*
X155829Y204713D01*
D02*
G37*
G36*
X15947Y199607D02*
X9451D01*
X2955D01*
Y197934D01*
X3545D01*
Y195768D01*
X2955D01*
Y194095D01*
X9451D01*
X15947D01*
Y195768D01*
X16331Y196048D01*
X18962D01*
X20465Y194546D01*
X20453Y194488D01*
X20545Y194027D01*
X20806Y193637D01*
X21197Y193376D01*
X21657Y193284D01*
X22118Y193376D01*
X22509Y193637D01*
X22770Y194027D01*
X22862Y194488D01*
X22770Y194949D01*
X22509Y195340D01*
X22118Y195601D01*
X21657Y195692D01*
X21600Y195681D01*
X19862Y197419D01*
X19602Y197593D01*
X19295Y197654D01*
X16331D01*
X15947Y197934D01*
Y199607D01*
D02*
G37*
G36*
X107012Y196447D02*
Y192874D01*
X110585D01*
X110500Y193520D01*
X110098Y194490D01*
X109460Y195322D01*
X108627Y195960D01*
X107658Y196362D01*
X107012Y196447D01*
D02*
G37*
G36*
X106224D02*
X105578Y196362D01*
X104609Y195960D01*
X103777Y195322D01*
X103138Y194490D01*
X102736Y193520D01*
X102651Y192874D01*
X106224D01*
Y196447D01*
D02*
G37*
G36*
X144648Y199278D02*
X143677Y199150D01*
X142772Y198775D01*
X141994Y198179D01*
X141398Y197402D01*
X141023Y196496D01*
X140895Y195525D01*
X141023Y194554D01*
X141398Y193649D01*
X141994Y192872D01*
X142772Y192276D01*
X143677Y191901D01*
X144648Y191773D01*
X145619Y191901D01*
X146524Y192276D01*
X147301Y192872D01*
X147898Y193649D01*
X148273Y194554D01*
X148400Y195525D01*
X148273Y196496D01*
X147898Y197402D01*
X147301Y198179D01*
X146524Y198775D01*
X145619Y199150D01*
X144648Y199278D01*
D02*
G37*
G36*
X96618Y195903D02*
X95732Y195787D01*
X94907Y195445D01*
X94198Y194901D01*
X93654Y194192D01*
X93312Y193366D01*
X93195Y192480D01*
X93312Y191594D01*
X93654Y190769D01*
X94198Y190060D01*
X94907Y189516D01*
X95732Y189174D01*
X96618Y189057D01*
X97504Y189174D01*
X98330Y189516D01*
X99038Y190060D01*
X99582Y190769D01*
X99924Y191594D01*
X100041Y192480D01*
X99924Y193366D01*
X99582Y194192D01*
X99038Y194901D01*
X98330Y195445D01*
X97504Y195787D01*
X96618Y195903D01*
D02*
G37*
G36*
X86618D02*
X85732Y195787D01*
X84907Y195445D01*
X84198Y194901D01*
X83654Y194192D01*
X83312Y193366D01*
X83195Y192480D01*
X83312Y191594D01*
X83654Y190769D01*
X84198Y190060D01*
X84907Y189516D01*
X85732Y189174D01*
X86618Y189057D01*
X87504Y189174D01*
X88330Y189516D01*
X89038Y190060D01*
X89583Y190769D01*
X89925Y191594D01*
X90041Y192480D01*
X89925Y193366D01*
X89583Y194192D01*
X89038Y194901D01*
X88330Y195445D01*
X87504Y195787D01*
X86618Y195903D01*
D02*
G37*
G36*
X110585Y192087D02*
X107012D01*
Y188514D01*
X107658Y188599D01*
X108627Y189000D01*
X109460Y189639D01*
X110098Y190471D01*
X110500Y191440D01*
X110585Y192087D01*
D02*
G37*
G36*
X106224D02*
X102651D01*
X102736Y191440D01*
X103138Y190471D01*
X103777Y189639D01*
X104609Y189000D01*
X105578Y188599D01*
X106224Y188514D01*
Y192087D01*
D02*
G37*
G36*
X15947Y193308D02*
X9451D01*
X2955D01*
Y191634D01*
X3545D01*
Y189469D01*
X2955D01*
Y187796D01*
X9451D01*
X15947D01*
Y189469D01*
X16331Y189749D01*
X18962D01*
X20465Y188246D01*
X20453Y188189D01*
X20545Y187728D01*
X20806Y187337D01*
X21197Y187076D01*
X21657Y186985D01*
X22118Y187076D01*
X22509Y187337D01*
X22770Y187728D01*
X22862Y188189D01*
X22770Y188650D01*
X22509Y189041D01*
X22118Y189302D01*
X21657Y189393D01*
X21600Y189382D01*
X19862Y191119D01*
X19602Y191293D01*
X19295Y191355D01*
X16331D01*
X15947Y191634D01*
Y193308D01*
D02*
G37*
G36*
X133467Y193843D02*
X132495Y193715D01*
X131590Y193340D01*
X130813Y192744D01*
X130217Y191966D01*
X129842Y191061D01*
X129714Y190090D01*
X129842Y189119D01*
X130217Y188214D01*
X130813Y187437D01*
X131590Y186840D01*
X132495Y186466D01*
X133467Y186338D01*
X134438Y186466D01*
X135343Y186840D01*
X136120Y187437D01*
X136717Y188214D01*
X137092Y189119D01*
X137219Y190090D01*
X137092Y191061D01*
X136717Y191966D01*
X136120Y192744D01*
X135343Y193340D01*
X134438Y193715D01*
X133467Y193843D01*
D02*
G37*
G36*
X155829Y193843D02*
X154858Y193715D01*
X153953Y193340D01*
X153175Y192744D01*
X152579Y191966D01*
X152204Y191061D01*
X152076Y190090D01*
X152204Y189119D01*
X152579Y188214D01*
X153175Y187437D01*
X153953Y186840D01*
X154858Y186466D01*
X155829Y186338D01*
X156800Y186466D01*
X157705Y186840D01*
X158482Y187437D01*
X159079Y188214D01*
X159454Y189119D01*
X159581Y190090D01*
X159454Y191061D01*
X159079Y191966D01*
X158482Y192744D01*
X157705Y193340D01*
X156800Y193715D01*
X155829Y193843D01*
D02*
G37*
G36*
X107012Y186447D02*
Y182874D01*
X110585D01*
X110500Y183520D01*
X110098Y184490D01*
X109460Y185322D01*
X108627Y185960D01*
X107658Y186362D01*
X107012Y186447D01*
D02*
G37*
G36*
X106224D02*
X105578Y186362D01*
X104609Y185960D01*
X103777Y185322D01*
X103138Y184490D01*
X102736Y183520D01*
X102651Y182874D01*
X106224D01*
Y186447D01*
D02*
G37*
G36*
X15947Y187008D02*
X9451D01*
X2955D01*
Y185335D01*
X3545D01*
Y183170D01*
X2955D01*
Y181497D01*
X9451D01*
X15947D01*
Y183170D01*
X16331Y183450D01*
X19356D01*
X20465Y182341D01*
X20453Y182283D01*
X20545Y181823D01*
X20806Y181432D01*
X21197Y181171D01*
X21657Y181079D01*
X22118Y181171D01*
X22509Y181432D01*
X22770Y181823D01*
X22862Y182283D01*
X22770Y182744D01*
X22509Y183135D01*
X22118Y183396D01*
X21657Y183488D01*
X21600Y183476D01*
X20256Y184820D01*
X19996Y184994D01*
X19689Y185055D01*
X16331D01*
X15947Y185335D01*
Y187008D01*
D02*
G37*
G36*
X144648Y188408D02*
X143677Y188280D01*
X142772Y187905D01*
X141994Y187309D01*
X141398Y186531D01*
X141023Y185626D01*
X140895Y184655D01*
X141023Y183684D01*
X141398Y182779D01*
X141994Y182002D01*
X142772Y181405D01*
X143677Y181030D01*
X144648Y180903D01*
X145619Y181030D01*
X146524Y181405D01*
X147301Y182002D01*
X147898Y182779D01*
X148273Y183684D01*
X148400Y184655D01*
X148273Y185626D01*
X147898Y186531D01*
X147301Y187309D01*
X146524Y187905D01*
X145619Y188280D01*
X144648Y188408D01*
D02*
G37*
G36*
X156223Y183517D02*
Y179614D01*
X160125D01*
X160029Y180346D01*
X159595Y181394D01*
X158904Y182295D01*
X158003Y182986D01*
X156954Y183420D01*
X156223Y183517D01*
D02*
G37*
G36*
X155435D02*
X154704Y183420D01*
X153655Y182986D01*
X152754Y182295D01*
X152063Y181394D01*
X151629Y180346D01*
X151533Y179614D01*
X155435D01*
Y183517D01*
D02*
G37*
G36*
X96618Y185903D02*
X95732Y185787D01*
X94907Y185445D01*
X94198Y184901D01*
X93654Y184192D01*
X93312Y183366D01*
X93195Y182480D01*
X93312Y181594D01*
X93654Y180769D01*
X94198Y180060D01*
X94907Y179516D01*
X95732Y179174D01*
X96618Y179057D01*
X97504Y179174D01*
X98330Y179516D01*
X99038Y180060D01*
X99582Y180769D01*
X99924Y181594D01*
X100041Y182480D01*
X99924Y183366D01*
X99582Y184192D01*
X99038Y184901D01*
X98330Y185445D01*
X97504Y185787D01*
X96618Y185903D01*
D02*
G37*
G36*
X86618D02*
X85732Y185787D01*
X84907Y185445D01*
X84198Y184901D01*
X83654Y184192D01*
X83312Y183366D01*
X83195Y182480D01*
X83312Y181594D01*
X83654Y180769D01*
X84198Y180060D01*
X84907Y179516D01*
X85732Y179174D01*
X86618Y179057D01*
X87504Y179174D01*
X88330Y179516D01*
X89038Y180060D01*
X89583Y180769D01*
X89925Y181594D01*
X90041Y182480D01*
X89925Y183366D01*
X89583Y184192D01*
X89038Y184901D01*
X88330Y185445D01*
X87504Y185787D01*
X86618Y185903D01*
D02*
G37*
G36*
X110585Y182087D02*
X107012D01*
Y178514D01*
X107658Y178599D01*
X108627Y179000D01*
X109460Y179639D01*
X110098Y180471D01*
X110500Y181440D01*
X110585Y182087D01*
D02*
G37*
G36*
X106224D02*
X102651D01*
X102736Y181440D01*
X103138Y180471D01*
X103777Y179639D01*
X104609Y179000D01*
X105578Y178599D01*
X106224Y178514D01*
Y182087D01*
D02*
G37*
G36*
X15947Y180709D02*
X9451D01*
X2955D01*
Y179036D01*
X3545D01*
Y176871D01*
X2955D01*
Y175197D01*
X9451D01*
X15947D01*
Y176871D01*
X16331Y177150D01*
X20773D01*
X20806Y177101D01*
X21197Y176840D01*
X21657Y176749D01*
X22118Y176840D01*
X22509Y177101D01*
X22770Y177492D01*
X22862Y177953D01*
X22770Y178414D01*
X22509Y178804D01*
X22118Y179065D01*
X21657Y179157D01*
X21197Y179065D01*
X20806Y178804D01*
X20774Y178756D01*
X16331D01*
X15947Y179036D01*
Y180709D01*
D02*
G37*
G36*
X133467Y182973D02*
X132495Y182845D01*
X131590Y182470D01*
X130813Y181874D01*
X130217Y181096D01*
X129842Y180191D01*
X129714Y179220D01*
X129842Y178249D01*
X130217Y177344D01*
X130813Y176567D01*
X131590Y175970D01*
X132495Y175595D01*
X133467Y175468D01*
X134438Y175595D01*
X135343Y175970D01*
X136120Y176567D01*
X136717Y177344D01*
X137092Y178249D01*
X137219Y179220D01*
X137092Y180191D01*
X136717Y181096D01*
X136120Y181874D01*
X135343Y182470D01*
X134438Y182845D01*
X133467Y182973D01*
D02*
G37*
G36*
X160125Y178826D02*
X156223D01*
Y174924D01*
X156954Y175020D01*
X158003Y175454D01*
X158904Y176146D01*
X159595Y177046D01*
X160029Y178095D01*
X160125Y178826D01*
D02*
G37*
G36*
X155435D02*
X151533D01*
X151629Y178095D01*
X152063Y177046D01*
X152754Y176146D01*
X153655Y175454D01*
X154704Y175020D01*
X155435Y174924D01*
Y178826D01*
D02*
G37*
G36*
X145042Y178082D02*
Y174179D01*
X148944D01*
X148848Y174910D01*
X148414Y175959D01*
X147722Y176860D01*
X146822Y177551D01*
X145773Y177985D01*
X145042Y178082D01*
D02*
G37*
G36*
X144254D02*
X143523Y177985D01*
X142474Y177551D01*
X141573Y176860D01*
X140882Y175959D01*
X140448Y174910D01*
X140351Y174179D01*
X144254D01*
Y178082D01*
D02*
G37*
G36*
X107012Y176447D02*
Y172874D01*
X110585D01*
X110500Y173520D01*
X110098Y174490D01*
X109460Y175322D01*
X108627Y175961D01*
X107658Y176362D01*
X107012Y176447D01*
D02*
G37*
G36*
X106224D02*
X105578Y176362D01*
X104609Y175961D01*
X103777Y175322D01*
X103138Y174490D01*
X102736Y173520D01*
X102651Y172874D01*
X106224D01*
Y176447D01*
D02*
G37*
G36*
X15947Y174410D02*
X9451D01*
X2955D01*
Y172737D01*
X3545D01*
Y170571D01*
X2955D01*
Y168898D01*
X9451D01*
X15947D01*
Y170571D01*
X16331Y170851D01*
X20773D01*
X20806Y170802D01*
X21197Y170541D01*
X21657Y170449D01*
X22118Y170541D01*
X22509Y170802D01*
X22770Y171193D01*
X22862Y171653D01*
X22770Y172114D01*
X22509Y172505D01*
X22118Y172766D01*
X21657Y172858D01*
X21197Y172766D01*
X20806Y172505D01*
X20774Y172457D01*
X16331D01*
X15947Y172737D01*
Y174410D01*
D02*
G37*
G36*
X148944Y173391D02*
X145042D01*
Y169489D01*
X145773Y169585D01*
X146822Y170019D01*
X147722Y170711D01*
X148414Y171611D01*
X148848Y172660D01*
X148944Y173391D01*
D02*
G37*
G36*
X144254D02*
X140351D01*
X140448Y172660D01*
X140882Y171611D01*
X141573Y170711D01*
X142474Y170019D01*
X143523Y169585D01*
X144254Y169489D01*
Y173391D01*
D02*
G37*
G36*
X96618Y175903D02*
X95732Y175787D01*
X94907Y175445D01*
X94198Y174901D01*
X93654Y174192D01*
X93312Y173366D01*
X93195Y172480D01*
X93312Y171594D01*
X93654Y170769D01*
X94198Y170060D01*
X94907Y169516D01*
X95732Y169174D01*
X96618Y169057D01*
X97504Y169174D01*
X98330Y169516D01*
X99038Y170060D01*
X99582Y170769D01*
X99924Y171594D01*
X100041Y172480D01*
X99924Y173366D01*
X99582Y174192D01*
X99038Y174901D01*
X98330Y175445D01*
X97504Y175787D01*
X96618Y175903D01*
D02*
G37*
G36*
X86618D02*
X85732Y175787D01*
X84907Y175445D01*
X84198Y174901D01*
X83654Y174192D01*
X83312Y173366D01*
X83195Y172480D01*
X83312Y171594D01*
X83654Y170769D01*
X84198Y170060D01*
X84907Y169516D01*
X85732Y169174D01*
X86618Y169057D01*
X87504Y169174D01*
X88330Y169516D01*
X89038Y170060D01*
X89583Y170769D01*
X89925Y171594D01*
X90041Y172480D01*
X89925Y173366D01*
X89583Y174192D01*
X89038Y174901D01*
X88330Y175445D01*
X87504Y175787D01*
X86618Y175903D01*
D02*
G37*
G36*
X110585Y172087D02*
X107012D01*
Y168514D01*
X107658Y168599D01*
X108627Y169000D01*
X109460Y169639D01*
X110098Y170471D01*
X110500Y171440D01*
X110585Y172087D01*
D02*
G37*
G36*
X106224D02*
X102651D01*
X102736Y171440D01*
X103138Y170471D01*
X103777Y169639D01*
X104609Y169000D01*
X105578Y168599D01*
X106224Y168514D01*
Y172087D01*
D02*
G37*
G36*
X155829Y172103D02*
X154858Y171975D01*
X153953Y171600D01*
X153175Y171004D01*
X152579Y170226D01*
X152204Y169321D01*
X152076Y168350D01*
X152204Y167379D01*
X152579Y166474D01*
X153175Y165697D01*
X153953Y165100D01*
X154858Y164725D01*
X155829Y164597D01*
X156800Y164725D01*
X157705Y165100D01*
X158482Y165697D01*
X159079Y166474D01*
X159454Y167379D01*
X159581Y168350D01*
X159454Y169321D01*
X159079Y170226D01*
X158482Y171004D01*
X157705Y171600D01*
X156800Y171975D01*
X155829Y172103D01*
D02*
G37*
G36*
X133467D02*
X132495Y171975D01*
X131590Y171600D01*
X130813Y171004D01*
X130217Y170226D01*
X129842Y169321D01*
X129714Y168350D01*
X129842Y167379D01*
X130217Y166474D01*
X130813Y165697D01*
X131590Y165100D01*
X132495Y164725D01*
X133467Y164597D01*
X134438Y164725D01*
X135343Y165100D01*
X136120Y165697D01*
X136717Y166474D01*
X137092Y167379D01*
X137219Y168350D01*
X137092Y169321D01*
X136717Y170226D01*
X136120Y171004D01*
X135343Y171600D01*
X134438Y171975D01*
X133467Y172103D01*
D02*
G37*
G36*
X15947Y168111D02*
X9451D01*
X2955D01*
Y166437D01*
X3545D01*
Y164272D01*
X2955D01*
Y162599D01*
X9451D01*
X15947D01*
Y164272D01*
X16331Y164552D01*
X20773D01*
X20806Y164503D01*
X21197Y164242D01*
X21657Y164150D01*
X22118Y164242D01*
X22509Y164503D01*
X22770Y164893D01*
X22862Y165354D01*
X22770Y165815D01*
X22509Y166206D01*
X22118Y166467D01*
X21657Y166559D01*
X21197Y166467D01*
X20806Y166206D01*
X20774Y166158D01*
X16331D01*
X15947Y166438D01*
Y168111D01*
D02*
G37*
G36*
X107012Y166447D02*
Y162874D01*
X110585D01*
X110500Y163520D01*
X110098Y164490D01*
X109460Y165322D01*
X108627Y165961D01*
X107658Y166362D01*
X107012Y166447D01*
D02*
G37*
G36*
X106224D02*
X105578Y166362D01*
X104609Y165961D01*
X103777Y165322D01*
X103138Y164490D01*
X102736Y163520D01*
X102651Y162874D01*
X106224D01*
Y166447D01*
D02*
G37*
G36*
X144648Y166668D02*
X143677Y166540D01*
X142772Y166165D01*
X141994Y165568D01*
X141398Y164791D01*
X141023Y163886D01*
X140895Y162915D01*
X141023Y161944D01*
X141398Y161039D01*
X141994Y160262D01*
X142772Y159665D01*
X143677Y159290D01*
X144648Y159162D01*
X145619Y159290D01*
X146524Y159665D01*
X147301Y160262D01*
X147898Y161039D01*
X148273Y161944D01*
X148400Y162915D01*
X148273Y163886D01*
X147898Y164791D01*
X147301Y165568D01*
X146524Y166165D01*
X145619Y166540D01*
X144648Y166668D01*
D02*
G37*
G36*
X96618Y165903D02*
X95732Y165787D01*
X94907Y165445D01*
X94198Y164901D01*
X93654Y164192D01*
X93312Y163366D01*
X93195Y162480D01*
X93312Y161594D01*
X93654Y160769D01*
X94198Y160060D01*
X94907Y159516D01*
X95732Y159174D01*
X96618Y159057D01*
X97504Y159174D01*
X98330Y159516D01*
X99038Y160060D01*
X99582Y160769D01*
X99924Y161594D01*
X100041Y162480D01*
X99924Y163366D01*
X99582Y164192D01*
X99038Y164901D01*
X98330Y165445D01*
X97504Y165787D01*
X96618Y165903D01*
D02*
G37*
G36*
X86618D02*
X85732Y165787D01*
X84907Y165445D01*
X84198Y164901D01*
X83654Y164192D01*
X83312Y163366D01*
X83195Y162480D01*
X83312Y161594D01*
X83654Y160769D01*
X84198Y160060D01*
X84907Y159516D01*
X85732Y159174D01*
X86618Y159057D01*
X87504Y159174D01*
X88330Y159516D01*
X89038Y160060D01*
X89583Y160769D01*
X89925Y161594D01*
X90041Y162480D01*
X89925Y163366D01*
X89583Y164192D01*
X89038Y164901D01*
X88330Y165445D01*
X87504Y165787D01*
X86618Y165903D01*
D02*
G37*
G36*
X110585Y162087D02*
X107012D01*
Y158513D01*
X107658Y158599D01*
X108627Y159000D01*
X109460Y159639D01*
X110098Y160471D01*
X110500Y161440D01*
X110585Y162087D01*
D02*
G37*
G36*
X106224D02*
X102651D01*
X102736Y161440D01*
X103138Y160471D01*
X103777Y159639D01*
X104609Y159000D01*
X105578Y158599D01*
X106224Y158513D01*
Y162087D01*
D02*
G37*
G36*
X15947Y161811D02*
X9451D01*
X2955D01*
Y160138D01*
X3545D01*
Y157579D01*
X15356D01*
Y158253D01*
X20773D01*
X20806Y158204D01*
X21197Y157943D01*
X21657Y157851D01*
X22118Y157943D01*
X22509Y158204D01*
X22770Y158594D01*
X22862Y159055D01*
X22770Y159516D01*
X22509Y159907D01*
X22118Y160168D01*
X21657Y160259D01*
X21197Y160168D01*
X20806Y159907D01*
X20774Y159859D01*
X16331D01*
X15947Y160138D01*
Y161811D01*
D02*
G37*
G36*
X155829Y161233D02*
X154858Y161105D01*
X153953Y160730D01*
X153175Y160134D01*
X152579Y159356D01*
X152204Y158451D01*
X152076Y157480D01*
X152204Y156509D01*
X152579Y155604D01*
X153175Y154826D01*
X153953Y154230D01*
X154858Y153855D01*
X155829Y153727D01*
X156800Y153855D01*
X157705Y154230D01*
X158482Y154826D01*
X159079Y155604D01*
X159454Y156509D01*
X159581Y157480D01*
X159454Y158451D01*
X159079Y159356D01*
X158482Y160134D01*
X157705Y160730D01*
X156800Y161105D01*
X155829Y161233D01*
D02*
G37*
G36*
X133467D02*
X132495Y161105D01*
X131590Y160730D01*
X130813Y160134D01*
X130217Y159356D01*
X129842Y158451D01*
X129714Y157480D01*
X129842Y156509D01*
X130217Y155604D01*
X130813Y154826D01*
X131590Y154230D01*
X132495Y153855D01*
X133467Y153727D01*
X134438Y153855D01*
X135343Y154230D01*
X136120Y154826D01*
X136717Y155604D01*
X137092Y156509D01*
X137219Y157480D01*
X137092Y158451D01*
X136717Y159356D01*
X136120Y160134D01*
X135343Y160730D01*
X134438Y161105D01*
X133467Y161233D01*
D02*
G37*
G36*
X107012Y156447D02*
Y152874D01*
X110585D01*
X110500Y153520D01*
X110098Y154490D01*
X109460Y155322D01*
X108627Y155961D01*
X107658Y156362D01*
X107012Y156447D01*
D02*
G37*
G36*
X106224D02*
X105578Y156362D01*
X104609Y155961D01*
X103777Y155322D01*
X103138Y154490D01*
X102736Y153520D01*
X102651Y152874D01*
X106224D01*
Y156447D01*
D02*
G37*
G36*
X96618Y155903D02*
X95732Y155787D01*
X94907Y155445D01*
X94198Y154901D01*
X93654Y154192D01*
X93312Y153366D01*
X93195Y152480D01*
X93312Y151594D01*
X93654Y150769D01*
X94198Y150060D01*
X94907Y149516D01*
X95732Y149174D01*
X96618Y149057D01*
X97504Y149174D01*
X98330Y149516D01*
X99038Y150060D01*
X99582Y150769D01*
X99924Y151594D01*
X100041Y152480D01*
X99924Y153366D01*
X99582Y154192D01*
X99038Y154901D01*
X98330Y155445D01*
X97504Y155787D01*
X96618Y155903D01*
D02*
G37*
G36*
X86618D02*
X85732Y155787D01*
X84907Y155445D01*
X84198Y154901D01*
X83654Y154192D01*
X83312Y153366D01*
X83195Y152480D01*
X83312Y151594D01*
X83654Y150769D01*
X84198Y150060D01*
X84907Y149516D01*
X85732Y149174D01*
X86618Y149057D01*
X87504Y149174D01*
X88330Y149516D01*
X89038Y150060D01*
X89583Y150769D01*
X89925Y151594D01*
X90041Y152480D01*
X89925Y153366D01*
X89583Y154192D01*
X89038Y154901D01*
X88330Y155445D01*
X87504Y155787D01*
X86618Y155903D01*
D02*
G37*
G36*
X110585Y152087D02*
X107012D01*
Y148513D01*
X107658Y148599D01*
X108627Y149000D01*
X109460Y149639D01*
X110098Y150471D01*
X110500Y151440D01*
X110585Y152087D01*
D02*
G37*
G36*
X106224D02*
X102651D01*
X102736Y151440D01*
X103138Y150471D01*
X103777Y149639D01*
X104609Y149000D01*
X105578Y148599D01*
X106224Y148513D01*
Y152087D01*
D02*
G37*
G36*
X144648Y155798D02*
X143677Y155670D01*
X142772Y155295D01*
X141994Y154698D01*
X141398Y153921D01*
X141023Y153016D01*
X140895Y152045D01*
X141023Y151074D01*
X141398Y150169D01*
X141994Y149391D01*
X142772Y148795D01*
X143677Y148420D01*
X144648Y148292D01*
X145619Y148420D01*
X146524Y148795D01*
X147301Y149391D01*
X147898Y150169D01*
X148273Y151074D01*
X148400Y152045D01*
X148273Y153016D01*
X147898Y153921D01*
X147301Y154698D01*
X146524Y155295D01*
X145619Y155670D01*
X144648Y155798D01*
D02*
G37*
G36*
X15947Y145375D02*
X9844D01*
Y143701D01*
X15947D01*
Y145375D01*
D02*
G37*
G36*
X9057D02*
X2955D01*
Y143701D01*
X9057D01*
Y145375D01*
D02*
G37*
G36*
X107012Y146447D02*
Y142874D01*
X110585D01*
X110500Y143520D01*
X110098Y144490D01*
X109460Y145322D01*
X108627Y145960D01*
X107658Y146362D01*
X107012Y146447D01*
D02*
G37*
G36*
X106224D02*
X105578Y146362D01*
X104609Y145960D01*
X103777Y145322D01*
X103138Y144490D01*
X102736Y143520D01*
X102651Y142874D01*
X106224D01*
Y146447D01*
D02*
G37*
G36*
X155829Y150363D02*
X154858Y150235D01*
X153953Y149860D01*
X153175Y149263D01*
X152579Y148486D01*
X152204Y147581D01*
X152076Y146610D01*
X152204Y145639D01*
X152579Y144734D01*
X153175Y143956D01*
X153953Y143360D01*
X154858Y142985D01*
X155829Y142857D01*
X156800Y142985D01*
X157705Y143360D01*
X158482Y143956D01*
X159079Y144734D01*
X159454Y145639D01*
X159581Y146610D01*
X159454Y147581D01*
X159079Y148486D01*
X158482Y149263D01*
X157705Y149860D01*
X156800Y150235D01*
X155829Y150363D01*
D02*
G37*
G36*
X133467D02*
X132495Y150235D01*
X131590Y149860D01*
X130813Y149263D01*
X130217Y148486D01*
X129842Y147581D01*
X129714Y146610D01*
X129842Y145639D01*
X130217Y144734D01*
X130813Y143956D01*
X131590Y143360D01*
X132495Y142985D01*
X133467Y142857D01*
X134438Y142985D01*
X135343Y143360D01*
X136120Y143956D01*
X136717Y144734D01*
X137092Y145639D01*
X137219Y146610D01*
X137092Y147581D01*
X136717Y148486D01*
X136120Y149263D01*
X135343Y149860D01*
X134438Y150235D01*
X133467Y150363D01*
D02*
G37*
G36*
X96618Y145903D02*
X95732Y145787D01*
X94907Y145445D01*
X94198Y144901D01*
X93654Y144192D01*
X93312Y143366D01*
X93195Y142480D01*
X93312Y141594D01*
X93654Y140769D01*
X94198Y140060D01*
X94907Y139516D01*
X95732Y139174D01*
X96618Y139057D01*
X97504Y139174D01*
X98330Y139516D01*
X99038Y140060D01*
X99582Y140769D01*
X99924Y141594D01*
X100041Y142480D01*
X99924Y143366D01*
X99582Y144192D01*
X99038Y144901D01*
X98330Y145445D01*
X97504Y145787D01*
X96618Y145903D01*
D02*
G37*
G36*
X86618D02*
X85732Y145787D01*
X84907Y145445D01*
X84198Y144901D01*
X83654Y144192D01*
X83312Y143366D01*
X83195Y142480D01*
X83312Y141594D01*
X83654Y140769D01*
X84198Y140060D01*
X84907Y139516D01*
X85732Y139174D01*
X86618Y139057D01*
X87504Y139174D01*
X88330Y139516D01*
X89038Y140060D01*
X89583Y140769D01*
X89925Y141594D01*
X90041Y142480D01*
X89925Y143366D01*
X89583Y144192D01*
X89038Y144901D01*
X88330Y145445D01*
X87504Y145787D01*
X86618Y145903D01*
D02*
G37*
G36*
X110585Y142087D02*
X107012D01*
Y138514D01*
X107658Y138599D01*
X108627Y139000D01*
X109460Y139639D01*
X110098Y140471D01*
X110500Y141440D01*
X110585Y142087D01*
D02*
G37*
G36*
X106224D02*
X102651D01*
X102736Y141440D01*
X103138Y140471D01*
X103777Y139639D01*
X104609Y139000D01*
X105578Y138599D01*
X106224Y138514D01*
Y142087D01*
D02*
G37*
G36*
X144648Y144928D02*
X143677Y144800D01*
X142772Y144425D01*
X141994Y143828D01*
X141398Y143051D01*
X141023Y142146D01*
X140895Y141175D01*
X141023Y140204D01*
X141398Y139299D01*
X141994Y138521D01*
X142772Y137925D01*
X143677Y137550D01*
X144648Y137422D01*
X145619Y137550D01*
X146524Y137925D01*
X147301Y138521D01*
X147898Y139299D01*
X148273Y140204D01*
X148400Y141175D01*
X148273Y142146D01*
X147898Y143051D01*
X147301Y143828D01*
X146524Y144425D01*
X145619Y144800D01*
X144648Y144928D01*
D02*
G37*
G36*
X156223Y140036D02*
Y136134D01*
X160125D01*
X160029Y136865D01*
X159595Y137914D01*
X158904Y138814D01*
X158003Y139506D01*
X156954Y139940D01*
X156223Y140036D01*
D02*
G37*
G36*
X155435D02*
X154704Y139940D01*
X153655Y139506D01*
X152754Y138814D01*
X152063Y137914D01*
X151629Y136865D01*
X151533Y136134D01*
X155435D01*
Y140036D01*
D02*
G37*
G36*
X107012Y136447D02*
Y132874D01*
X110585D01*
X110500Y133520D01*
X110098Y134490D01*
X109460Y135322D01*
X108627Y135960D01*
X107658Y136362D01*
X107012Y136447D01*
D02*
G37*
G36*
X106224D02*
X105578Y136362D01*
X104609Y135960D01*
X103777Y135322D01*
X103138Y134490D01*
X102736Y133520D01*
X102651Y132874D01*
X106224D01*
Y136447D01*
D02*
G37*
G36*
X133467Y139492D02*
X132495Y139365D01*
X131590Y138990D01*
X130813Y138393D01*
X130217Y137616D01*
X129842Y136711D01*
X129714Y135740D01*
X129842Y134769D01*
X130217Y133864D01*
X130813Y133086D01*
X131590Y132490D01*
X132495Y132115D01*
X133467Y131987D01*
X134438Y132115D01*
X135343Y132490D01*
X136120Y133086D01*
X136717Y133864D01*
X137092Y134769D01*
X137219Y135740D01*
X137092Y136711D01*
X136717Y137616D01*
X136120Y138393D01*
X135343Y138990D01*
X134438Y139365D01*
X133467Y139492D01*
D02*
G37*
G36*
X160125Y135346D02*
X156223D01*
Y131444D01*
X156954Y131540D01*
X158003Y131974D01*
X158904Y132665D01*
X159595Y133566D01*
X160029Y134615D01*
X160125Y135346D01*
D02*
G37*
G36*
X155435D02*
X151533D01*
X151629Y134615D01*
X152063Y133566D01*
X152754Y132665D01*
X153655Y131974D01*
X154704Y131540D01*
X155435Y131444D01*
Y135346D01*
D02*
G37*
G36*
X145042Y134601D02*
Y130699D01*
X148944D01*
X148848Y131430D01*
X148414Y132479D01*
X147722Y133379D01*
X146822Y134071D01*
X145773Y134505D01*
X145042Y134601D01*
D02*
G37*
G36*
X144254D02*
X143523Y134505D01*
X142474Y134071D01*
X141573Y133379D01*
X140882Y132479D01*
X140448Y131430D01*
X140351Y130699D01*
X144254D01*
Y134601D01*
D02*
G37*
G36*
X96618Y135903D02*
X95732Y135787D01*
X94907Y135445D01*
X94198Y134901D01*
X93654Y134192D01*
X93312Y133366D01*
X93195Y132480D01*
X93312Y131594D01*
X93654Y130769D01*
X94198Y130060D01*
X94907Y129516D01*
X95732Y129174D01*
X96618Y129057D01*
X97504Y129174D01*
X98330Y129516D01*
X99038Y130060D01*
X99582Y130769D01*
X99924Y131594D01*
X100041Y132480D01*
X99924Y133366D01*
X99582Y134192D01*
X99038Y134901D01*
X98330Y135445D01*
X97504Y135787D01*
X96618Y135903D01*
D02*
G37*
G36*
X86618D02*
X85732Y135787D01*
X84907Y135445D01*
X84198Y134901D01*
X83654Y134192D01*
X83312Y133366D01*
X83195Y132480D01*
X83312Y131594D01*
X83654Y130769D01*
X84198Y130060D01*
X84907Y129516D01*
X85732Y129174D01*
X86618Y129057D01*
X87504Y129174D01*
X88330Y129516D01*
X89038Y130060D01*
X89583Y130769D01*
X89925Y131594D01*
X90041Y132480D01*
X89925Y133366D01*
X89583Y134192D01*
X89038Y134901D01*
X88330Y135445D01*
X87504Y135787D01*
X86618Y135903D01*
D02*
G37*
G36*
X110585Y132087D02*
X107012D01*
Y128514D01*
X107658Y128599D01*
X108627Y129000D01*
X109460Y129639D01*
X110098Y130471D01*
X110500Y131440D01*
X110585Y132087D01*
D02*
G37*
G36*
X106224D02*
X102651D01*
X102736Y131440D01*
X103138Y130471D01*
X103777Y129639D01*
X104609Y129000D01*
X105578Y128599D01*
X106224Y128514D01*
Y132087D01*
D02*
G37*
G36*
X148944Y129911D02*
X145042D01*
Y126008D01*
X145773Y126105D01*
X146822Y126539D01*
X147722Y127230D01*
X148414Y128131D01*
X148848Y129179D01*
X148944Y129911D01*
D02*
G37*
G36*
X144254D02*
X140351D01*
X140448Y129179D01*
X140882Y128131D01*
X141573Y127230D01*
X142474Y126539D01*
X143523Y126105D01*
X144254Y126008D01*
Y129911D01*
D02*
G37*
G36*
X155829Y128622D02*
X154858Y128495D01*
X153953Y128120D01*
X153175Y127523D01*
X152579Y126746D01*
X152204Y125841D01*
X152076Y124870D01*
X152204Y123898D01*
X152579Y122994D01*
X153175Y122216D01*
X153953Y121620D01*
X154858Y121245D01*
X155829Y121117D01*
X156800Y121245D01*
X157705Y121620D01*
X158482Y122216D01*
X159079Y122994D01*
X159454Y123898D01*
X159581Y124870D01*
X159454Y125841D01*
X159079Y126746D01*
X158482Y127523D01*
X157705Y128120D01*
X156800Y128495D01*
X155829Y128622D01*
D02*
G37*
G36*
X133467D02*
X132495Y128495D01*
X131590Y128120D01*
X130813Y127523D01*
X130217Y126746D01*
X129842Y125841D01*
X129714Y124870D01*
X129842Y123898D01*
X130217Y122994D01*
X130813Y122216D01*
X131590Y121620D01*
X132495Y121245D01*
X133467Y121117D01*
X134438Y121245D01*
X135343Y121620D01*
X136120Y122216D01*
X136717Y122994D01*
X137092Y123898D01*
X137219Y124870D01*
X137092Y125841D01*
X136717Y126746D01*
X136120Y127523D01*
X135343Y128120D01*
X134438Y128495D01*
X133467Y128622D01*
D02*
G37*
G36*
X144648Y123187D02*
X143677Y123059D01*
X142772Y122685D01*
X141994Y122088D01*
X141398Y121311D01*
X141023Y120406D01*
X140895Y119435D01*
X141023Y118464D01*
X141398Y117558D01*
X141994Y116781D01*
X142772Y116185D01*
X143677Y115810D01*
X144648Y115682D01*
X145619Y115810D01*
X146524Y116185D01*
X147301Y116781D01*
X147898Y117558D01*
X148273Y118464D01*
X148400Y119435D01*
X148273Y120406D01*
X147898Y121311D01*
X147301Y122088D01*
X146524Y122685D01*
X145619Y123059D01*
X144648Y123187D01*
D02*
G37*
G36*
X107012Y115947D02*
Y112374D01*
X110585D01*
X110500Y113020D01*
X110098Y113990D01*
X109460Y114822D01*
X108627Y115461D01*
X107658Y115862D01*
X107012Y115947D01*
D02*
G37*
G36*
X106224D02*
X105578Y115862D01*
X104609Y115461D01*
X103777Y114822D01*
X103138Y113990D01*
X102736Y113020D01*
X102651Y112374D01*
X106224D01*
Y115947D01*
D02*
G37*
G36*
X155829Y117752D02*
X154858Y117624D01*
X153953Y117250D01*
X153175Y116653D01*
X152579Y115876D01*
X152204Y114971D01*
X152076Y114000D01*
X152204Y113029D01*
X152579Y112123D01*
X153175Y111346D01*
X153953Y110750D01*
X154858Y110375D01*
X155829Y110247D01*
X156800Y110375D01*
X157705Y110750D01*
X158482Y111346D01*
X159079Y112123D01*
X159454Y113029D01*
X159581Y114000D01*
X159454Y114971D01*
X159079Y115876D01*
X158482Y116653D01*
X157705Y117250D01*
X156800Y117624D01*
X155829Y117752D01*
D02*
G37*
G36*
X133467D02*
X132495Y117624D01*
X131590Y117250D01*
X130813Y116653D01*
X130217Y115876D01*
X129842Y114971D01*
X129714Y114000D01*
X129842Y113029D01*
X130217Y112123D01*
X130813Y111346D01*
X131590Y110750D01*
X132495Y110375D01*
X133467Y110247D01*
X134438Y110375D01*
X135343Y110750D01*
X136120Y111346D01*
X136717Y112123D01*
X137092Y113029D01*
X137219Y114000D01*
X137092Y114971D01*
X136717Y115876D01*
X136120Y116653D01*
X135343Y117250D01*
X134438Y117624D01*
X133467Y117752D01*
D02*
G37*
G36*
X90012Y115374D02*
X83224D01*
Y108587D01*
X90012D01*
Y115374D01*
D02*
G37*
G36*
X15947Y142914D02*
X9451D01*
X2955D01*
Y141241D01*
X3545D01*
Y139075D01*
X2955D01*
Y137402D01*
X9451D01*
X15947D01*
Y139075D01*
X16331Y139355D01*
X57939D01*
X78964Y118330D01*
X78964Y118330D01*
X79224Y118156D01*
X79532Y118095D01*
X89368D01*
X93705Y113758D01*
X93654Y113692D01*
X93312Y112866D01*
X93195Y111980D01*
X93312Y111094D01*
X93654Y110269D01*
X94198Y109560D01*
X94907Y109016D01*
X95732Y108674D01*
X96618Y108557D01*
X97504Y108674D01*
X98330Y109016D01*
X99038Y109560D01*
X99582Y110269D01*
X99924Y111094D01*
X100041Y111980D01*
X99924Y112866D01*
X99582Y113692D01*
X99038Y114401D01*
X98330Y114945D01*
X97504Y115287D01*
X96618Y115403D01*
X95732Y115287D01*
X94907Y114945D01*
X94840Y114894D01*
X90268Y119465D01*
X90008Y119639D01*
X89701Y119701D01*
X79864D01*
X58839Y140726D01*
X58578Y140900D01*
X58271Y140961D01*
X16331D01*
X15947Y141241D01*
Y142914D01*
D02*
G37*
G36*
X110585Y111587D02*
X107012D01*
Y108013D01*
X107658Y108099D01*
X108627Y108500D01*
X109460Y109139D01*
X110098Y109971D01*
X110500Y110940D01*
X110585Y111587D01*
D02*
G37*
G36*
X106224D02*
X102651D01*
X102736Y110940D01*
X103138Y109971D01*
X103777Y109139D01*
X104609Y108500D01*
X105578Y108099D01*
X106224Y108013D01*
Y111587D01*
D02*
G37*
G36*
X144648Y112317D02*
X143677Y112189D01*
X142772Y111814D01*
X141994Y111218D01*
X141398Y110441D01*
X141023Y109536D01*
X140895Y108565D01*
X141023Y107593D01*
X141398Y106688D01*
X141994Y105911D01*
X142772Y105315D01*
X143677Y104940D01*
X144648Y104812D01*
X145619Y104940D01*
X146524Y105315D01*
X147301Y105911D01*
X147898Y106688D01*
X148273Y107593D01*
X148400Y108565D01*
X148273Y109536D01*
X147898Y110441D01*
X147301Y111218D01*
X146524Y111814D01*
X145619Y112189D01*
X144648Y112317D01*
D02*
G37*
G36*
X107012Y105947D02*
Y102374D01*
X110585D01*
X110500Y103020D01*
X110098Y103990D01*
X109460Y104822D01*
X108627Y105461D01*
X107658Y105862D01*
X107012Y105947D01*
D02*
G37*
G36*
X106224D02*
X105578Y105862D01*
X104609Y105461D01*
X103777Y104822D01*
X103138Y103990D01*
X102736Y103020D01*
X102651Y102374D01*
X106224D01*
Y105947D01*
D02*
G37*
G36*
X155829Y106882D02*
X154858Y106754D01*
X153953Y106379D01*
X153175Y105783D01*
X152579Y105006D01*
X152204Y104101D01*
X152076Y103130D01*
X152204Y102158D01*
X152579Y101253D01*
X153175Y100476D01*
X153953Y99880D01*
X154858Y99505D01*
X155829Y99377D01*
X156800Y99505D01*
X157705Y99880D01*
X158482Y100476D01*
X159079Y101253D01*
X159454Y102158D01*
X159581Y103130D01*
X159454Y104101D01*
X159079Y105006D01*
X158482Y105783D01*
X157705Y106379D01*
X156800Y106754D01*
X155829Y106882D01*
D02*
G37*
G36*
X133467D02*
X132495Y106754D01*
X131590Y106379D01*
X130813Y105783D01*
X130217Y105006D01*
X129842Y104101D01*
X129714Y103130D01*
X129842Y102158D01*
X130217Y101253D01*
X130813Y100476D01*
X131590Y99880D01*
X132495Y99505D01*
X133467Y99377D01*
X134438Y99505D01*
X135343Y99880D01*
X136120Y100476D01*
X136717Y101253D01*
X137092Y102158D01*
X137219Y103130D01*
X137092Y104101D01*
X136717Y105006D01*
X136120Y105783D01*
X135343Y106379D01*
X134438Y106754D01*
X133467Y106882D01*
D02*
G37*
G36*
X15947Y136615D02*
X9451D01*
X2955D01*
Y134941D01*
X3545D01*
Y132776D01*
X2955D01*
Y131103D01*
X9451D01*
X15947D01*
Y132776D01*
X16331Y133056D01*
X54395D01*
X81326Y106125D01*
X81326Y106125D01*
X81586Y105951D01*
X81894Y105890D01*
X81894Y105890D01*
X86485D01*
X86518Y105390D01*
X86243Y105354D01*
X85732Y105287D01*
X84907Y104945D01*
X84198Y104401D01*
X83654Y103692D01*
X83312Y102866D01*
X83195Y101980D01*
X83312Y101094D01*
X83654Y100269D01*
X84198Y99560D01*
X84907Y99016D01*
X85732Y98674D01*
X86618Y98557D01*
X87504Y98674D01*
X88330Y99016D01*
X89038Y99560D01*
X89583Y100269D01*
X89925Y101094D01*
X90041Y101980D01*
X89925Y102866D01*
X89583Y103692D01*
X89038Y104401D01*
X88330Y104945D01*
X87504Y105287D01*
X86993Y105354D01*
X86718Y105390D01*
X86751Y105890D01*
X91573D01*
X93705Y103758D01*
X93654Y103692D01*
X93312Y102866D01*
X93195Y101980D01*
X93312Y101094D01*
X93654Y100269D01*
X94198Y99560D01*
X94907Y99016D01*
X95732Y98674D01*
X96618Y98557D01*
X97504Y98674D01*
X98330Y99016D01*
X99038Y99560D01*
X99582Y100269D01*
X99924Y101094D01*
X100041Y101980D01*
X99924Y102866D01*
X99582Y103692D01*
X99038Y104401D01*
X98330Y104945D01*
X97504Y105287D01*
X96618Y105403D01*
X95732Y105287D01*
X94907Y104945D01*
X94840Y104894D01*
X92473Y107261D01*
X92213Y107435D01*
X91905Y107496D01*
X82226D01*
X55295Y134426D01*
X55035Y134600D01*
X54728Y134662D01*
X16331D01*
X15947Y134941D01*
Y136615D01*
D02*
G37*
G36*
X110585Y101587D02*
X107012D01*
Y98014D01*
X107658Y98099D01*
X108627Y98500D01*
X109460Y99139D01*
X110098Y99971D01*
X110500Y100940D01*
X110585Y101587D01*
D02*
G37*
G36*
X106224D02*
X102651D01*
X102736Y100940D01*
X103138Y99971D01*
X103777Y99139D01*
X104609Y98500D01*
X105578Y98099D01*
X106224Y98014D01*
Y101587D01*
D02*
G37*
G36*
X144648Y101447D02*
X143677Y101319D01*
X142772Y100944D01*
X141994Y100348D01*
X141398Y99571D01*
X141023Y98666D01*
X140895Y97695D01*
X141023Y96723D01*
X141398Y95818D01*
X141994Y95041D01*
X142772Y94445D01*
X143677Y94070D01*
X144648Y93942D01*
X145619Y94070D01*
X146524Y94445D01*
X147301Y95041D01*
X147898Y95818D01*
X148273Y96723D01*
X148400Y97695D01*
X148273Y98666D01*
X147898Y99571D01*
X147301Y100348D01*
X146524Y100944D01*
X145619Y101319D01*
X144648Y101447D01*
D02*
G37*
G36*
X156223Y96556D02*
Y92653D01*
X160125D01*
X160029Y93385D01*
X159595Y94434D01*
X158904Y95334D01*
X158003Y96025D01*
X156954Y96460D01*
X156223Y96556D01*
D02*
G37*
G36*
X155435D02*
X154704Y96460D01*
X153655Y96025D01*
X152754Y95334D01*
X152063Y94434D01*
X151629Y93385D01*
X151533Y92653D01*
X155435D01*
Y96556D01*
D02*
G37*
G36*
X15947Y130315D02*
X9451D01*
X2955D01*
Y128642D01*
X3545D01*
Y126477D01*
X2955D01*
Y124804D01*
X9451D01*
X15947D01*
Y126477D01*
X16331Y126757D01*
X50458D01*
X80932Y96283D01*
X80932Y96283D01*
X81193Y96109D01*
X81500Y96048D01*
X91416D01*
X93705Y93758D01*
X93654Y93692D01*
X93312Y92866D01*
X93195Y91980D01*
X93312Y91094D01*
X93654Y90269D01*
X94198Y89560D01*
X94907Y89016D01*
X95732Y88674D01*
X96618Y88557D01*
X97504Y88674D01*
X98330Y89016D01*
X99038Y89560D01*
X99582Y90269D01*
X99924Y91094D01*
X100041Y91980D01*
X99924Y92866D01*
X99582Y93692D01*
X99038Y94401D01*
X98330Y94945D01*
X97504Y95287D01*
X96618Y95403D01*
X95732Y95287D01*
X94907Y94945D01*
X94840Y94894D01*
X92316Y97418D01*
X92055Y97592D01*
X91748Y97653D01*
X81833D01*
X51358Y128127D01*
X51098Y128301D01*
X50791Y128362D01*
X16331D01*
X15947Y128642D01*
Y130315D01*
D02*
G37*
G36*
X86618Y95403D02*
X85732Y95287D01*
X84907Y94945D01*
X84198Y94401D01*
X83654Y93692D01*
X83312Y92866D01*
X83195Y91980D01*
X83312Y91094D01*
X83654Y90269D01*
X84198Y89560D01*
X84907Y89016D01*
X85732Y88674D01*
X86618Y88557D01*
X87504Y88674D01*
X88330Y89016D01*
X89038Y89560D01*
X89583Y90269D01*
X89925Y91094D01*
X90041Y91980D01*
X89925Y92866D01*
X89583Y93692D01*
X89038Y94401D01*
X88330Y94945D01*
X87504Y95287D01*
X86618Y95403D01*
D02*
G37*
G36*
X133467Y96012D02*
X132495Y95884D01*
X131590Y95509D01*
X130813Y94913D01*
X130217Y94136D01*
X129842Y93231D01*
X129714Y92260D01*
X129842Y91288D01*
X130217Y90383D01*
X130813Y89606D01*
X131590Y89010D01*
X132495Y88635D01*
X133467Y88507D01*
X134438Y88635D01*
X135343Y89010D01*
X136120Y89606D01*
X136717Y90383D01*
X137092Y91288D01*
X137219Y92260D01*
X137092Y93231D01*
X136717Y94136D01*
X136120Y94913D01*
X135343Y95509D01*
X134438Y95884D01*
X133467Y96012D01*
D02*
G37*
G36*
X160125Y91866D02*
X156223D01*
Y87963D01*
X156954Y88060D01*
X158003Y88494D01*
X158904Y89185D01*
X159595Y90085D01*
X160029Y91134D01*
X160125Y91866D01*
D02*
G37*
G36*
X155435D02*
X151533D01*
X151629Y91134D01*
X152063Y90085D01*
X152754Y89185D01*
X153655Y88494D01*
X154704Y88060D01*
X155435Y87963D01*
Y91866D01*
D02*
G37*
G36*
X145042Y91121D02*
Y87218D01*
X148944D01*
X148848Y87950D01*
X148414Y88999D01*
X147722Y89899D01*
X146822Y90590D01*
X145773Y91025D01*
X145042Y91121D01*
D02*
G37*
G36*
X144254D02*
X143523Y91025D01*
X142474Y90590D01*
X141573Y89899D01*
X140882Y88999D01*
X140448Y87950D01*
X140351Y87218D01*
X144254D01*
Y91121D01*
D02*
G37*
G36*
X148944Y86431D02*
X145042D01*
Y82528D01*
X145773Y82624D01*
X146822Y83059D01*
X147722Y83750D01*
X148414Y84650D01*
X148848Y85699D01*
X148944Y86431D01*
D02*
G37*
G36*
X144254D02*
X140351D01*
X140448Y85699D01*
X140882Y84650D01*
X141573Y83750D01*
X142474Y83059D01*
X143523Y82624D01*
X144254Y82528D01*
Y86431D01*
D02*
G37*
G36*
X15947Y124016D02*
X9451D01*
X2955D01*
Y122343D01*
X3545D01*
Y120178D01*
X2955D01*
Y118505D01*
X9451D01*
X15947D01*
Y120178D01*
X16331Y120457D01*
X50065D01*
X84082Y86440D01*
X84342Y86266D01*
X84650Y86205D01*
X91258D01*
X93705Y83758D01*
X93654Y83692D01*
X93312Y82866D01*
X93195Y81980D01*
X93312Y81094D01*
X93654Y80269D01*
X94198Y79560D01*
X94907Y79016D01*
X95732Y78674D01*
X96618Y78557D01*
X97504Y78674D01*
X98330Y79016D01*
X99038Y79560D01*
X99582Y80269D01*
X99924Y81094D01*
X100041Y81980D01*
X99924Y82866D01*
X99582Y83692D01*
X99038Y84401D01*
X98330Y84945D01*
X97504Y85287D01*
X96618Y85403D01*
X95732Y85287D01*
X94907Y84945D01*
X94840Y84894D01*
X92158Y87576D01*
X91898Y87750D01*
X91590Y87811D01*
X84982D01*
X50965Y121828D01*
X50704Y122002D01*
X50397Y122063D01*
X16331D01*
X15947Y122343D01*
Y124016D01*
D02*
G37*
G36*
X86618Y85403D02*
X85732Y85287D01*
X84907Y84945D01*
X84198Y84401D01*
X83654Y83692D01*
X83312Y82866D01*
X83195Y81980D01*
X83312Y81094D01*
X83654Y80269D01*
X84198Y79560D01*
X84907Y79016D01*
X85732Y78674D01*
X86618Y78557D01*
X87504Y78674D01*
X88330Y79016D01*
X89038Y79560D01*
X89583Y80269D01*
X89925Y81094D01*
X90041Y81980D01*
X89925Y82866D01*
X89583Y83692D01*
X89038Y84401D01*
X88330Y84945D01*
X87504Y85287D01*
X86618Y85403D01*
D02*
G37*
G36*
X155829Y85142D02*
X154858Y85014D01*
X153953Y84639D01*
X153175Y84043D01*
X152579Y83266D01*
X152204Y82361D01*
X152076Y81389D01*
X152204Y80418D01*
X152579Y79513D01*
X153175Y78736D01*
X153953Y78140D01*
X154858Y77765D01*
X155829Y77637D01*
X156800Y77765D01*
X157705Y78140D01*
X158482Y78736D01*
X159079Y79513D01*
X159454Y80418D01*
X159581Y81389D01*
X159454Y82361D01*
X159079Y83266D01*
X158482Y84043D01*
X157705Y84639D01*
X156800Y85014D01*
X155829Y85142D01*
D02*
G37*
G36*
X133467D02*
X132495Y85014D01*
X131590Y84639D01*
X130813Y84043D01*
X130217Y83266D01*
X129842Y82361D01*
X129714Y81389D01*
X129842Y80418D01*
X130217Y79513D01*
X130813Y78736D01*
X131590Y78140D01*
X132495Y77765D01*
X133467Y77637D01*
X134438Y77765D01*
X135343Y78140D01*
X136120Y78736D01*
X136717Y79513D01*
X137092Y80418D01*
X137219Y81389D01*
X137092Y82361D01*
X136717Y83266D01*
X136120Y84043D01*
X135343Y84639D01*
X134438Y85014D01*
X133467Y85142D01*
D02*
G37*
G36*
X144648Y79707D02*
X143677Y79579D01*
X142772Y79204D01*
X141994Y78608D01*
X141398Y77831D01*
X141023Y76926D01*
X140895Y75954D01*
X141023Y74983D01*
X141398Y74078D01*
X141994Y73301D01*
X142772Y72705D01*
X143677Y72330D01*
X144648Y72202D01*
X145619Y72330D01*
X146524Y72705D01*
X147301Y73301D01*
X147898Y74078D01*
X148273Y74983D01*
X148400Y75954D01*
X148273Y76926D01*
X147898Y77831D01*
X147301Y78608D01*
X146524Y79204D01*
X145619Y79579D01*
X144648Y79707D01*
D02*
G37*
G36*
X86618Y75403D02*
X85732Y75287D01*
X84907Y74945D01*
X84198Y74401D01*
X83654Y73692D01*
X83312Y72866D01*
X83195Y71980D01*
X83312Y71094D01*
X83654Y70269D01*
X84198Y69560D01*
X84907Y69016D01*
X85732Y68674D01*
X86618Y68557D01*
X87504Y68674D01*
X88330Y69016D01*
X89038Y69560D01*
X89583Y70269D01*
X89925Y71094D01*
X90041Y71980D01*
X89925Y72866D01*
X89583Y73692D01*
X89038Y74401D01*
X88330Y74945D01*
X87504Y75287D01*
X86618Y75403D01*
D02*
G37*
G36*
X155829Y74272D02*
X154858Y74144D01*
X153953Y73769D01*
X153175Y73173D01*
X152579Y72396D01*
X152204Y71491D01*
X152076Y70519D01*
X152204Y69548D01*
X152579Y68643D01*
X153175Y67866D01*
X153953Y67270D01*
X154858Y66895D01*
X155829Y66767D01*
X156800Y66895D01*
X157705Y67270D01*
X158482Y67866D01*
X159079Y68643D01*
X159454Y69548D01*
X159581Y70519D01*
X159454Y71491D01*
X159079Y72396D01*
X158482Y73173D01*
X157705Y73769D01*
X156800Y74144D01*
X155829Y74272D01*
D02*
G37*
G36*
X133467D02*
X132495Y74144D01*
X131590Y73769D01*
X130813Y73173D01*
X130217Y72396D01*
X129842Y71491D01*
X129714Y70519D01*
X129842Y69548D01*
X130217Y68643D01*
X130813Y67866D01*
X131590Y67270D01*
X132495Y66895D01*
X133467Y66767D01*
X134438Y66895D01*
X135343Y67270D01*
X136120Y67866D01*
X136717Y68643D01*
X137092Y69548D01*
X137219Y70519D01*
X137092Y71491D01*
X136717Y72396D01*
X136120Y73173D01*
X135343Y73769D01*
X134438Y74144D01*
X133467Y74272D01*
D02*
G37*
G36*
X15947Y117717D02*
X9451D01*
X2955D01*
Y116044D01*
X3545D01*
Y113879D01*
X2955D01*
Y112205D01*
X9451D01*
X15947D01*
Y113879D01*
X16331Y114158D01*
X52427D01*
X80697Y85888D01*
Y79134D01*
X80758Y78827D01*
X80932Y78566D01*
X83294Y76204D01*
X83555Y76030D01*
X83862Y75969D01*
X83862Y75969D01*
X91494D01*
X93705Y73758D01*
X93654Y73692D01*
X93312Y72866D01*
X93195Y71980D01*
X93312Y71094D01*
X93654Y70269D01*
X94198Y69560D01*
X94907Y69016D01*
X95732Y68674D01*
X96618Y68557D01*
X97504Y68674D01*
X98330Y69016D01*
X99038Y69560D01*
X99292Y69890D01*
X99792Y69720D01*
Y66516D01*
X99543Y66467D01*
X99152Y66206D01*
X98891Y65815D01*
X98800Y65354D01*
X98833Y65189D01*
X98379Y64907D01*
X98330Y64945D01*
X97504Y65287D01*
X96618Y65403D01*
X95732Y65287D01*
X94907Y64945D01*
X94840Y64894D01*
X92237Y67497D01*
X91976Y67671D01*
X91669Y67732D01*
X84588D01*
X79547Y72773D01*
Y85039D01*
X79547Y85039D01*
X79486Y85347D01*
X79312Y85607D01*
X55689Y109230D01*
X55429Y109404D01*
X55121Y109465D01*
X16331D01*
X15947Y109745D01*
Y111418D01*
X9451D01*
X2955D01*
Y109745D01*
X3545D01*
Y107186D01*
X3545D01*
Y106989D01*
X3545D01*
Y104430D01*
X2955D01*
Y102756D01*
X9451D01*
X15947D01*
Y104430D01*
X16331Y104709D01*
X54395D01*
X75185Y83919D01*
Y72047D01*
X75247Y71740D01*
X75420Y71479D01*
X80697Y66203D01*
Y59449D01*
X80758Y59142D01*
X80932Y58881D01*
X82507Y57306D01*
X82507Y57306D01*
X82768Y57132D01*
X83075Y57071D01*
X93028D01*
X93235Y56571D01*
X91168Y54505D01*
X90995Y54244D01*
X90933Y53937D01*
Y50097D01*
X90885Y50064D01*
X90624Y49673D01*
X90532Y49213D01*
X90624Y48752D01*
X90885Y48361D01*
X91196Y48153D01*
X91166Y47800D01*
X91113Y47653D01*
X85376D01*
X79547Y53482D01*
Y65748D01*
X79486Y66055D01*
X79312Y66316D01*
X74429Y71199D01*
Y83071D01*
X74368Y83378D01*
X74194Y83639D01*
X74194Y83639D01*
X58051Y99781D01*
X57791Y99955D01*
X57484Y100016D01*
X16331D01*
X15947Y100296D01*
Y101969D01*
X9451D01*
X2955D01*
Y100296D01*
X3545D01*
Y98040D01*
X3545Y97737D01*
X3545Y97237D01*
Y94981D01*
X2955D01*
Y93308D01*
X9451D01*
X15947D01*
Y94981D01*
X16331Y95261D01*
X56757D01*
X70461Y81557D01*
Y69685D01*
X70522Y69378D01*
X70696Y69117D01*
X75579Y64234D01*
Y44882D01*
X75640Y44575D01*
X75814Y44314D01*
X83688Y36440D01*
X83949Y36266D01*
X84256Y36205D01*
X91646D01*
X91953Y36266D01*
X92213Y36440D01*
X94588Y38814D01*
X94801Y38738D01*
X94803Y38735D01*
X94910Y38168D01*
X90150Y33408D01*
X89660Y33505D01*
X89583Y33692D01*
X89038Y34401D01*
X88330Y34945D01*
X87504Y35287D01*
X86618Y35403D01*
X85732Y35287D01*
X84907Y34945D01*
X84198Y34401D01*
X83654Y33692D01*
X83312Y32866D01*
X83195Y31980D01*
X83312Y31094D01*
X83654Y30269D01*
X84198Y29560D01*
X84907Y29016D01*
X85732Y28674D01*
X86618Y28557D01*
X87504Y28674D01*
X88330Y29016D01*
X89038Y29560D01*
X89583Y30269D01*
X89925Y31094D01*
X89938Y31193D01*
X90166Y31239D01*
X90426Y31413D01*
X96006Y36992D01*
X99788D01*
X99995Y36492D01*
X98396Y34894D01*
X98330Y34945D01*
X97504Y35287D01*
X96618Y35403D01*
X95732Y35287D01*
X94907Y34945D01*
X94198Y34401D01*
X93654Y33692D01*
X93312Y32866D01*
X93195Y31980D01*
X93312Y31094D01*
X93654Y30269D01*
X93705Y30202D01*
X91077Y27575D01*
X84588D01*
X74429Y37734D01*
Y63386D01*
X74368Y63693D01*
X74194Y63954D01*
X74194Y63954D01*
X69704Y68443D01*
Y80709D01*
X69704Y80709D01*
X69643Y81016D01*
X69469Y81276D01*
X60414Y90332D01*
X60153Y90506D01*
X59846Y90567D01*
X16331D01*
X15947Y90847D01*
Y92520D01*
X9451D01*
X2955D01*
Y90847D01*
X3545D01*
Y88591D01*
X3545Y88288D01*
X3545Y87788D01*
Y85441D01*
X3545Y85138D01*
X3545Y84638D01*
Y82292D01*
X3545Y81989D01*
X3545Y81489D01*
Y79233D01*
X2955D01*
Y77560D01*
X9451D01*
X15947D01*
Y79233D01*
X16331Y79513D01*
X51576D01*
X51579Y79512D01*
X51581Y79513D01*
X56364D01*
X61406Y74471D01*
Y63779D01*
X61433Y63642D01*
X60972Y63395D01*
X60256Y64112D01*
Y66535D01*
X60194Y66843D01*
X60021Y67103D01*
X60020Y67103D01*
X59071Y68053D01*
X59082Y68110D01*
X58991Y68571D01*
X58729Y68962D01*
X58339Y69223D01*
X57878Y69314D01*
X57820Y69303D01*
X52540Y74584D01*
X52279Y74758D01*
X51972Y74819D01*
X16331D01*
X15947Y75099D01*
Y76772D01*
X9451D01*
X2955D01*
Y75099D01*
X3545D01*
Y72540D01*
X15356D01*
Y73213D01*
X51639D01*
X56685Y68168D01*
X56674Y68110D01*
X56765Y67649D01*
X57026Y67259D01*
X57417Y66998D01*
X57878Y66906D01*
X57935Y66917D01*
X58650Y66203D01*
Y63779D01*
X58711Y63472D01*
X58885Y63212D01*
X62981Y59116D01*
Y24803D01*
X63042Y24496D01*
X63216Y24236D01*
X67950Y19501D01*
X67785Y18959D01*
X67783Y18958D01*
X67392Y18697D01*
X67273Y18519D01*
X64667D01*
X64635Y18568D01*
X64244Y18829D01*
X63784Y18921D01*
X63323Y18829D01*
X62932Y18568D01*
X62671Y18177D01*
X62579Y17717D01*
X62671Y17256D01*
X62932Y16865D01*
X63323Y16604D01*
X63784Y16512D01*
X64244Y16604D01*
X64635Y16865D01*
X64667Y16914D01*
X67513D01*
X67783Y16733D01*
X68243Y16642D01*
X68704Y16733D01*
X69095Y16994D01*
X69253Y17230D01*
X69513Y17243D01*
X69791Y17205D01*
X69791Y17205D01*
X70019Y16865D01*
X70409Y16604D01*
X70870Y16512D01*
X71331Y16604D01*
X71722Y16865D01*
X71983Y17256D01*
X72074Y17717D01*
X72049Y17845D01*
X72510Y18091D01*
X78570Y12031D01*
X78570Y12031D01*
X78831Y11857D01*
X79138Y11796D01*
X79138Y11796D01*
X98035D01*
X98343Y11857D01*
X98603Y12031D01*
X105389Y18816D01*
X105732Y18674D01*
X106618Y18557D01*
X107504Y18674D01*
X108330Y19016D01*
X109038Y19560D01*
X109582Y20269D01*
X109924Y21094D01*
X110041Y21980D01*
X109924Y22866D01*
X109582Y23692D01*
X109038Y24401D01*
X108330Y24945D01*
X107504Y25287D01*
X106618Y25403D01*
X105732Y25287D01*
X104907Y24945D01*
X104198Y24401D01*
X103654Y23692D01*
X103312Y22866D01*
X103195Y21980D01*
X103312Y21094D01*
X103654Y20269D01*
X104052Y19750D01*
X97703Y13401D01*
X79470D01*
X66948Y25923D01*
Y59842D01*
X66887Y60150D01*
X66713Y60410D01*
X66713Y60410D01*
X63011Y64112D01*
Y74803D01*
X63011Y74803D01*
X62950Y75110D01*
X62776Y75371D01*
X62776Y75371D01*
X57264Y80883D01*
X57003Y81057D01*
X56696Y81118D01*
X15710D01*
X15356Y81472D01*
Y81792D01*
X15356Y82309D01*
X15710Y82662D01*
X53151D01*
X53154Y82662D01*
X53156Y82662D01*
X56757D01*
X63768Y75652D01*
Y64961D01*
X63829Y64653D01*
X64003Y64393D01*
X67705Y60691D01*
Y26772D01*
X67766Y26464D01*
X67940Y26204D01*
X79751Y14393D01*
X79751Y14393D01*
X80012Y14219D01*
X80319Y14158D01*
X96461D01*
X96768Y14219D01*
X97028Y14393D01*
X101359Y18724D01*
X101533Y18984D01*
X101594Y19291D01*
X101594Y19291D01*
Y25258D01*
X102309Y25973D01*
X102366Y25961D01*
X102827Y26053D01*
X103218Y26314D01*
X103479Y26704D01*
X103570Y27165D01*
X103479Y27626D01*
X103218Y28017D01*
X102827Y28278D01*
X102366Y28370D01*
X101905Y28278D01*
X101515Y28017D01*
X101254Y27626D01*
X101162Y27165D01*
X101173Y27108D01*
X100224Y26158D01*
X100050Y25898D01*
X99989Y25591D01*
Y23961D01*
X99489Y23814D01*
X99038Y24401D01*
X98330Y24945D01*
X97504Y25287D01*
X96618Y25403D01*
X95732Y25287D01*
X94907Y24945D01*
X94198Y24401D01*
X93654Y23692D01*
X93312Y22866D01*
X93195Y21980D01*
X93312Y21094D01*
X93654Y20269D01*
X94198Y19560D01*
X94907Y19016D01*
X95732Y18674D01*
X96618Y18557D01*
X97504Y18674D01*
X98330Y19016D01*
X99038Y19560D01*
X99325Y19933D01*
X99849Y19795D01*
X99889Y19524D01*
X96128Y15764D01*
X90311D01*
X90189Y16263D01*
X90335Y16361D01*
X91517Y17542D01*
X91690Y17803D01*
X91752Y18110D01*
Y23290D01*
X94825Y26362D01*
X96758D01*
X96790Y26314D01*
X97181Y26053D01*
X97642Y25961D01*
X98103Y26053D01*
X98493Y26314D01*
X98754Y26704D01*
X98846Y27165D01*
X98754Y27626D01*
X98493Y28017D01*
X98103Y28278D01*
X97935Y28311D01*
X97884Y28831D01*
X98330Y29016D01*
X99038Y29560D01*
X99582Y30269D01*
X99924Y31094D01*
X100041Y31980D01*
X99924Y32866D01*
X99582Y33692D01*
X99532Y33758D01*
X101191Y35418D01*
X104580D01*
X104873Y34972D01*
X104871Y34918D01*
X104198Y34401D01*
X103654Y33692D01*
X103312Y32866D01*
X103195Y31980D01*
X103312Y31094D01*
X103654Y30269D01*
X104198Y29560D01*
X104907Y29016D01*
X105732Y28674D01*
X106618Y28557D01*
X107504Y28674D01*
X108330Y29016D01*
X109038Y29560D01*
X109582Y30269D01*
X109924Y31094D01*
X110041Y31980D01*
X109924Y32866D01*
X109582Y33692D01*
X109038Y34401D01*
X108365Y34918D01*
X108363Y34972D01*
X108656Y35418D01*
X110931D01*
X110963Y35369D01*
X111354Y35108D01*
X111815Y35016D01*
X112276Y35108D01*
X112666Y35369D01*
X112927Y35760D01*
X113019Y36220D01*
X112927Y36681D01*
X112666Y37072D01*
X112276Y37333D01*
X112001Y37388D01*
X111938Y37640D01*
X111948Y37908D01*
X112273Y38125D01*
X112534Y38515D01*
X112626Y38976D01*
X112534Y39437D01*
X112273Y39828D01*
X111882Y40089D01*
X111421Y40181D01*
X110960Y40089D01*
X110570Y39828D01*
X110309Y39437D01*
X110217Y38976D01*
X110218Y38969D01*
X109887Y38598D01*
X108565D01*
X108548Y38629D01*
X108437Y39098D01*
X109038Y39560D01*
X109582Y40269D01*
X109924Y41094D01*
X110041Y41980D01*
X109924Y42866D01*
X109582Y43692D01*
X109038Y44401D01*
X108330Y44945D01*
X107504Y45287D01*
X106618Y45403D01*
X105732Y45287D01*
X104907Y44945D01*
X104198Y44401D01*
X103654Y43692D01*
X103312Y42866D01*
X103195Y41980D01*
X103312Y41094D01*
X103654Y40269D01*
X104198Y39560D01*
X104799Y39098D01*
X104688Y38629D01*
X104671Y38598D01*
X98565D01*
X98548Y38629D01*
X98437Y39098D01*
X99038Y39560D01*
X99582Y40269D01*
X99924Y41094D01*
X100041Y41980D01*
X99924Y42866D01*
X99582Y43692D01*
X99038Y44401D01*
X98330Y44945D01*
X97504Y45287D01*
X96618Y45403D01*
X95732Y45287D01*
X94907Y44945D01*
X94198Y44401D01*
X93654Y43692D01*
X93312Y42866D01*
X93195Y41980D01*
X93312Y41094D01*
X93654Y40269D01*
X93705Y40202D01*
X91313Y37811D01*
X84588D01*
X77185Y45214D01*
Y64567D01*
X77124Y64874D01*
X76950Y65135D01*
X72067Y70018D01*
Y81890D01*
X72067Y81890D01*
X72005Y82197D01*
X71832Y82458D01*
X57658Y96631D01*
X57397Y96805D01*
X57090Y96866D01*
X15710D01*
X15356Y97220D01*
Y97540D01*
X15356Y98057D01*
X15710Y98410D01*
X57151D01*
X72823Y82738D01*
Y70866D01*
X72884Y70559D01*
X73058Y70298D01*
X77941Y65416D01*
Y53150D01*
X78002Y52842D01*
X78176Y52582D01*
X84476Y46283D01*
X84736Y46109D01*
X85043Y46048D01*
X85043Y46048D01*
X92917D01*
X93225Y46109D01*
X93485Y46283D01*
X95859Y48657D01*
X96618Y48557D01*
X97504Y48674D01*
X98330Y49016D01*
X99038Y49560D01*
X99582Y50269D01*
X99924Y51094D01*
X100041Y51980D01*
X99924Y52866D01*
X99582Y53692D01*
X99038Y54401D01*
X98330Y54945D01*
X98205Y54996D01*
X98304Y55496D01*
X99610D01*
X99918Y55558D01*
X100178Y55731D01*
X102934Y58487D01*
X102934Y58487D01*
X103108Y58748D01*
X103169Y59055D01*
X103169Y59055D01*
Y60097D01*
X103619Y60253D01*
X103669Y60249D01*
X104198Y59560D01*
X104907Y59016D01*
X105732Y58674D01*
X106618Y58557D01*
X107504Y58674D01*
X108330Y59016D01*
X109038Y59560D01*
X109582Y60269D01*
X109924Y61094D01*
X110041Y61980D01*
X109924Y62866D01*
X109582Y63692D01*
X109038Y64401D01*
X108330Y64945D01*
X107504Y65287D01*
X106618Y65403D01*
X105732Y65287D01*
X105704Y65275D01*
X105421Y65699D01*
X107186Y67464D01*
X107186Y67464D01*
X107360Y67724D01*
X107421Y68032D01*
Y68663D01*
X107504Y68674D01*
X108330Y69016D01*
X109038Y69560D01*
X109582Y70269D01*
X109924Y71094D01*
X110041Y71980D01*
X109924Y72866D01*
X109582Y73692D01*
X109038Y74401D01*
X108330Y74945D01*
X107504Y75287D01*
X106618Y75403D01*
X105895Y75308D01*
X105655Y75775D01*
X107186Y77306D01*
X107186Y77306D01*
X107360Y77567D01*
X107421Y77874D01*
Y78663D01*
X107504Y78674D01*
X108330Y79016D01*
X109038Y79560D01*
X109582Y80269D01*
X109924Y81094D01*
X110041Y81980D01*
X109924Y82866D01*
X109582Y83692D01*
X109038Y84401D01*
X108330Y84945D01*
X107504Y85287D01*
X106618Y85403D01*
X105732Y85287D01*
X104907Y84945D01*
X104198Y84401D01*
X103654Y83692D01*
X103312Y82866D01*
X103195Y81980D01*
X103312Y81094D01*
X103654Y80269D01*
X104198Y79560D01*
X104907Y79016D01*
X105732Y78674D01*
X105736Y78673D01*
X105786Y78177D01*
X102815Y75206D01*
X102354Y75453D01*
X102382Y75590D01*
X102382Y75591D01*
Y86608D01*
X104840Y89067D01*
X104907Y89016D01*
X105732Y88674D01*
X106618Y88557D01*
X107504Y88674D01*
X108330Y89016D01*
X109038Y89560D01*
X109582Y90269D01*
X109924Y91094D01*
X110041Y91980D01*
X109924Y92866D01*
X109582Y93692D01*
X109038Y94401D01*
X108330Y94945D01*
X107504Y95287D01*
X106618Y95403D01*
X105732Y95287D01*
X104907Y94945D01*
X104198Y94401D01*
X103654Y93692D01*
X103312Y92866D01*
X103195Y91980D01*
X103312Y91094D01*
X103654Y90269D01*
X103705Y90202D01*
X101011Y87509D01*
X100837Y87248D01*
X100776Y86941D01*
Y75923D01*
X100027Y75174D01*
X100027Y75174D01*
X99853Y74914D01*
X99792Y74606D01*
Y74241D01*
X99292Y74071D01*
X99038Y74401D01*
X98330Y74945D01*
X97504Y75287D01*
X96618Y75403D01*
X95732Y75287D01*
X94907Y74945D01*
X94840Y74894D01*
X92395Y77339D01*
X92134Y77513D01*
X91827Y77574D01*
X84195D01*
X82303Y79466D01*
Y86220D01*
X82303Y86221D01*
X82242Y86528D01*
X82068Y86788D01*
X53327Y115529D01*
X53066Y115703D01*
X52759Y115764D01*
X16331D01*
X15947Y116044D01*
Y117717D01*
D02*
G37*
G36*
X106618Y55403D02*
X105732Y55287D01*
X104907Y54945D01*
X104198Y54401D01*
X103654Y53692D01*
X103312Y52866D01*
X103195Y51980D01*
X103312Y51094D01*
X103654Y50269D01*
X104198Y49560D01*
X104907Y49016D01*
X105732Y48674D01*
X106618Y48557D01*
X107504Y48674D01*
X108330Y49016D01*
X109038Y49560D01*
X109582Y50269D01*
X109924Y51094D01*
X110041Y51980D01*
X109924Y52866D01*
X109582Y53692D01*
X109038Y54401D01*
X108330Y54945D01*
X107504Y55287D01*
X106618Y55403D01*
D02*
G37*
G36*
X86618D02*
X85732Y55287D01*
X84907Y54945D01*
X84198Y54401D01*
X83654Y53692D01*
X83312Y52866D01*
X83195Y51980D01*
X83312Y51094D01*
X83654Y50269D01*
X84198Y49560D01*
X84907Y49016D01*
X85732Y48674D01*
X86618Y48557D01*
X87504Y48674D01*
X88330Y49016D01*
X89038Y49560D01*
X89583Y50269D01*
X89925Y51094D01*
X90041Y51980D01*
X89925Y52866D01*
X89583Y53692D01*
X89038Y54401D01*
X88330Y54945D01*
X87504Y55287D01*
X86618Y55403D01*
D02*
G37*
G36*
Y45403D02*
X85732Y45287D01*
X84907Y44945D01*
X84198Y44401D01*
X83654Y43692D01*
X83312Y42866D01*
X83195Y41980D01*
X83312Y41094D01*
X83654Y40269D01*
X84198Y39560D01*
X84907Y39016D01*
X85732Y38674D01*
X86618Y38557D01*
X87504Y38674D01*
X88330Y39016D01*
X89038Y39560D01*
X89583Y40269D01*
X89925Y41094D01*
X90041Y41980D01*
X89925Y42866D01*
X89583Y43692D01*
X89038Y44401D01*
X88330Y44945D01*
X87504Y45287D01*
X86618Y45403D01*
D02*
G37*
G36*
X192803Y10924D02*
X175986D01*
Y3809D01*
X192803D01*
Y10924D01*
D02*
G37*
%LPD*%
G36*
X65737Y78801D02*
Y76528D01*
X65237Y76405D01*
X65139Y76552D01*
X57658Y84033D01*
X57397Y84207D01*
X57090Y84268D01*
X15710D01*
X15356Y84622D01*
Y84942D01*
X15356Y85458D01*
X15710Y85812D01*
X53544D01*
X53547Y85811D01*
X53550Y85812D01*
X58726D01*
X65737Y78801D01*
D02*
G37*
G36*
X77941Y84707D02*
Y72441D01*
X78002Y72134D01*
X78176Y71873D01*
X83688Y66361D01*
X83949Y66187D01*
X84256Y66126D01*
X91337D01*
X93705Y63758D01*
X93654Y63692D01*
X93312Y62866D01*
X93195Y61980D01*
X93312Y61094D01*
X93654Y60269D01*
X94198Y59560D01*
X94697Y59177D01*
X94527Y58677D01*
X88709D01*
X88539Y59177D01*
X89038Y59560D01*
X89583Y60269D01*
X89925Y61094D01*
X90041Y61980D01*
X89925Y62866D01*
X89583Y63692D01*
X89038Y64401D01*
X88330Y64945D01*
X87504Y65287D01*
X86618Y65403D01*
X85732Y65287D01*
X84907Y64945D01*
X84198Y64401D01*
X83654Y63692D01*
X83312Y62866D01*
X83195Y61980D01*
X83312Y61094D01*
X83654Y60269D01*
X84198Y59560D01*
X84697Y59177D01*
X84527Y58677D01*
X83407D01*
X82303Y59781D01*
Y66535D01*
X82303Y66535D01*
X82242Y66843D01*
X82068Y67103D01*
X82068Y67103D01*
X76791Y72380D01*
Y84252D01*
X76730Y84559D01*
X76556Y84820D01*
X76556Y84820D01*
X55295Y106080D01*
X55035Y106254D01*
X54728Y106315D01*
X15356D01*
Y106989D01*
X15356D01*
Y107186D01*
X15356D01*
Y107859D01*
X54789D01*
X77941Y84707D01*
D02*
G37*
G36*
X68099Y80376D02*
Y68110D01*
X68160Y67803D01*
X68334Y67542D01*
X72823Y63053D01*
Y37402D01*
X72884Y37094D01*
X73058Y36834D01*
X83688Y26204D01*
X83949Y26030D01*
X84256Y25969D01*
X91409D01*
X91464Y25980D01*
X91710Y25519D01*
X90381Y24190D01*
X90207Y23929D01*
X90146Y23622D01*
X89646Y23539D01*
X89583Y23692D01*
X89038Y24401D01*
X88330Y24945D01*
X87504Y25287D01*
X86618Y25403D01*
X85732Y25287D01*
X84907Y24945D01*
X84198Y24401D01*
X83654Y23692D01*
X83312Y22866D01*
X83195Y21980D01*
X83312Y21094D01*
X83654Y20269D01*
X84198Y19560D01*
X84907Y19016D01*
X85732Y18674D01*
X86618Y18557D01*
X87504Y18674D01*
X88330Y19016D01*
X89038Y19560D01*
X89583Y20269D01*
X89646Y20422D01*
X90146Y20323D01*
Y18443D01*
X89435Y17732D01*
X81833D01*
X71673Y27892D01*
Y62598D01*
X71673Y62598D01*
X71612Y62906D01*
X71438Y63166D01*
X67342Y67262D01*
Y79134D01*
X67342Y79134D01*
X67281Y79441D01*
X67107Y79702D01*
X67107Y79702D01*
X59626Y87182D01*
X59366Y87356D01*
X59058Y87418D01*
X15710D01*
X15356Y87771D01*
Y88091D01*
X15356Y88608D01*
X15710Y88961D01*
X59513D01*
X68099Y80376D01*
D02*
G37*
G36*
X65343Y59499D02*
Y25591D01*
X65404Y25283D01*
X65578Y25023D01*
X70900Y19700D01*
X70721Y19173D01*
X70569Y19153D01*
X64586Y25136D01*
Y59449D01*
X64586Y59449D01*
X64560Y59580D01*
X64975Y59795D01*
X65343Y59499D01*
D02*
G37*
G36*
X65972Y66361D02*
X70067Y62266D01*
Y27559D01*
X70128Y27252D01*
X70302Y26991D01*
X80779Y16515D01*
X80669Y16008D01*
X80639Y15969D01*
X80483Y15932D01*
X69311Y27104D01*
Y61024D01*
X69250Y61331D01*
X69076Y61591D01*
X69076Y61591D01*
X65374Y65293D01*
Y66385D01*
X65874Y66508D01*
X65972Y66361D01*
D02*
G37*
G36*
X192154Y10402D02*
X192232Y10373D01*
X192291Y10343D01*
X192301Y10323D01*
X192311D01*
X192341Y10284D01*
X192370Y10244D01*
X192400Y10146D01*
Y10097D01*
X192409Y10058D01*
Y10038D01*
Y10028D01*
Y4695D01*
Y4626D01*
X192390Y4557D01*
X192380Y4508D01*
X192360Y4468D01*
X192331Y4419D01*
X192311Y4400D01*
X192222Y4350D01*
X192134Y4321D01*
X192104D01*
X192075Y4311D01*
X190284D01*
X190166Y4321D01*
X190058D01*
X189959Y4331D01*
X189871Y4341D01*
X189812D01*
X189772Y4350D01*
X189762D01*
X189546Y4390D01*
X189448Y4419D01*
X189359Y4439D01*
X189290Y4459D01*
X189241Y4478D01*
X189202Y4488D01*
X189192D01*
X189005Y4567D01*
X188926Y4606D01*
X188847Y4646D01*
X188788Y4685D01*
X188749Y4715D01*
X188719Y4724D01*
X188710Y4734D01*
X188562Y4852D01*
X188493Y4911D01*
X188444Y4961D01*
X188395Y5010D01*
X188365Y5049D01*
X188346Y5069D01*
X188336Y5079D01*
X188227Y5236D01*
X188149Y5393D01*
X188129Y5452D01*
X188109Y5502D01*
X188090Y5541D01*
Y5551D01*
X188031Y5757D01*
X188011Y5856D01*
X188001Y5945D01*
X187991Y6023D01*
Y6082D01*
Y6131D01*
Y6141D01*
Y6250D01*
X188011Y6358D01*
X188021Y6446D01*
X188040Y6535D01*
X188060Y6594D01*
X188070Y6653D01*
X188090Y6683D01*
Y6692D01*
X188168Y6869D01*
X188218Y6948D01*
X188257Y7007D01*
X188296Y7066D01*
X188326Y7106D01*
X188346Y7125D01*
X188355Y7135D01*
X188483Y7263D01*
X188601Y7361D01*
X188651Y7391D01*
X188690Y7421D01*
X188719Y7430D01*
X188729Y7440D01*
X188897Y7519D01*
X188975Y7548D01*
X189054Y7568D01*
X189113Y7588D01*
X189162Y7598D01*
X189202Y7607D01*
X189211D01*
X189064Y7666D01*
X188956Y7726D01*
X188906Y7755D01*
X188877Y7775D01*
X188857Y7794D01*
X188847D01*
X188739Y7893D01*
X188651Y7981D01*
X188621Y8021D01*
X188601Y8050D01*
X188582Y8070D01*
Y8080D01*
X188513Y8208D01*
X188454Y8326D01*
X188434Y8375D01*
X188424Y8414D01*
X188414Y8434D01*
Y8444D01*
X188375Y8591D01*
X188365Y8729D01*
X188355Y8788D01*
Y8828D01*
Y8857D01*
Y8867D01*
X188365Y9005D01*
X188375Y9143D01*
X188405Y9251D01*
X188424Y9359D01*
X188454Y9438D01*
X188483Y9497D01*
X188493Y9536D01*
X188503Y9546D01*
X188562Y9654D01*
X188621Y9743D01*
X188690Y9831D01*
X188759Y9900D01*
X188818Y9949D01*
X188867Y9999D01*
X188897Y10018D01*
X188906Y10028D01*
X189015Y10097D01*
X189123Y10156D01*
X189231Y10205D01*
X189339Y10254D01*
X189428Y10284D01*
X189497Y10304D01*
X189546Y10323D01*
X189566D01*
X189713Y10353D01*
X189871Y10382D01*
X190028Y10402D01*
X190186Y10412D01*
X190313Y10422D01*
X192045D01*
X192154Y10402D01*
D02*
G37*
G36*
X180936Y10412D02*
X180946Y10402D01*
X180956Y10392D01*
X180975Y10363D01*
X180995Y10333D01*
X181005Y10313D01*
X181015Y10304D01*
X181025Y10254D01*
X181034Y10205D01*
X181044Y10166D01*
Y10146D01*
X181054Y10067D01*
Y9989D01*
Y9930D01*
Y9920D01*
Y9910D01*
Y9812D01*
X181044Y9743D01*
Y9693D01*
Y9674D01*
X181034Y9605D01*
X181025Y9556D01*
X181015Y9526D01*
Y9516D01*
X180995Y9477D01*
X180975Y9448D01*
X180956Y9438D01*
Y9428D01*
X180906Y9408D01*
X179342D01*
Y4478D01*
X179332Y4449D01*
X179322Y4419D01*
X179312Y4400D01*
Y4390D01*
X179283Y4360D01*
X179253Y4350D01*
X179224Y4331D01*
X179214D01*
X179155Y4321D01*
X179096Y4311D01*
X179047Y4301D01*
X179027D01*
X178929Y4291D01*
X178830Y4281D01*
X178604D01*
X178506Y4291D01*
X178446Y4301D01*
X178427D01*
X178338Y4311D01*
X178279Y4321D01*
X178240Y4331D01*
X178230D01*
X178181Y4350D01*
X178151Y4370D01*
X178141Y4380D01*
X178132Y4390D01*
X178112Y4419D01*
X178092Y4449D01*
Y4468D01*
Y4478D01*
Y9408D01*
X176567D01*
X176518Y9418D01*
X176498Y9428D01*
X176469Y9457D01*
X176449Y9487D01*
X176439Y9506D01*
Y9516D01*
X176419Y9566D01*
X176410Y9615D01*
X176400Y9654D01*
Y9674D01*
X176390Y9753D01*
X176380Y9831D01*
Y9890D01*
Y9900D01*
Y9910D01*
Y10008D01*
X176390Y10077D01*
X176400Y10126D01*
Y10146D01*
X176410Y10215D01*
X176419Y10264D01*
X176429Y10294D01*
X176439Y10304D01*
X176459Y10343D01*
X176479Y10373D01*
X176488Y10382D01*
X176498Y10392D01*
X176518Y10412D01*
X176547Y10422D01*
X180906D01*
X180936Y10412D01*
D02*
G37*
G36*
X184597Y10520D02*
X184833Y10491D01*
X185059Y10461D01*
X185246Y10422D01*
X185394Y10373D01*
X185462Y10353D01*
X185512Y10343D01*
X185551Y10323D01*
X185581Y10313D01*
X185600Y10304D01*
X185610D01*
X185807Y10215D01*
X185984Y10107D01*
X186141Y9999D01*
X186279Y9900D01*
X186387Y9812D01*
X186466Y9733D01*
X186515Y9684D01*
X186535Y9664D01*
X186663Y9506D01*
X186781Y9329D01*
X186879Y9162D01*
X186958Y9005D01*
X187017Y8867D01*
X187057Y8759D01*
X187076Y8719D01*
X187086Y8690D01*
X187096Y8670D01*
Y8660D01*
X187155Y8434D01*
X187204Y8198D01*
X187234Y7981D01*
X187263Y7775D01*
X187273Y7588D01*
Y7509D01*
X187283Y7450D01*
Y7391D01*
Y7352D01*
Y7332D01*
Y7322D01*
X187273Y7027D01*
X187253Y6761D01*
X187224Y6525D01*
X187194Y6318D01*
X187175Y6230D01*
X187165Y6151D01*
X187145Y6082D01*
X187135Y6033D01*
X187125Y5984D01*
X187116Y5954D01*
X187106Y5935D01*
Y5925D01*
X187027Y5718D01*
X186948Y5521D01*
X186860Y5354D01*
X186771Y5216D01*
X186692Y5108D01*
X186633Y5020D01*
X186594Y4970D01*
X186574Y4951D01*
X186437Y4813D01*
X186289Y4705D01*
X186141Y4606D01*
X185994Y4518D01*
X185876Y4459D01*
X185777Y4419D01*
X185738Y4400D01*
X185708Y4390D01*
X185699Y4380D01*
X185689D01*
X185482Y4321D01*
X185266Y4281D01*
X185059Y4242D01*
X184872Y4222D01*
X184705Y4213D01*
X184626D01*
X184567Y4203D01*
X184449D01*
X184183Y4213D01*
X183947Y4232D01*
X183731Y4272D01*
X183544Y4311D01*
X183396Y4350D01*
X183327Y4370D01*
X183278Y4390D01*
X183239Y4400D01*
X183209Y4409D01*
X183189Y4419D01*
X183179D01*
X182983Y4508D01*
X182806Y4606D01*
X182648Y4715D01*
X182510Y4813D01*
X182402Y4911D01*
X182324Y4980D01*
X182274Y5029D01*
X182255Y5049D01*
X182127Y5216D01*
X182009Y5384D01*
X181910Y5561D01*
X181831Y5718D01*
X181772Y5856D01*
X181733Y5974D01*
X181713Y6013D01*
X181703Y6043D01*
X181694Y6063D01*
Y6072D01*
X181625Y6299D01*
X181576Y6535D01*
X181546Y6771D01*
X181517Y6978D01*
X181507Y7155D01*
Y7233D01*
X181497Y7302D01*
Y7361D01*
Y7401D01*
Y7421D01*
Y7430D01*
X181507Y7716D01*
X181526Y7981D01*
X181556Y8218D01*
X181585Y8414D01*
X181605Y8503D01*
X181625Y8582D01*
X181644Y8651D01*
X181654Y8709D01*
X181664Y8749D01*
X181674Y8778D01*
X181684Y8798D01*
Y8808D01*
X181753Y9014D01*
X181841Y9201D01*
X181930Y9369D01*
X182018Y9506D01*
X182097Y9625D01*
X182166Y9703D01*
X182205Y9753D01*
X182225Y9772D01*
X182363Y9910D01*
X182510Y10028D01*
X182658Y10126D01*
X182796Y10205D01*
X182924Y10264D01*
X183022Y10304D01*
X183061Y10323D01*
X183091Y10333D01*
X183101Y10343D01*
X183111D01*
X183317Y10402D01*
X183524Y10451D01*
X183731Y10481D01*
X183917Y10510D01*
X184085Y10520D01*
X184154D01*
X184213Y10530D01*
X184331D01*
X184597Y10520D01*
D02*
G37*
%LPC*%
G36*
X191189Y9487D02*
X190471D01*
X190382Y9477D01*
X190304Y9467D01*
X190235Y9457D01*
X190186Y9448D01*
X190146Y9438D01*
X190127Y9428D01*
X190117D01*
X189999Y9388D01*
X189910Y9339D01*
X189851Y9300D01*
X189831Y9280D01*
X189753Y9201D01*
X189694Y9123D01*
X189664Y9064D01*
X189654Y9044D01*
Y9034D01*
X189615Y8926D01*
X189605Y8818D01*
X189595Y8778D01*
Y8739D01*
Y8719D01*
Y8709D01*
X189605Y8591D01*
X189625Y8493D01*
X189635Y8454D01*
X189644Y8424D01*
X189654Y8405D01*
Y8395D01*
X189703Y8286D01*
X189753Y8208D01*
X189792Y8149D01*
X189802Y8139D01*
X189812Y8129D01*
X189900Y8060D01*
X189989Y8001D01*
X190018Y7991D01*
X190048Y7971D01*
X190068Y7962D01*
X190077D01*
X190136Y7942D01*
X190205Y7932D01*
X190343Y7913D01*
X190412Y7903D01*
X191189D01*
Y9487D01*
D02*
G37*
G36*
Y6997D02*
X190343D01*
X190235Y6988D01*
X190146Y6978D01*
X190068Y6968D01*
X189999Y6948D01*
X189959Y6938D01*
X189930Y6928D01*
X189920D01*
X189772Y6879D01*
X189713Y6850D01*
X189664Y6820D01*
X189625Y6791D01*
X189585Y6771D01*
X189576Y6761D01*
X189566Y6751D01*
X189477Y6663D01*
X189408Y6574D01*
X189389Y6535D01*
X189369Y6505D01*
X189359Y6486D01*
Y6476D01*
X189310Y6348D01*
X189290Y6220D01*
X189280Y6171D01*
Y6131D01*
Y6102D01*
Y6092D01*
X189290Y5945D01*
X189320Y5836D01*
X189330Y5787D01*
X189349Y5757D01*
X189359Y5738D01*
Y5728D01*
X189418Y5620D01*
X189487Y5541D01*
X189546Y5482D01*
X189556Y5472D01*
X189566Y5462D01*
X189664Y5393D01*
X189762Y5344D01*
X189812Y5325D01*
X189841Y5315D01*
X189861Y5305D01*
X189871D01*
X190008Y5275D01*
X190146Y5266D01*
X190215Y5256D01*
X191189D01*
Y6997D01*
D02*
G37*
G36*
X184459Y9506D02*
X184380D01*
X184213Y9497D01*
X184075Y9487D01*
X183937Y9457D01*
X183829Y9428D01*
X183740Y9398D01*
X183681Y9379D01*
X183632Y9359D01*
X183622Y9349D01*
X183514Y9290D01*
X183416Y9211D01*
X183337Y9143D01*
X183268Y9074D01*
X183209Y9005D01*
X183170Y8956D01*
X183150Y8916D01*
X183140Y8906D01*
X183071Y8798D01*
X183022Y8690D01*
X182973Y8572D01*
X182933Y8473D01*
X182914Y8375D01*
X182894Y8306D01*
X182875Y8257D01*
Y8237D01*
X182825Y7932D01*
X182816Y7784D01*
X182806Y7657D01*
X182796Y7538D01*
Y7440D01*
Y7381D01*
Y7371D01*
Y7361D01*
Y7204D01*
X182806Y7046D01*
X182816Y6909D01*
X182835Y6791D01*
X182845Y6683D01*
X182865Y6604D01*
X182875Y6555D01*
Y6535D01*
X182904Y6397D01*
X182953Y6269D01*
X182993Y6151D01*
X183042Y6053D01*
X183081Y5974D01*
X183121Y5905D01*
X183140Y5866D01*
X183150Y5856D01*
X183229Y5748D01*
X183307Y5659D01*
X183386Y5580D01*
X183465Y5511D01*
X183534Y5462D01*
X183593Y5423D01*
X183632Y5403D01*
X183642Y5393D01*
X183760Y5334D01*
X183888Y5295D01*
X184016Y5266D01*
X184144Y5246D01*
X184242Y5236D01*
X184331Y5226D01*
X184409D01*
X184577Y5236D01*
X184724Y5246D01*
X184852Y5275D01*
X184970Y5305D01*
X185059Y5325D01*
X185118Y5354D01*
X185167Y5364D01*
X185177Y5374D01*
X185285Y5433D01*
X185374Y5502D01*
X185462Y5570D01*
X185531Y5639D01*
X185581Y5698D01*
X185630Y5748D01*
X185649Y5787D01*
X185659Y5797D01*
X185718Y5905D01*
X185777Y6023D01*
X185817Y6141D01*
X185856Y6240D01*
X185876Y6338D01*
X185895Y6407D01*
X185915Y6456D01*
Y6476D01*
X185954Y6791D01*
X185964Y6938D01*
X185974Y7076D01*
X185984Y7204D01*
Y7293D01*
Y7332D01*
Y7361D01*
Y7371D01*
Y7381D01*
Y7538D01*
X185974Y7696D01*
X185964Y7834D01*
X185945Y7952D01*
X185935Y8050D01*
X185925Y8129D01*
X185915Y8178D01*
Y8198D01*
X185886Y8336D01*
X185836Y8463D01*
X185797Y8582D01*
X185748Y8680D01*
X185708Y8759D01*
X185679Y8818D01*
X185659Y8857D01*
X185649Y8867D01*
X185571Y8965D01*
X185492Y9064D01*
X185403Y9143D01*
X185325Y9201D01*
X185256Y9261D01*
X185197Y9300D01*
X185157Y9320D01*
X185148Y9329D01*
X185029Y9388D01*
X184901Y9428D01*
X184774Y9467D01*
X184646Y9487D01*
X184537Y9497D01*
X184459Y9506D01*
D02*
G37*
%LPD*%
D12*
X9451Y74016D02*
D03*
Y77166D02*
D03*
Y80316D02*
D03*
Y83465D02*
D03*
Y86615D02*
D03*
Y89764D02*
D03*
Y92914D02*
D03*
Y96064D02*
D03*
Y99213D02*
D03*
Y102363D02*
D03*
Y105512D02*
D03*
Y108662D02*
D03*
Y111812D02*
D03*
Y114961D02*
D03*
Y118111D02*
D03*
Y121260D02*
D03*
Y124410D02*
D03*
Y127560D02*
D03*
Y130709D02*
D03*
Y133859D02*
D03*
Y137008D02*
D03*
Y140158D02*
D03*
Y143308D02*
D03*
Y159056D02*
D03*
Y162205D02*
D03*
Y165355D02*
D03*
Y168505D02*
D03*
Y171654D02*
D03*
Y174804D02*
D03*
Y177953D02*
D03*
Y181103D02*
D03*
Y184253D02*
D03*
Y187402D02*
D03*
Y190552D02*
D03*
Y193701D02*
D03*
Y196851D02*
D03*
Y200001D02*
D03*
Y203150D02*
D03*
Y206300D02*
D03*
Y209449D02*
D03*
Y212599D02*
D03*
Y215749D02*
D03*
Y218898D02*
D03*
Y222048D02*
D03*
Y225197D02*
D03*
Y228347D02*
D03*
Y231497D02*
D03*
Y234646D02*
D03*
Y237796D02*
D03*
Y240945D02*
D03*
D13*
X57878Y68110D02*
X57878D01*
X51972Y74016D02*
X57878Y68110D01*
X9451Y74016D02*
X51972D01*
X51578Y80316D02*
X51579Y80315D01*
X9451Y80316D02*
X51578D01*
X53153Y83465D02*
X53154Y83465D01*
X9451Y83465D02*
X53153D01*
X53547Y86615D02*
X53547Y86614D01*
X9451Y86615D02*
X53547D01*
X91409Y26772D02*
X96618Y31980D01*
X84256Y26772D02*
X91409D01*
X73626Y37402D02*
X84256Y26772D01*
X73626Y37402D02*
Y63386D01*
X68902Y68110D02*
X73626Y63386D01*
X68902Y68110D02*
Y80709D01*
X59846Y89764D02*
X68902Y80709D01*
X9451Y89764D02*
X59846D01*
X91646Y37008D02*
X96618Y41980D01*
X84256Y37008D02*
X91646D01*
X76382Y44882D02*
X84256Y37008D01*
X76382Y44882D02*
Y64567D01*
X71264Y69685D02*
X76382Y64567D01*
X71264Y69685D02*
Y81890D01*
X57090Y96064D02*
X71264Y81890D01*
X9451Y96064D02*
X57090D01*
X78744Y53150D02*
Y65748D01*
X73626Y70866D02*
X78744Y65748D01*
X73626Y70866D02*
Y83071D01*
X57484Y99213D02*
X73626Y83071D01*
X9451Y99213D02*
X57484D01*
X81500Y59449D02*
Y66535D01*
X75988Y72047D02*
X81500Y66535D01*
X75988Y72047D02*
Y84252D01*
X54728Y105512D02*
X75988Y84252D01*
X9451Y105512D02*
X54728D01*
X91669Y66929D02*
X96618Y61980D01*
X84256Y66929D02*
X91669D01*
X78744Y72441D02*
X84256Y66929D01*
X78744Y72441D02*
Y85039D01*
X55121Y108662D02*
X78744Y85039D01*
X9451Y108662D02*
X55121D01*
X81500Y79134D02*
X83862Y76772D01*
X81500Y79134D02*
Y86221D01*
X52759Y114961D02*
X81500Y86221D01*
X9451Y114961D02*
X52759D01*
X91590Y87008D02*
X96618Y81980D01*
X84650Y87008D02*
X91590D01*
X50397Y121260D02*
X84650Y87008D01*
X9451Y121260D02*
X50397D01*
X91748Y96850D02*
X96618Y91980D01*
X81500Y96850D02*
X91748D01*
X50791Y127560D02*
X81500Y96850D01*
X9451Y127560D02*
X50791D01*
X91905Y106693D02*
X96618Y101980D01*
X81894Y106693D02*
X91905D01*
X54728Y133859D02*
X81894Y106693D01*
X9451Y133859D02*
X54728D01*
X89701Y118898D02*
X96618Y111980D01*
X79532Y118898D02*
X89701D01*
X58271Y140158D02*
X79532Y118898D01*
X9451Y140158D02*
X58271D01*
X21657Y159056D02*
X21657Y159055D01*
X9451Y159056D02*
X21657D01*
X21657Y165355D02*
X21657Y165354D01*
X9451Y165355D02*
X21657D01*
Y171654D02*
X21657Y171653D01*
X9451Y171654D02*
X21657D01*
X21657Y177953D02*
X21657Y177953D01*
X9451Y177953D02*
X21657D01*
X19689Y184253D02*
X21657Y182283D01*
X9451Y184253D02*
X19689D01*
X19295Y190552D02*
X21657Y188189D01*
X9451Y190552D02*
X19295D01*
Y196851D02*
X21657Y194488D01*
X9451Y196851D02*
X19295D01*
Y203150D02*
X21657Y200787D01*
X9451Y203150D02*
X19295D01*
X18901Y209449D02*
X21657Y206693D01*
X9451Y209449D02*
X18901D01*
X18507Y215749D02*
X21657Y212598D01*
X9451Y215749D02*
X18507D01*
X53547Y86615D02*
X59058D01*
X66539Y79134D01*
Y66929D02*
Y79134D01*
Y66929D02*
X70870Y62598D01*
X53153Y83465D02*
X57090D01*
X64571Y75984D01*
Y64961D02*
Y75984D01*
Y64961D02*
X68508Y61024D01*
Y26772D02*
Y61024D01*
X51578Y80316D02*
X56696D01*
X62209Y74803D01*
Y63779D02*
Y74803D01*
X57878Y68110D02*
X59453Y66535D01*
X70870Y27559D02*
Y62598D01*
Y27559D02*
X81500Y16929D01*
X89768D01*
X90949Y18110D01*
Y23622D01*
X94492Y27165D01*
X68508Y26772D02*
X80319Y14961D01*
X96461D01*
X100791Y19291D01*
X79138Y12598D02*
X98035D01*
X106618Y21181D01*
Y21980D01*
X62209Y63779D02*
X66146Y59842D01*
Y25591D02*
Y59842D01*
Y25591D02*
X79138Y12598D01*
X63784Y24803D02*
X70870Y17717D01*
X63784D02*
X68114D01*
X68243Y17846D01*
X101579Y86941D02*
X106618Y91980D01*
X81500Y59449D02*
X83075Y57874D01*
X98823D01*
X96618Y50551D02*
Y51980D01*
X78744Y53150D02*
X85043Y46850D01*
X92917D01*
X96618Y50551D01*
X91736Y49213D02*
Y53937D01*
X94098Y56299D01*
X98823Y57874D02*
X100791Y59842D01*
X94098Y56299D02*
X99610D01*
X102366Y59055D01*
Y73622D02*
X106618Y77874D01*
Y81980D01*
X100594Y74606D02*
X101579Y75590D01*
Y86941D01*
X100594Y65945D02*
Y74606D01*
X106618Y68032D02*
Y71980D01*
X100791Y59842D02*
Y63915D01*
X102366Y65489D01*
Y73622D01*
Y59055D02*
Y63779D01*
X106618Y68032D01*
X83862Y76772D02*
X91827D01*
X96618Y71980D01*
X100004Y65354D02*
X100594Y65945D01*
X94492Y27165D02*
X97642D01*
X100791Y19291D02*
Y25591D01*
X102366Y27165D01*
X86618Y31980D02*
X89858D01*
X95673Y37795D01*
X96618Y31980D02*
X100858Y36220D01*
X111815D01*
X95673Y37795D02*
X110240D01*
X111421Y38976D01*
X59453Y63779D02*
Y66535D01*
Y63779D02*
X63784Y59449D01*
Y24803D02*
Y59449D01*
D15*
X29137Y222048D02*
X32681Y218504D01*
X9451Y222048D02*
X29137D01*
X31107Y228347D02*
X35831Y233071D01*
X9451Y228347D02*
X31107D01*
X27171Y234646D02*
X31107Y238583D01*
X9451Y234646D02*
X27171D01*
X31106Y238583D02*
X31107D01*
D16*
X155829Y70519D02*
D03*
Y81389D02*
D03*
Y92260D02*
D03*
Y103130D02*
D03*
Y114000D02*
D03*
Y124870D02*
D03*
Y135740D02*
D03*
Y146610D02*
D03*
Y157480D02*
D03*
Y168350D02*
D03*
Y179220D02*
D03*
Y190090D02*
D03*
Y200960D02*
D03*
Y211830D02*
D03*
Y222701D02*
D03*
Y233571D02*
D03*
Y244441D02*
D03*
X144648Y75954D02*
D03*
Y86825D02*
D03*
Y97695D02*
D03*
Y108565D02*
D03*
Y119435D02*
D03*
Y130305D02*
D03*
Y141175D02*
D03*
Y152045D02*
D03*
Y162915D02*
D03*
Y173785D02*
D03*
Y184655D02*
D03*
Y195525D02*
D03*
Y206395D02*
D03*
Y217265D02*
D03*
Y228135D02*
D03*
Y239006D02*
D03*
X133467Y70519D02*
D03*
Y81389D02*
D03*
Y92260D02*
D03*
Y103130D02*
D03*
Y114000D02*
D03*
Y233571D02*
D03*
Y222701D02*
D03*
Y211830D02*
D03*
Y200960D02*
D03*
Y190090D02*
D03*
Y179220D02*
D03*
Y168350D02*
D03*
Y157480D02*
D03*
Y146610D02*
D03*
Y135740D02*
D03*
Y124870D02*
D03*
D17*
X144648Y277775D02*
D03*
Y37185D02*
D03*
D18*
X133467Y244441D02*
D03*
D19*
X96618Y242480D02*
D03*
X86618D02*
D03*
X96618Y252480D02*
D03*
X86618D02*
D03*
X96618Y262480D02*
D03*
X86618D02*
D03*
X96618Y272480D02*
D03*
X86618D02*
D03*
X96618Y282480D02*
D03*
X86618D02*
D03*
X96618Y292480D02*
D03*
X106618Y21980D02*
D03*
X96618D02*
D03*
X86618D02*
D03*
X106618Y31980D02*
D03*
X96618D02*
D03*
X86618D02*
D03*
X106618Y41980D02*
D03*
X96618D02*
D03*
X86618D02*
D03*
X106618Y51980D02*
D03*
X96618D02*
D03*
X86618D02*
D03*
X106618Y61980D02*
D03*
X96618D02*
D03*
X86618D02*
D03*
X106618Y71980D02*
D03*
X96618D02*
D03*
X86618D02*
D03*
X106618Y81980D02*
D03*
X96618D02*
D03*
X86618D02*
D03*
X106618Y91980D02*
D03*
X96618D02*
D03*
X86618D02*
D03*
X106618Y101980D02*
D03*
X96618D02*
D03*
X86618D02*
D03*
X106618Y111980D02*
D03*
X96618D02*
D03*
X106618Y132480D02*
D03*
X96618D02*
D03*
X86618D02*
D03*
X106618Y142480D02*
D03*
X96618D02*
D03*
X86618D02*
D03*
X106618Y152480D02*
D03*
X96618D02*
D03*
X86618D02*
D03*
X106618Y162480D02*
D03*
X96618D02*
D03*
X86618D02*
D03*
X106618Y172480D02*
D03*
X96618D02*
D03*
X86618D02*
D03*
X106618Y182480D02*
D03*
X96618D02*
D03*
X86618D02*
D03*
X106618Y192480D02*
D03*
X96618D02*
D03*
X86618D02*
D03*
X106618Y202480D02*
D03*
X96618D02*
D03*
X86618D02*
D03*
X106618Y212480D02*
D03*
X96618D02*
D03*
X86618D02*
D03*
X106618Y222480D02*
D03*
X96618D02*
D03*
D20*
X86618Y292480D02*
D03*
Y111980D02*
D03*
Y222480D02*
D03*
D21*
X57878Y68110D02*
D03*
X21657Y159055D02*
D03*
Y165354D02*
D03*
Y171653D02*
D03*
Y177953D02*
D03*
Y182283D02*
D03*
Y188189D02*
D03*
Y194488D02*
D03*
Y200787D02*
D03*
Y206693D02*
D03*
Y212598D02*
D03*
X70870Y17717D02*
D03*
X68243Y17846D02*
D03*
X63784Y17717D02*
D03*
X91736Y49213D02*
D03*
X100004Y65354D02*
D03*
X97642Y27165D02*
D03*
X102366D02*
D03*
X111421Y38976D02*
D03*
X111815Y36220D02*
D03*
D22*
X32681Y218504D02*
D03*
X35831Y233071D02*
D03*
X31106Y238583D02*
D03*
M02*
