G04 Layer_Physical_Order=1*
G04 Layer_Color=255*
%FSLAX25Y25*%
%MOIN*%
G70*
G01*
G75*
%ADD10R,0.06614X0.12362*%
%ADD11R,0.03937X0.03543*%
%ADD12R,0.11024X0.02165*%
%ADD13C,0.00787*%
%ADD14C,0.03937*%
%ADD15C,0.01969*%
%ADD16C,0.06654*%
%ADD17C,0.18740*%
%ADD18R,0.06654X0.06654*%
%ADD19C,0.06000*%
%ADD20R,0.06000X0.06000*%
%ADD21C,0.01575*%
%ADD22C,0.03937*%
G36*
X196850Y314961D02*
Y-0D01*
X58427D01*
Y60138D01*
X34569D01*
X34183Y60119D01*
X33426Y59969D01*
X32713Y59673D01*
X32071Y59245D01*
X31525Y58699D01*
X31097Y58057D01*
X30801Y57344D01*
X30651Y56587D01*
X30632Y56201D01*
Y53526D01*
X30392Y52947D01*
X29949Y52504D01*
X29370Y52264D01*
X23625D01*
Y66044D01*
X23606Y66430D01*
X23455Y67187D01*
X23160Y67900D01*
X22731Y68541D01*
X22185Y69087D01*
X21543Y69516D01*
X20830Y69811D01*
X20073Y69962D01*
X19688Y69981D01*
X2D01*
Y146457D01*
X20474D01*
Y146457D01*
X21091Y146498D01*
X22282Y146817D01*
X23350Y147433D01*
X24223Y148306D01*
X24839Y149374D01*
X25158Y150565D01*
Y151798D01*
X24839Y152990D01*
X24223Y154058D01*
X23350Y154930D01*
X22282Y155546D01*
X21091Y155866D01*
X20474Y155906D01*
X2D01*
Y244981D01*
X19688D01*
X20073Y245000D01*
X20830Y245150D01*
X21543Y245446D01*
X22185Y245875D01*
X22731Y246420D01*
X23160Y247062D01*
X23455Y247775D01*
X23606Y248532D01*
X23625Y248918D01*
Y262697D01*
X29370D01*
X29949Y262458D01*
X30392Y262015D01*
X30632Y261436D01*
Y258760D01*
X30651Y258375D01*
X30801Y257617D01*
X31097Y256905D01*
X31525Y256263D01*
X32071Y255717D01*
X32713Y255288D01*
X33426Y254993D01*
X34183Y254842D01*
X34569Y254823D01*
X58427D01*
Y314961D01*
X196850Y314961D01*
D02*
G37*
%LPC*%
G36*
X96618Y295903D02*
X95732Y295787D01*
X94907Y295445D01*
X94198Y294901D01*
X94188Y294889D01*
X90012D01*
Y295874D01*
X83224D01*
Y294889D01*
X76736D01*
X75814Y294706D01*
X75033Y294183D01*
X63261Y282412D01*
X62739Y281630D01*
X62556Y280709D01*
Y249490D01*
X58244D01*
Y236341D01*
X65646D01*
Y243210D01*
X66668Y244232D01*
X67190Y245013D01*
X67373Y245935D01*
Y279711D01*
X77734Y290072D01*
X83224D01*
Y289087D01*
X90012D01*
Y290072D01*
X94188D01*
X94198Y290060D01*
X94907Y289516D01*
X95732Y289174D01*
X96618Y289057D01*
X97504Y289174D01*
X98330Y289516D01*
X99038Y290060D01*
X99057Y290061D01*
X116493Y272624D01*
Y261024D01*
X116676Y260102D01*
X117199Y259321D01*
X129746Y246773D01*
Y241300D01*
X129246Y241093D01*
X111861Y258478D01*
Y265354D01*
X111678Y266276D01*
X111156Y267057D01*
X104030Y274183D01*
X103249Y274706D01*
X102327Y274889D01*
X99048D01*
X99038Y274901D01*
X98330Y275445D01*
X97504Y275787D01*
X96618Y275903D01*
X95732Y275787D01*
X94907Y275445D01*
X94198Y274901D01*
X94188Y274889D01*
X89048D01*
X89038Y274901D01*
X88330Y275445D01*
X87504Y275787D01*
X86618Y275903D01*
X85732Y275787D01*
X84907Y275445D01*
X84198Y274901D01*
X84188Y274889D01*
X79177D01*
X78255Y274706D01*
X77474Y274183D01*
X69954Y266664D01*
X69432Y265882D01*
X69249Y264961D01*
Y234856D01*
X66108Y231715D01*
X65646Y231906D01*
Y234529D01*
X58244D01*
Y221380D01*
X65646D01*
Y225938D01*
X66146D01*
X67067Y226121D01*
X67849Y226643D01*
X73361Y232155D01*
X73883Y232937D01*
X74066Y233858D01*
Y263963D01*
X80175Y270072D01*
X84188D01*
X84198Y270060D01*
X84907Y269516D01*
X85732Y269174D01*
X86618Y269057D01*
X87504Y269174D01*
X88330Y269516D01*
X89038Y270060D01*
X89048Y270072D01*
X94188D01*
X94198Y270060D01*
X94907Y269516D01*
X95732Y269174D01*
X96618Y269057D01*
X97504Y269174D01*
X98330Y269516D01*
X99038Y270060D01*
X99048Y270072D01*
X101329D01*
X107044Y264357D01*
Y257480D01*
X107228Y256559D01*
X107750Y255777D01*
X129742Y233785D01*
X129714Y233571D01*
X129842Y232599D01*
X130217Y231694D01*
X130813Y230917D01*
X131590Y230321D01*
X132495Y229946D01*
X133467Y229818D01*
X134438Y229946D01*
X135343Y230321D01*
X136120Y230917D01*
X136717Y231694D01*
X136912Y232166D01*
X141997D01*
X142167Y231666D01*
X141573Y231210D01*
X140882Y230310D01*
X140448Y229261D01*
X140351Y228529D01*
X144648D01*
X148944D01*
X148848Y229261D01*
X148414Y230310D01*
X147722Y231210D01*
X147129Y231666D01*
X147299Y232166D01*
X152384D01*
X152579Y231694D01*
X153175Y230917D01*
X153953Y230321D01*
X154858Y229946D01*
X155829Y229818D01*
X156800Y229946D01*
X157705Y230321D01*
X158482Y230917D01*
X159079Y231694D01*
X159454Y232599D01*
X159581Y233571D01*
X159454Y234542D01*
X159079Y235447D01*
X158482Y236224D01*
X157705Y236820D01*
X156800Y237195D01*
X155829Y237323D01*
X154858Y237195D01*
X153953Y236820D01*
X153175Y236224D01*
X152579Y235447D01*
X152384Y234976D01*
X147299D01*
X147129Y235475D01*
X147722Y235931D01*
X148414Y236831D01*
X148848Y237880D01*
X148944Y238612D01*
X144648D01*
X140351D01*
X140448Y237880D01*
X140882Y236831D01*
X141573Y235931D01*
X142167Y235475D01*
X141997Y234976D01*
X136912D01*
X136717Y235447D01*
X136120Y236224D01*
X135343Y236820D01*
X134438Y237195D01*
X133467Y237323D01*
X133069Y237271D01*
X130119Y240220D01*
X130326Y240720D01*
X137187D01*
Y244048D01*
X152128D01*
X152204Y243469D01*
X152579Y242564D01*
X153175Y241787D01*
X153953Y241191D01*
X154858Y240816D01*
X155829Y240688D01*
X156800Y240816D01*
X157705Y241191D01*
X158482Y241787D01*
X159079Y242564D01*
X159454Y243469D01*
X159581Y244441D01*
X159454Y245412D01*
X159079Y246317D01*
X158482Y247094D01*
X157705Y247691D01*
X156800Y248065D01*
X155829Y248193D01*
X155523Y248153D01*
X155516Y248160D01*
X154735Y248682D01*
X153813Y248865D01*
X135483D01*
X134635Y248696D01*
X121310Y262021D01*
Y273622D01*
X121127Y274544D01*
X120605Y275325D01*
X101746Y294183D01*
X100965Y294706D01*
X100043Y294889D01*
X99048D01*
X99038Y294901D01*
X98330Y295445D01*
X97504Y295787D01*
X96618Y295903D01*
D02*
G37*
G36*
X97012Y286447D02*
Y282874D01*
X100585D01*
X100500Y283520D01*
X100098Y284490D01*
X99460Y285322D01*
X98627Y285961D01*
X97658Y286362D01*
X97012Y286447D01*
D02*
G37*
G36*
X87012D02*
Y282874D01*
X90585D01*
X90500Y283520D01*
X90098Y284490D01*
X89460Y285322D01*
X88627Y285961D01*
X87658Y286362D01*
X87012Y286447D01*
D02*
G37*
G36*
X96224D02*
X95578Y286362D01*
X94609Y285961D01*
X93777Y285322D01*
X93138Y284490D01*
X92736Y283520D01*
X92651Y282874D01*
X96224D01*
Y286447D01*
D02*
G37*
G36*
X86224D02*
X85578Y286362D01*
X84609Y285961D01*
X83776Y285322D01*
X83138Y284490D01*
X82736Y283520D01*
X82651Y282874D01*
X86224D01*
Y286447D01*
D02*
G37*
G36*
X100585Y282087D02*
X97012D01*
Y278514D01*
X97658Y278599D01*
X98627Y279000D01*
X99460Y279639D01*
X100098Y280471D01*
X100500Y281440D01*
X100585Y282087D01*
D02*
G37*
G36*
X90585D02*
X87012D01*
Y278514D01*
X87658Y278599D01*
X88627Y279000D01*
X89460Y279639D01*
X90098Y280471D01*
X90500Y281440D01*
X90585Y282087D01*
D02*
G37*
G36*
X96224D02*
X92651D01*
X92736Y281440D01*
X93138Y280471D01*
X93777Y279639D01*
X94609Y279000D01*
X95578Y278599D01*
X96224Y278514D01*
Y282087D01*
D02*
G37*
G36*
X86224D02*
X82651D01*
X82736Y281440D01*
X83138Y280471D01*
X83776Y279639D01*
X84609Y279000D01*
X85578Y278599D01*
X86224Y278514D01*
Y282087D01*
D02*
G37*
G36*
X97012Y266447D02*
Y262874D01*
X100585D01*
X100500Y263520D01*
X100098Y264490D01*
X99460Y265322D01*
X98627Y265961D01*
X97658Y266362D01*
X97012Y266447D01*
D02*
G37*
G36*
X87012D02*
Y262874D01*
X90585D01*
X90500Y263520D01*
X90098Y264490D01*
X89460Y265322D01*
X88627Y265961D01*
X87658Y266362D01*
X87012Y266447D01*
D02*
G37*
G36*
X96224D02*
X95578Y266362D01*
X94609Y265961D01*
X93777Y265322D01*
X93138Y264490D01*
X92736Y263520D01*
X92651Y262874D01*
X96224D01*
Y266447D01*
D02*
G37*
G36*
X86224D02*
X85578Y266362D01*
X84609Y265961D01*
X83776Y265322D01*
X83138Y264490D01*
X82736Y263520D01*
X82651Y262874D01*
X86224D01*
Y266447D01*
D02*
G37*
G36*
X100585Y262087D02*
X97012D01*
Y258513D01*
X97658Y258599D01*
X98627Y259000D01*
X99460Y259639D01*
X100098Y260471D01*
X100500Y261440D01*
X100585Y262087D01*
D02*
G37*
G36*
X90585D02*
X87012D01*
Y258513D01*
X87658Y258599D01*
X88627Y259000D01*
X89460Y259639D01*
X90098Y260471D01*
X90500Y261440D01*
X90585Y262087D01*
D02*
G37*
G36*
X96224D02*
X92651D01*
X92736Y261440D01*
X93138Y260471D01*
X93777Y259639D01*
X94609Y259000D01*
X95578Y258599D01*
X96224Y258513D01*
Y262087D01*
D02*
G37*
G36*
X86224D02*
X82651D01*
X82736Y261440D01*
X83138Y260471D01*
X83776Y259639D01*
X84609Y259000D01*
X85578Y258599D01*
X86224Y258513D01*
Y262087D01*
D02*
G37*
G36*
X96618Y255903D02*
X95732Y255787D01*
X94907Y255445D01*
X94198Y254901D01*
X94188Y254889D01*
X89048D01*
X89038Y254901D01*
X88330Y255445D01*
X87504Y255787D01*
X86618Y255903D01*
X85732Y255787D01*
X84907Y255445D01*
X84198Y254901D01*
X84188Y254889D01*
X83980D01*
X83059Y254706D01*
X82277Y254183D01*
X77041Y248947D01*
X76519Y248166D01*
X76336Y247244D01*
Y226982D01*
X66108Y216754D01*
X65646Y216945D01*
Y219569D01*
X58244D01*
Y206419D01*
X65646D01*
Y210585D01*
X65754D01*
X66675Y210769D01*
X67457Y211291D01*
X80447Y224281D01*
X80969Y225063D01*
X81153Y225984D01*
Y246247D01*
X84632Y249726D01*
X84907Y249516D01*
X85732Y249174D01*
X86618Y249057D01*
X87504Y249174D01*
X88330Y249516D01*
X89038Y250060D01*
X89048Y250072D01*
X94188D01*
X94198Y250060D01*
X94907Y249516D01*
X95732Y249174D01*
X96618Y249057D01*
X97504Y249174D01*
X98330Y249516D01*
X99038Y250060D01*
X99048Y250072D01*
X102689D01*
X129754Y223007D01*
X129714Y222701D01*
X129842Y221729D01*
X130217Y220824D01*
X130813Y220047D01*
X131590Y219451D01*
X132495Y219076D01*
X133467Y218948D01*
X134438Y219076D01*
X135343Y219451D01*
X136120Y220047D01*
X136717Y220824D01*
X136912Y221295D01*
X141997D01*
X142167Y220795D01*
X141573Y220340D01*
X140882Y219440D01*
X140448Y218391D01*
X140351Y217659D01*
X144648D01*
X148944D01*
X148848Y218391D01*
X148414Y219440D01*
X147722Y220340D01*
X147129Y220795D01*
X147299Y221295D01*
X152384D01*
X152579Y220824D01*
X153175Y220047D01*
X153953Y219451D01*
X154858Y219076D01*
X155829Y218948D01*
X156800Y219076D01*
X157705Y219451D01*
X158482Y220047D01*
X159079Y220824D01*
X159353Y221486D01*
X159901Y221626D01*
X159925Y221621D01*
X164949Y216597D01*
Y67655D01*
X159120Y61826D01*
X131106D01*
X130799Y61765D01*
X130539Y61591D01*
X130539Y61591D01*
X119515Y50568D01*
X119341Y50307D01*
X119280Y50000D01*
Y26711D01*
X103608Y11039D01*
X65691D01*
X61830Y14899D01*
Y59559D01*
X62330Y59767D01*
X62981Y59116D01*
Y18601D01*
X62932Y18568D01*
X62671Y18177D01*
X62579Y17717D01*
X62671Y17256D01*
X62932Y16865D01*
X63323Y16604D01*
X63784Y16512D01*
X64244Y16604D01*
X64635Y16865D01*
X64843Y17176D01*
X65196Y17146D01*
X65343Y17093D01*
Y16929D01*
X65404Y16622D01*
X65578Y16361D01*
X67153Y14787D01*
X67153Y14787D01*
X67413Y14613D01*
X67721Y14551D01*
X96854D01*
X97162Y14613D01*
X97422Y14787D01*
X101359Y18724D01*
X101359Y18724D01*
X101533Y18984D01*
X101594Y19291D01*
Y21715D01*
X102823Y22943D01*
X103290Y22704D01*
X103195Y21980D01*
X103312Y21094D01*
X103654Y20269D01*
X104198Y19560D01*
X104907Y19016D01*
X105732Y18674D01*
X106618Y18557D01*
X107504Y18674D01*
X108330Y19016D01*
X109038Y19560D01*
X109582Y20269D01*
X109924Y21094D01*
X110041Y21980D01*
X109924Y22866D01*
X109582Y23692D01*
X109531Y23758D01*
X117894Y32121D01*
X117894Y32121D01*
X118069Y32382D01*
X118130Y32689D01*
Y53998D01*
X128683Y64552D01*
X150664D01*
X150971Y64613D01*
X151232Y64787D01*
X153818Y67373D01*
X153953Y67270D01*
X154858Y66895D01*
X155829Y66767D01*
X156800Y66895D01*
X157705Y67270D01*
X158482Y67866D01*
X159079Y68643D01*
X159454Y69548D01*
X159581Y70519D01*
X159454Y71491D01*
X159079Y72396D01*
X158482Y73173D01*
X157705Y73769D01*
X156800Y74144D01*
X155829Y74272D01*
X154858Y74144D01*
X153953Y73769D01*
X153175Y73173D01*
X152579Y72396D01*
X152204Y71491D01*
X152076Y70519D01*
X152204Y69548D01*
X152579Y68643D01*
X152683Y68508D01*
X150331Y66157D01*
X128350D01*
X128350Y66157D01*
X128043Y66096D01*
X127783Y65922D01*
X127783Y65922D01*
X116759Y54898D01*
X116585Y54638D01*
X116524Y54331D01*
Y33022D01*
X108396Y24894D01*
X108330Y24945D01*
X107504Y25287D01*
X106618Y25403D01*
X105895Y25308D01*
X105655Y25776D01*
X107186Y27306D01*
X107186Y27306D01*
X107360Y27567D01*
X107421Y27874D01*
X107421Y27874D01*
Y28663D01*
X107504Y28674D01*
X108330Y29016D01*
X109038Y29560D01*
X109582Y30269D01*
X109924Y31094D01*
X110041Y31980D01*
X109924Y32866D01*
X109582Y33692D01*
X109038Y34401D01*
X108330Y34945D01*
X107504Y35287D01*
X106618Y35403D01*
X105732Y35287D01*
X104907Y34945D01*
X104198Y34401D01*
X103669Y33712D01*
X103619Y33707D01*
X103169Y33864D01*
Y37396D01*
X104840Y39067D01*
X104907Y39016D01*
X105732Y38674D01*
X106618Y38557D01*
X107504Y38674D01*
X108330Y39016D01*
X109038Y39560D01*
X109582Y40269D01*
X109924Y41094D01*
X110041Y41980D01*
X109924Y42866D01*
X109582Y43692D01*
X109038Y44401D01*
X108330Y44945D01*
X107504Y45287D01*
X106618Y45403D01*
X105732Y45287D01*
X104907Y44945D01*
X104198Y44401D01*
X103654Y43692D01*
X103312Y42866D01*
X103195Y41980D01*
X103312Y41094D01*
X103654Y40269D01*
X103705Y40202D01*
X102094Y38592D01*
X101594Y38799D01*
Y42581D01*
X105061Y46048D01*
X108272D01*
X108579Y46109D01*
X108839Y46283D01*
X111595Y49039D01*
X111595Y49039D01*
X111693Y49185D01*
X112193Y49063D01*
Y40884D01*
X111479Y40169D01*
X111421Y40181D01*
X110960Y40089D01*
X110570Y39828D01*
X110309Y39437D01*
X110217Y38976D01*
X110309Y38515D01*
X110570Y38125D01*
X110960Y37864D01*
X111235Y37809D01*
X111298Y37556D01*
X111288Y37289D01*
X110963Y37072D01*
X110702Y36681D01*
X110611Y36220D01*
X110702Y35760D01*
X110963Y35369D01*
X111354Y35108D01*
X111815Y35016D01*
X112276Y35108D01*
X112666Y35369D01*
X112927Y35760D01*
X113019Y36220D01*
X113008Y36278D01*
X115532Y38802D01*
X115706Y39063D01*
X115767Y39370D01*
Y55573D01*
X129430Y69236D01*
X130020Y69118D01*
X130217Y68643D01*
X130813Y67866D01*
X131590Y67270D01*
X132495Y66895D01*
X133467Y66767D01*
X134438Y66895D01*
X135343Y67270D01*
X136120Y67866D01*
X136717Y68643D01*
X137092Y69548D01*
X137219Y70519D01*
X137092Y71491D01*
X136717Y72396D01*
X136120Y73173D01*
X135694Y73500D01*
X135863Y74000D01*
X141458D01*
X141994Y73301D01*
X142772Y72705D01*
X143677Y72330D01*
X144648Y72202D01*
X145619Y72330D01*
X146524Y72705D01*
X147301Y73301D01*
X147898Y74078D01*
X148273Y74983D01*
X148400Y75954D01*
X148273Y76926D01*
X147898Y77831D01*
X147301Y78608D01*
X146524Y79204D01*
X145619Y79579D01*
X144648Y79707D01*
X143677Y79579D01*
X142772Y79204D01*
X141994Y78608D01*
X141398Y77831D01*
X141023Y76926D01*
X140895Y75954D01*
X140590Y75606D01*
X137295D01*
X137088Y76106D01*
X141569Y80587D01*
X152182D01*
X152204Y80418D01*
X152579Y79513D01*
X153175Y78736D01*
X153953Y78140D01*
X154858Y77765D01*
X155829Y77637D01*
X156800Y77765D01*
X157705Y78140D01*
X158482Y78736D01*
X159079Y79513D01*
X159454Y80418D01*
X159581Y81389D01*
X159454Y82361D01*
X159079Y83266D01*
X158482Y84043D01*
X157705Y84639D01*
X156800Y85014D01*
X155829Y85142D01*
X154858Y85014D01*
X153953Y84639D01*
X153175Y84043D01*
X152579Y83266D01*
X152204Y82361D01*
X152182Y82192D01*
X146037D01*
X145937Y82692D01*
X146822Y83059D01*
X147722Y83750D01*
X148414Y84650D01*
X148848Y85699D01*
X148944Y86431D01*
X144648D01*
X140351D01*
X140448Y85699D01*
X140882Y84650D01*
X141573Y83750D01*
X142474Y83059D01*
X143359Y82692D01*
X143259Y82192D01*
X141236D01*
X141236Y82192D01*
X140929Y82131D01*
X140668Y81957D01*
X140668Y81957D01*
X135892Y77181D01*
X133833D01*
X133800Y77681D01*
X134438Y77765D01*
X135343Y78140D01*
X136120Y78736D01*
X136717Y79513D01*
X137092Y80418D01*
X137219Y81389D01*
X137092Y82361D01*
X136717Y83266D01*
X136120Y84043D01*
X135343Y84639D01*
X134438Y85014D01*
X133467Y85142D01*
X132495Y85014D01*
X131590Y84639D01*
X130813Y84043D01*
X130217Y83266D01*
X129842Y82361D01*
X129714Y81389D01*
X129823Y80561D01*
X118175Y68913D01*
X109017D01*
X108847Y69413D01*
X109038Y69560D01*
X109582Y70269D01*
X109924Y71094D01*
X110041Y71980D01*
X109924Y72866D01*
X109582Y73692D01*
X109038Y74401D01*
X108330Y74945D01*
X108015Y75075D01*
X108114Y75575D01*
X112209D01*
X112516Y75636D01*
X112776Y75810D01*
X128423Y91457D01*
X129820D01*
X129842Y91288D01*
X130217Y90383D01*
X130813Y89606D01*
X131590Y89010D01*
X132495Y88635D01*
X133467Y88507D01*
X134438Y88635D01*
X135343Y89010D01*
X136120Y89606D01*
X136717Y90383D01*
X137092Y91288D01*
X137219Y92260D01*
X137092Y93231D01*
X136717Y94136D01*
X136120Y94913D01*
X135343Y95509D01*
X135251Y95548D01*
X135350Y96048D01*
X141303D01*
X141398Y95818D01*
X141994Y95041D01*
X142772Y94445D01*
X143677Y94070D01*
X144648Y93942D01*
X145619Y94070D01*
X146524Y94445D01*
X147301Y95041D01*
X147898Y95818D01*
X148273Y96723D01*
X148400Y97695D01*
X148273Y98666D01*
X147898Y99571D01*
X147301Y100348D01*
X146524Y100944D01*
X145619Y101319D01*
X144648Y101447D01*
X143677Y101319D01*
X142772Y100944D01*
X141994Y100348D01*
X141398Y99571D01*
X141023Y98666D01*
X140895Y97695D01*
X140859Y97653D01*
X138082D01*
X137875Y98153D01*
X142049Y102327D01*
X152182D01*
X152204Y102158D01*
X152579Y101253D01*
X153175Y100476D01*
X153953Y99880D01*
X154858Y99505D01*
X155829Y99377D01*
X156800Y99505D01*
X157705Y99880D01*
X158482Y100476D01*
X159079Y101253D01*
X159454Y102158D01*
X159581Y103130D01*
X159454Y104101D01*
X159079Y105006D01*
X158482Y105783D01*
X157705Y106379D01*
X156800Y106754D01*
X155829Y106882D01*
X154858Y106754D01*
X153953Y106379D01*
X153175Y105783D01*
X152579Y105006D01*
X152204Y104101D01*
X152182Y103932D01*
X141716D01*
X141409Y103871D01*
X141149Y103697D01*
X141148Y103697D01*
X136679Y99228D01*
X135076D01*
X134977Y99728D01*
X135343Y99880D01*
X136120Y100476D01*
X136717Y101253D01*
X137092Y102158D01*
X137219Y103130D01*
X137092Y104101D01*
X136717Y105006D01*
X136120Y105783D01*
X135343Y106379D01*
X134880Y106571D01*
X134980Y107071D01*
X141240D01*
X141398Y106688D01*
X141994Y105911D01*
X142772Y105315D01*
X143677Y104940D01*
X144648Y104812D01*
X145619Y104940D01*
X146524Y105315D01*
X147301Y105911D01*
X147898Y106688D01*
X148273Y107593D01*
X148400Y108565D01*
X148273Y109536D01*
X147898Y110441D01*
X147301Y111218D01*
X146524Y111814D01*
X145619Y112189D01*
X144648Y112317D01*
X143677Y112189D01*
X142772Y111814D01*
X141994Y111218D01*
X141398Y110441D01*
X141023Y109536D01*
X140910Y108677D01*
X138870D01*
X138663Y109177D01*
X142683Y113197D01*
X152182D01*
X152204Y113029D01*
X152579Y112123D01*
X153175Y111346D01*
X153953Y110750D01*
X154858Y110375D01*
X155829Y110247D01*
X156800Y110375D01*
X157705Y110750D01*
X158482Y111346D01*
X159079Y112123D01*
X159454Y113029D01*
X159581Y114000D01*
X159454Y114971D01*
X159079Y115876D01*
X158482Y116653D01*
X157705Y117250D01*
X156800Y117624D01*
X155829Y117752D01*
X154858Y117624D01*
X153953Y117250D01*
X153175Y116653D01*
X152579Y115876D01*
X152204Y114971D01*
X152182Y114803D01*
X142350D01*
X142350Y114803D01*
X142043Y114741D01*
X141782Y114567D01*
X141782Y114567D01*
X137467Y110252D01*
X135447D01*
X135343Y110750D01*
X136120Y111346D01*
X136717Y112123D01*
X137092Y113029D01*
X137219Y114000D01*
X137092Y114971D01*
X136717Y115876D01*
X136120Y116653D01*
X135343Y117250D01*
X134438Y117624D01*
X134547Y118095D01*
X141176D01*
X141398Y117558D01*
X141994Y116781D01*
X142772Y116185D01*
X143677Y115810D01*
X144648Y115682D01*
X145619Y115810D01*
X146524Y116185D01*
X147301Y116781D01*
X147898Y117558D01*
X148273Y118464D01*
X148400Y119435D01*
X148273Y120406D01*
X147898Y121311D01*
X147301Y122088D01*
X146524Y122685D01*
X145619Y123059D01*
X144648Y123187D01*
X143677Y123059D01*
X142772Y122685D01*
X141994Y122088D01*
X141398Y121311D01*
X141023Y120406D01*
X140930Y119701D01*
X138082D01*
X137875Y120201D01*
X141742Y124067D01*
X152182D01*
X152204Y123898D01*
X152579Y122994D01*
X153175Y122216D01*
X153953Y121620D01*
X154858Y121245D01*
X155829Y121117D01*
X156800Y121245D01*
X157705Y121620D01*
X158482Y122216D01*
X159079Y122994D01*
X159454Y123898D01*
X159581Y124870D01*
X159454Y125841D01*
X159079Y126746D01*
X158482Y127523D01*
X157705Y128120D01*
X156800Y128495D01*
X155829Y128622D01*
X154858Y128495D01*
X153953Y128120D01*
X153175Y127523D01*
X152579Y126746D01*
X152204Y125841D01*
X152182Y125673D01*
X146037D01*
X145937Y126173D01*
X146822Y126539D01*
X147722Y127230D01*
X148414Y128131D01*
X148848Y129179D01*
X148944Y129911D01*
X144648D01*
X140351D01*
X140448Y129179D01*
X140882Y128131D01*
X141573Y127230D01*
X142474Y126539D01*
X143359Y126173D01*
X143259Y125673D01*
X141409D01*
X141102Y125611D01*
X140841Y125437D01*
X140841Y125437D01*
X136679Y121275D01*
X135715D01*
X135546Y121775D01*
X136120Y122216D01*
X136717Y122994D01*
X137092Y123898D01*
X137219Y124870D01*
X137092Y125841D01*
X136717Y126746D01*
X136120Y127523D01*
X135343Y128120D01*
X134438Y128495D01*
X133467Y128622D01*
X132495Y128495D01*
X131590Y128120D01*
X130813Y127523D01*
X130217Y126746D01*
X129842Y125841D01*
X129820Y125673D01*
X102039D01*
X102039Y125673D01*
X101732Y125611D01*
X101471Y125437D01*
X90474Y114440D01*
X90012Y114631D01*
Y115374D01*
X84360D01*
X59008Y140726D01*
X58748Y140900D01*
X58440Y140961D01*
X16331D01*
X15947Y141241D01*
Y142914D01*
X9451D01*
X2955D01*
Y141241D01*
X3545D01*
Y139075D01*
X2955D01*
Y137402D01*
X9451D01*
X15947D01*
Y139075D01*
X16331Y139355D01*
X29529D01*
X29531Y139355D01*
X29534Y139355D01*
X58108D01*
X83224Y114239D01*
Y108587D01*
X90012D01*
Y111707D01*
X102372Y124067D01*
X129820D01*
X129842Y123898D01*
X130217Y122994D01*
X130813Y122216D01*
X131388Y121775D01*
X131218Y121275D01*
X105110D01*
X105110Y121275D01*
X104803Y121214D01*
X104543Y121040D01*
X104543Y121040D01*
X98396Y114894D01*
X98330Y114945D01*
X97504Y115287D01*
X96618Y115403D01*
X95732Y115287D01*
X94907Y114945D01*
X94198Y114401D01*
X93654Y113692D01*
X93312Y112866D01*
X93195Y111980D01*
X93312Y111094D01*
X93654Y110269D01*
X94198Y109560D01*
X94697Y109177D01*
X94527Y108677D01*
X92512D01*
X92205Y108616D01*
X91944Y108442D01*
X91944Y108442D01*
X88396Y104894D01*
X88330Y104945D01*
X87504Y105287D01*
X86618Y105403D01*
X85732Y105287D01*
X84907Y104945D01*
X84840Y104894D01*
X55307Y134426D01*
X55047Y134600D01*
X54740Y134662D01*
X16331D01*
X15947Y134941D01*
Y136615D01*
X9451D01*
X2955D01*
Y134941D01*
X3545D01*
Y132776D01*
X2955D01*
Y131103D01*
X9451D01*
X15947D01*
Y132776D01*
X16331Y133056D01*
X29529D01*
X29531Y133055D01*
X29534Y133056D01*
X54407D01*
X83705Y103758D01*
X83654Y103692D01*
X83312Y102866D01*
X83195Y101980D01*
X83312Y101094D01*
X83654Y100269D01*
X84198Y99560D01*
X84907Y99016D01*
X85732Y98674D01*
X86618Y98557D01*
X87504Y98674D01*
X88330Y99016D01*
X89038Y99560D01*
X89583Y100269D01*
X89925Y101094D01*
X90041Y101980D01*
X89925Y102866D01*
X89583Y103692D01*
X89531Y103758D01*
X92844Y107071D01*
X99866D01*
X100074Y106571D01*
X98396Y104894D01*
X98330Y104945D01*
X97504Y105287D01*
X96618Y105403D01*
X95732Y105287D01*
X94907Y104945D01*
X94198Y104401D01*
X93654Y103692D01*
X93312Y102866D01*
X93195Y101980D01*
X93312Y101094D01*
X93654Y100269D01*
X94198Y99560D01*
X94907Y99016D01*
X95088Y98941D01*
X94989Y98441D01*
X94492D01*
X94492Y98441D01*
X94185Y98379D01*
X93924Y98206D01*
X89776Y94057D01*
X89277Y94090D01*
X89038Y94401D01*
X88330Y94945D01*
X87504Y95287D01*
X86618Y95403D01*
X85732Y95287D01*
X84907Y94945D01*
X84840Y94894D01*
X51607Y128127D01*
X51346Y128301D01*
X51039Y128362D01*
X16331D01*
X15947Y128642D01*
Y130315D01*
X9451D01*
X2955D01*
Y128642D01*
X3545D01*
Y126477D01*
X2955D01*
Y124804D01*
X9451D01*
X15947D01*
Y126477D01*
X16331Y126757D01*
X29529D01*
X29531Y126756D01*
X29534Y126757D01*
X50706D01*
X83705Y93758D01*
X83654Y93692D01*
X83312Y92866D01*
X83195Y91980D01*
X83312Y91094D01*
X83654Y90269D01*
X83749Y90145D01*
X83372Y89814D01*
X51358Y121828D01*
X51098Y122002D01*
X50791Y122063D01*
X16331D01*
X15947Y122343D01*
Y124016D01*
X9451D01*
X2955D01*
Y122343D01*
X3545D01*
Y120178D01*
X2955D01*
Y118505D01*
X9451D01*
X15947D01*
Y120178D01*
X16331Y120457D01*
X29529D01*
X29531Y120457D01*
X29534Y120457D01*
X50458D01*
X85341Y85575D01*
X85244Y85084D01*
X84907Y84945D01*
X84198Y84401D01*
X83654Y83692D01*
X83312Y82866D01*
X83195Y81980D01*
X83312Y81094D01*
X83654Y80269D01*
X84198Y79560D01*
X84907Y79016D01*
X85732Y78674D01*
X86618Y78557D01*
X87504Y78674D01*
X88330Y79016D01*
X89038Y79560D01*
X89583Y80269D01*
X89925Y81094D01*
X90041Y81980D01*
X89925Y82866D01*
X89805Y83154D01*
X93644Y86992D01*
X102083D01*
X102290Y86492D01*
X99810Y84013D01*
X99311Y84045D01*
X99038Y84401D01*
X98330Y84945D01*
X97504Y85287D01*
X96618Y85403D01*
X95732Y85287D01*
X94907Y84945D01*
X94198Y84401D01*
X93654Y83692D01*
X93312Y82866D01*
X93195Y81980D01*
X93312Y81094D01*
X93654Y80269D01*
X94198Y79560D01*
X94594Y79256D01*
X94424Y78756D01*
X90949D01*
X90642Y78694D01*
X90381Y78521D01*
X90381Y78520D01*
X87189Y75328D01*
X86618Y75403D01*
X86395Y75374D01*
X82303Y79466D01*
Y86220D01*
X82303Y86221D01*
X82242Y86528D01*
X82068Y86788D01*
X53327Y115529D01*
X53066Y115703D01*
X52759Y115764D01*
X16331D01*
X15947Y116044D01*
Y117717D01*
X9451D01*
X2955D01*
Y116044D01*
X3545D01*
Y113879D01*
X2955D01*
Y112205D01*
X9451D01*
X15947D01*
Y113879D01*
X16331Y114158D01*
X29135D01*
X29138Y114158D01*
X29140Y114158D01*
X52427D01*
X80697Y85888D01*
Y79134D01*
X80758Y78827D01*
X80932Y78566D01*
X84439Y75060D01*
X84406Y74561D01*
X84198Y74401D01*
X83654Y73692D01*
X83312Y72866D01*
X83195Y71980D01*
X83312Y71094D01*
X83654Y70269D01*
X84198Y69560D01*
X84907Y69016D01*
X85732Y68674D01*
X86618Y68557D01*
X87504Y68674D01*
X88330Y69016D01*
X89038Y69560D01*
X89583Y70269D01*
X89925Y71094D01*
X90041Y71980D01*
X89925Y72866D01*
X89583Y73692D01*
X89038Y74401D01*
X89007Y74876D01*
X91281Y77150D01*
X99945D01*
X100152Y76650D01*
X98396Y74894D01*
X98330Y74945D01*
X97504Y75287D01*
X96618Y75403D01*
X95732Y75287D01*
X94907Y74945D01*
X94198Y74401D01*
X93654Y73692D01*
X93312Y72866D01*
X93195Y71980D01*
X93312Y71094D01*
X93654Y70269D01*
X94198Y69560D01*
X94633Y69226D01*
X94676Y68928D01*
X94642Y68608D01*
X89990Y63956D01*
X89338Y64011D01*
X89038Y64401D01*
X88330Y64945D01*
X87504Y65287D01*
X87332Y65309D01*
X87186Y65528D01*
X79547Y73167D01*
Y85039D01*
X79486Y85347D01*
X79312Y85607D01*
X79312Y85607D01*
X55689Y109230D01*
X55429Y109404D01*
X55121Y109465D01*
X16331D01*
X15947Y109745D01*
Y111418D01*
X9451D01*
X2955D01*
Y109745D01*
X3545D01*
Y107186D01*
X3545D01*
Y106989D01*
X3545D01*
Y104430D01*
X2955D01*
Y102756D01*
X9451D01*
X15947D01*
Y104430D01*
X16331Y104709D01*
X29529D01*
X29531Y104709D01*
X29534Y104709D01*
X54395D01*
X75185Y83919D01*
Y72047D01*
X75247Y71740D01*
X75420Y71480D01*
X80697Y66203D01*
Y59449D01*
X80758Y59142D01*
X80932Y58881D01*
X82507Y57306D01*
X82507Y57306D01*
X82768Y57132D01*
X83075Y57071D01*
X98823D01*
X99130Y57132D01*
X99391Y57306D01*
X101359Y59275D01*
X101533Y59535D01*
X101594Y59842D01*
X101594Y59843D01*
Y64173D01*
X101533Y64481D01*
X101359Y64741D01*
X101131Y64969D01*
X101208Y65354D01*
X101154Y65626D01*
X101464Y66126D01*
X120083D01*
X120221Y66154D01*
X120467Y65693D01*
X112428Y57654D01*
X112330Y57508D01*
X111830Y57630D01*
Y58661D01*
X111830Y58661D01*
X111769Y58969D01*
X111595Y59229D01*
X109868Y60957D01*
X109924Y61094D01*
X110041Y61980D01*
X109924Y62866D01*
X109582Y63692D01*
X109038Y64401D01*
X108330Y64945D01*
X107504Y65287D01*
X106618Y65403D01*
X105732Y65287D01*
X104907Y64945D01*
X104198Y64401D01*
X103654Y63692D01*
X103312Y62866D01*
X103195Y61980D01*
X103312Y61094D01*
X103654Y60269D01*
X104198Y59560D01*
X104907Y59016D01*
X105732Y58674D01*
X106618Y58557D01*
X107504Y58674D01*
X108330Y59016D01*
X109013Y59540D01*
X110225Y58329D01*
Y53448D01*
X109725Y53348D01*
X109582Y53692D01*
X109038Y54401D01*
X108330Y54945D01*
X107504Y55287D01*
X106618Y55403D01*
X105732Y55287D01*
X104907Y54945D01*
X104198Y54401D01*
X103654Y53692D01*
X103312Y52866D01*
X103195Y51980D01*
X103312Y51094D01*
X103654Y50269D01*
X103705Y50202D01*
X101246Y47744D01*
X94976D01*
X94669Y47683D01*
X94409Y47509D01*
X94409Y47509D01*
X92252Y45352D01*
X91752Y45559D01*
Y48011D01*
X92197Y48100D01*
X92588Y48361D01*
X92849Y48752D01*
X92940Y49213D01*
X92849Y49673D01*
X92588Y50064D01*
X92197Y50325D01*
X91736Y50417D01*
X91275Y50325D01*
X90885Y50064D01*
X90624Y49673D01*
X90532Y49213D01*
X90543Y49155D01*
X90381Y48993D01*
X90207Y48732D01*
X90146Y48425D01*
Y43638D01*
X89646Y43538D01*
X89583Y43692D01*
X89038Y44401D01*
X88330Y44945D01*
X87504Y45287D01*
X86618Y45403D01*
X85732Y45287D01*
X84907Y44945D01*
X84840Y44894D01*
X82696Y47037D01*
Y52362D01*
X82696Y52362D01*
X82635Y52669D01*
X82461Y52930D01*
X82461Y52930D01*
X77185Y58207D01*
Y64567D01*
X77124Y64874D01*
X76950Y65135D01*
X72067Y70018D01*
Y81890D01*
X72067Y81890D01*
X72005Y82197D01*
X71832Y82458D01*
X57658Y96631D01*
X57397Y96805D01*
X57090Y96866D01*
X15710D01*
X15356Y97220D01*
Y97540D01*
X15356Y98057D01*
X15710Y98410D01*
X57151D01*
X72823Y82738D01*
Y70866D01*
X72884Y70559D01*
X73058Y70298D01*
X77941Y65416D01*
Y59055D01*
X78002Y58748D01*
X78176Y58487D01*
X83454Y53210D01*
X83312Y52866D01*
X83195Y51980D01*
X83312Y51094D01*
X83654Y50269D01*
X84198Y49560D01*
X84907Y49016D01*
X85732Y48674D01*
X86618Y48557D01*
X87504Y48674D01*
X88330Y49016D01*
X89038Y49560D01*
X89583Y50269D01*
X89925Y51094D01*
X90041Y51980D01*
X89925Y52866D01*
X89583Y53692D01*
X89038Y54401D01*
X88330Y54945D01*
X87504Y55287D01*
X86618Y55403D01*
X85732Y55287D01*
X84907Y54945D01*
X84388Y54547D01*
X79547Y59388D01*
Y65748D01*
X79486Y66055D01*
X79312Y66316D01*
X74429Y71199D01*
Y83071D01*
X74429Y83071D01*
X74368Y83378D01*
X74194Y83639D01*
X58051Y99781D01*
X57791Y99955D01*
X57484Y100016D01*
X16331D01*
X15947Y100296D01*
Y101969D01*
X9451D01*
X2955D01*
Y100296D01*
X3545D01*
Y98040D01*
X3545Y97737D01*
X3545Y97237D01*
Y94981D01*
X2955D01*
Y93308D01*
X9451D01*
X15947D01*
Y94981D01*
X16331Y95261D01*
X29529D01*
X29531Y95260D01*
X29534Y95261D01*
X56757D01*
X70461Y81557D01*
Y69685D01*
X70522Y69378D01*
X70696Y69117D01*
X75579Y64234D01*
Y57874D01*
X75640Y57567D01*
X75814Y57306D01*
X81091Y52030D01*
Y46705D01*
X81152Y46398D01*
X81326Y46137D01*
X83705Y43758D01*
X83654Y43692D01*
X83312Y42866D01*
X83195Y41980D01*
X83312Y41094D01*
X83654Y40269D01*
X84198Y39560D01*
X84907Y39016D01*
X85732Y38674D01*
X86618Y38557D01*
X87504Y38674D01*
X88330Y39016D01*
X89038Y39560D01*
X89583Y40269D01*
X89646Y40422D01*
X90146Y40323D01*
Y33638D01*
X89646Y33538D01*
X89583Y33692D01*
X89038Y34401D01*
X88330Y34945D01*
X87504Y35287D01*
X86618Y35403D01*
X85732Y35287D01*
X84907Y34945D01*
X84840Y34894D01*
X79941Y39793D01*
Y51575D01*
X79941Y51575D01*
X79879Y51882D01*
X79706Y52143D01*
X79706Y52143D01*
X74429Y57419D01*
Y63386D01*
X74368Y63693D01*
X74194Y63954D01*
X74194Y63954D01*
X69704Y68443D01*
Y80709D01*
X69704Y80709D01*
X69643Y81016D01*
X69469Y81276D01*
X60414Y90332D01*
X60153Y90506D01*
X59846Y90567D01*
X16331D01*
X15947Y90847D01*
Y92520D01*
X9451D01*
X2955D01*
Y90847D01*
X3545D01*
Y88288D01*
X3545D01*
Y88091D01*
X3545D01*
Y85138D01*
X3545D01*
Y84941D01*
X3545D01*
Y82292D01*
X3545Y81989D01*
X3545Y81489D01*
Y79233D01*
X2955D01*
Y77560D01*
X9451D01*
X15947D01*
Y79233D01*
X16331Y79513D01*
X56364D01*
X61406Y74471D01*
Y63779D01*
X61432Y63648D01*
X61017Y63433D01*
X60649Y63730D01*
Y71653D01*
X60588Y71961D01*
X60414Y72221D01*
X60414Y72221D01*
X58051Y74584D01*
X57791Y74758D01*
X57484Y74819D01*
X56890D01*
Y75091D01*
X52165D01*
Y74819D01*
X50890D01*
Y75106D01*
X46165D01*
Y74819D01*
X45079D01*
Y75106D01*
X40354D01*
Y74819D01*
X16331D01*
X15947Y75099D01*
Y76772D01*
X9451D01*
X2955D01*
Y75099D01*
X3545D01*
Y72540D01*
X15356D01*
Y73213D01*
X40354D01*
Y70776D01*
X45079D01*
Y73213D01*
X46165D01*
Y70776D01*
X50890D01*
Y73213D01*
X52165D01*
Y70760D01*
X56890D01*
Y72768D01*
X57390Y72975D01*
X59044Y71321D01*
Y69323D01*
X58544Y69086D01*
X58339Y69223D01*
X57878Y69314D01*
X57417Y69223D01*
X57026Y68962D01*
X56979Y68902D01*
X56890Y68791D01*
X56890Y68791D01*
X52165D01*
Y64846D01*
X51665Y64639D01*
X50890Y65415D01*
Y68807D01*
X46169D01*
X46165Y68807D01*
X45669Y68817D01*
Y69398D01*
X43110D01*
Y66642D01*
Y63886D01*
X45669D01*
Y64467D01*
X46165Y64476D01*
X46169Y64476D01*
X49558D01*
X51609Y62424D01*
X51870Y62250D01*
X52177Y62189D01*
X57545D01*
X60225Y59510D01*
Y14567D01*
X60286Y14260D01*
X60460Y13999D01*
X64791Y9668D01*
X65051Y9494D01*
X65358Y9433D01*
X65358Y9433D01*
X103941D01*
X104248Y9494D01*
X104509Y9668D01*
X120650Y25810D01*
X120650Y25810D01*
X120824Y26071D01*
X120886Y26378D01*
Y49668D01*
X131439Y60221D01*
X159453D01*
X159760Y60282D01*
X160020Y60456D01*
X166320Y66755D01*
X166494Y67016D01*
X166555Y67323D01*
X166555Y67323D01*
Y216929D01*
X166555Y216929D01*
X166494Y217236D01*
X166320Y217497D01*
X166320Y217497D01*
X160548Y223268D01*
X160288Y223442D01*
X159981Y223503D01*
X159476D01*
X159454Y223672D01*
X159079Y224577D01*
X158482Y225354D01*
X157705Y225950D01*
X156800Y226325D01*
X155829Y226453D01*
X154858Y226325D01*
X153953Y225950D01*
X153175Y225354D01*
X152579Y224577D01*
X152384Y224105D01*
X147299D01*
X147129Y224605D01*
X147722Y225061D01*
X148414Y225961D01*
X148848Y227010D01*
X148944Y227742D01*
X144648D01*
X140351D01*
X140448Y227010D01*
X140882Y225961D01*
X141573Y225061D01*
X142167Y224605D01*
X141997Y224105D01*
X136912D01*
X136717Y224577D01*
X136120Y225354D01*
X135343Y225950D01*
X134438Y226325D01*
X133467Y226453D01*
X133161Y226413D01*
X105390Y254183D01*
X104609Y254706D01*
X103687Y254889D01*
X99048D01*
X99038Y254901D01*
X98330Y255445D01*
X97504Y255787D01*
X96618Y255903D01*
D02*
G37*
G36*
X97012Y246447D02*
Y242874D01*
X100585D01*
X100500Y243520D01*
X100098Y244490D01*
X99460Y245322D01*
X98627Y245961D01*
X97658Y246362D01*
X97012Y246447D01*
D02*
G37*
G36*
X87012D02*
Y242874D01*
X90585D01*
X90500Y243520D01*
X90098Y244490D01*
X89460Y245322D01*
X88627Y245961D01*
X87658Y246362D01*
X87012Y246447D01*
D02*
G37*
G36*
X96224D02*
X95578Y246362D01*
X94609Y245961D01*
X93777Y245322D01*
X93138Y244490D01*
X92736Y243520D01*
X92651Y242874D01*
X96224D01*
Y246447D01*
D02*
G37*
G36*
X86224D02*
X85578Y246362D01*
X84609Y245961D01*
X83776Y245322D01*
X83138Y244490D01*
X82736Y243520D01*
X82651Y242874D01*
X86224D01*
Y246447D01*
D02*
G37*
G36*
X15947Y243012D02*
X9844D01*
Y241339D01*
X15947D01*
Y243012D01*
D02*
G37*
G36*
X9057D02*
X2955D01*
Y241339D01*
X9057D01*
Y243012D01*
D02*
G37*
G36*
X145042Y243302D02*
Y239399D01*
X148944D01*
X148848Y240131D01*
X148414Y241180D01*
X147722Y242080D01*
X146822Y242771D01*
X145773Y243206D01*
X145042Y243302D01*
D02*
G37*
G36*
X144254D02*
X143523Y243206D01*
X142474Y242771D01*
X141573Y242080D01*
X140882Y241180D01*
X140448Y240131D01*
X140351Y239399D01*
X144254D01*
Y243302D01*
D02*
G37*
G36*
X100585Y242087D02*
X97012D01*
Y238513D01*
X97658Y238599D01*
X98627Y239000D01*
X99460Y239639D01*
X100098Y240471D01*
X100500Y241440D01*
X100585Y242087D01*
D02*
G37*
G36*
X90585D02*
X87012D01*
Y238513D01*
X87658Y238599D01*
X88627Y239000D01*
X89460Y239639D01*
X90098Y240471D01*
X90500Y241440D01*
X90585Y242087D01*
D02*
G37*
G36*
X96224D02*
X92651D01*
X92736Y241440D01*
X93138Y240471D01*
X93777Y239639D01*
X94609Y239000D01*
X95578Y238599D01*
X96224Y238513D01*
Y242087D01*
D02*
G37*
G36*
X86224D02*
X82651D01*
X82736Y241440D01*
X83138Y240471D01*
X83776Y239639D01*
X84609Y239000D01*
X85578Y238599D01*
X86224Y238513D01*
Y242087D01*
D02*
G37*
G36*
X46827Y249490D02*
X39425D01*
Y245894D01*
X29927D01*
X29156Y245792D01*
X28438Y245495D01*
X27821Y245021D01*
X20424Y237624D01*
X15947D01*
Y240552D01*
X9451D01*
X2955D01*
Y238878D01*
Y238190D01*
X9451D01*
Y237625D01*
X8680Y237523D01*
X8388Y237402D01*
X2955D01*
Y235729D01*
X3545D01*
Y233563D01*
X2955D01*
Y231890D01*
X8388D01*
X8680Y231769D01*
X9451Y231668D01*
Y231103D01*
X2955D01*
Y229430D01*
X3545D01*
Y227264D01*
X2955D01*
Y225591D01*
X9451D01*
X15947D01*
Y226942D01*
X39425D01*
Y221380D01*
X46827D01*
Y234529D01*
X39425D01*
Y234264D01*
X38925Y234117D01*
X38548Y234369D01*
X38010Y234476D01*
X37733D01*
X37534Y234774D01*
X36752Y235296D01*
X35831Y235479D01*
X34909Y235296D01*
X34128Y234774D01*
X33606Y233993D01*
X33422Y233071D01*
X33606Y232149D01*
X34128Y231368D01*
X34909Y230846D01*
X35831Y230662D01*
X36752Y230846D01*
X37534Y231368D01*
X37709Y231385D01*
X38880Y230214D01*
X38689Y229752D01*
X15947D01*
Y231668D01*
X21658D01*
X22429Y231769D01*
X23147Y232067D01*
X23764Y232540D01*
X28106Y236882D01*
X28743Y236812D01*
X29000Y236477D01*
X29617Y236003D01*
X30336Y235706D01*
X31106Y235604D01*
X31877Y235706D01*
X32595Y236003D01*
X33212Y236477D01*
X33521Y236786D01*
X39425D01*
Y236341D01*
X46827D01*
Y249490D01*
D02*
G37*
G36*
X15947Y224804D02*
X9451D01*
X2955D01*
Y223130D01*
X3545D01*
Y220965D01*
X2955D01*
Y219292D01*
X9451D01*
X15947D01*
Y220643D01*
X30799D01*
X30935Y220143D01*
X30456Y219426D01*
X30273Y218504D01*
X30456Y217582D01*
X30978Y216801D01*
X31759Y216279D01*
X32681Y216095D01*
X33033Y216165D01*
X37198Y212000D01*
X37654Y211696D01*
X38191Y211589D01*
X39425D01*
Y206419D01*
X46827D01*
Y219569D01*
X39425D01*
Y219335D01*
X38963Y219143D01*
X35065Y223041D01*
X34610Y223346D01*
X34072Y223453D01*
X15947D01*
Y224804D01*
D02*
G37*
G36*
X116163Y229937D02*
X93272D01*
X92964Y229876D01*
X92704Y229701D01*
X88876Y225874D01*
X83224D01*
Y221757D01*
X66207Y204740D01*
X37738D01*
X26162Y216316D01*
X25901Y216490D01*
X25594Y216551D01*
X16331D01*
X15947Y216831D01*
Y218505D01*
X9451D01*
X2955D01*
Y216831D01*
X3545D01*
Y214666D01*
X2955D01*
Y212993D01*
X9451D01*
X15947D01*
Y214666D01*
X16331Y214946D01*
X25261D01*
X26373Y213835D01*
X26126Y213374D01*
X25988Y213401D01*
X22542D01*
X22509Y213450D01*
X22118Y213711D01*
X21657Y213803D01*
X21197Y213711D01*
X20806Y213450D01*
X20545Y213059D01*
X20453Y212598D01*
X20545Y212138D01*
X20806Y211747D01*
X21197Y211486D01*
X21657Y211394D01*
X22118Y211486D01*
X22509Y211747D01*
X22542Y211796D01*
X25656D01*
X35897Y201554D01*
X35787Y201048D01*
X35757Y201008D01*
X35601Y200972D01*
X26555Y210017D01*
X26295Y210191D01*
X25988Y210252D01*
X16331D01*
X15947Y210532D01*
Y212205D01*
X9451D01*
X2955D01*
Y210532D01*
X3545D01*
Y208367D01*
X2955D01*
Y206693D01*
X9451D01*
X15947D01*
Y208367D01*
X16331Y208646D01*
X25655D01*
X34716Y199585D01*
X34606Y199079D01*
X34576Y199039D01*
X34420Y199003D01*
X26162Y207261D01*
X25902Y207435D01*
X25594Y207496D01*
X22542D01*
X22509Y207544D01*
X22118Y207805D01*
X21657Y207897D01*
X21197Y207805D01*
X20806Y207544D01*
X20545Y207154D01*
X20453Y206693D01*
X20545Y206232D01*
X20806Y205841D01*
X21197Y205580D01*
X21657Y205489D01*
X22118Y205580D01*
X22509Y205841D01*
X22542Y205890D01*
X25262D01*
X33535Y197617D01*
X33425Y197111D01*
X33395Y197071D01*
X33239Y197034D01*
X26555Y203718D01*
X26295Y203892D01*
X25988Y203953D01*
X16331D01*
X15947Y204233D01*
Y205906D01*
X9451D01*
X2955D01*
Y204233D01*
X3545D01*
Y202067D01*
X2955D01*
Y200394D01*
X9451D01*
X15947D01*
Y202067D01*
X16331Y202347D01*
X21035D01*
X21090Y202195D01*
X21118Y201847D01*
X20806Y201639D01*
X20545Y201248D01*
X20453Y200787D01*
X20545Y200327D01*
X20806Y199936D01*
X21197Y199675D01*
X21657Y199583D01*
X22118Y199675D01*
X22509Y199936D01*
X22542Y199985D01*
X24868D01*
X31173Y193680D01*
X31063Y193174D01*
X31033Y193134D01*
X30877Y193097D01*
X26555Y197419D01*
X26295Y197593D01*
X25988Y197654D01*
X16331D01*
X15947Y197934D01*
Y199607D01*
X9451D01*
X2955D01*
Y197934D01*
X3545D01*
Y195768D01*
X2955D01*
Y194095D01*
X9451D01*
X15947D01*
Y195768D01*
X16331Y196048D01*
X21035D01*
X21090Y195895D01*
X21118Y195548D01*
X20806Y195340D01*
X20545Y194949D01*
X20453Y194488D01*
X20545Y194027D01*
X20806Y193637D01*
X21197Y193376D01*
X21657Y193284D01*
X22118Y193376D01*
X22509Y193637D01*
X22542Y193685D01*
X24475D01*
X28417Y189743D01*
X28307Y189237D01*
X28277Y189197D01*
X28121Y189160D01*
X26162Y191119D01*
X25901Y191293D01*
X25594Y191355D01*
X16331D01*
X15947Y191634D01*
Y193308D01*
X9451D01*
X2955D01*
Y191634D01*
X3545D01*
Y189469D01*
X2955D01*
Y187796D01*
X9451D01*
X15947D01*
Y189469D01*
X16331Y189749D01*
X21035D01*
X21090Y189596D01*
X21118Y189249D01*
X20806Y189041D01*
X20545Y188650D01*
X20453Y188189D01*
X20545Y187728D01*
X20806Y187337D01*
X21197Y187076D01*
X21657Y186985D01*
X22118Y187076D01*
X22509Y187337D01*
X22542Y187386D01*
X24081D01*
X25814Y185653D01*
X25814Y185653D01*
X25960Y185555D01*
X25836Y185055D01*
X16331D01*
X15947Y185335D01*
Y187008D01*
X9451D01*
X2955D01*
Y185335D01*
X3545D01*
Y183170D01*
X2955D01*
Y181497D01*
X9451D01*
Y180709D01*
X2955D01*
Y179036D01*
X3545D01*
Y176871D01*
X2955D01*
Y175197D01*
X9451D01*
X15947D01*
Y176871D01*
X16331Y177150D01*
X16934D01*
X17241Y177212D01*
X17501Y177386D01*
X19628Y179512D01*
X21034D01*
X21087Y179365D01*
X21117Y179012D01*
X20806Y178804D01*
X20545Y178414D01*
X20453Y177953D01*
X20545Y177492D01*
X20806Y177101D01*
X21197Y176840D01*
X21657Y176749D01*
X22118Y176840D01*
X22509Y177101D01*
X22542Y177150D01*
X30774D01*
X45105Y162818D01*
X45366Y162644D01*
X45673Y162583D01*
X77624D01*
X82901Y157306D01*
X82901Y157306D01*
X83161Y157132D01*
X83469Y157071D01*
X83469Y157071D01*
X92012D01*
X92319Y157132D01*
X92580Y157306D01*
X94840Y159567D01*
X94907Y159516D01*
X95346Y159334D01*
X95422Y159086D01*
X95424Y158760D01*
X90338Y153674D01*
X89748Y153792D01*
X89583Y154192D01*
X89038Y154901D01*
X88330Y155445D01*
X87504Y155787D01*
X86618Y155903D01*
X85732Y155787D01*
X84907Y155445D01*
X84198Y154901D01*
X83750Y154317D01*
X83174Y154186D01*
X76950Y160410D01*
X76689Y160584D01*
X76382Y160645D01*
X44037D01*
X29312Y175371D01*
X29051Y175545D01*
X28744Y175606D01*
X19689D01*
X19382Y175545D01*
X19121Y175371D01*
X16418Y172668D01*
X15947Y172903D01*
Y174410D01*
X9451D01*
X2955D01*
Y172737D01*
X3545D01*
Y170571D01*
X2955D01*
Y168898D01*
X9451D01*
X15947D01*
Y170571D01*
X16331Y170851D01*
X16540D01*
X16847Y170912D01*
X17108Y171086D01*
X20021Y174000D01*
X28411D01*
X43137Y159275D01*
X43137Y159275D01*
X43398Y159101D01*
X43705Y159040D01*
X43705Y159040D01*
X76049D01*
X83176Y151913D01*
X83176Y151913D01*
X83279Y151844D01*
X83312Y151594D01*
X83654Y150769D01*
X84198Y150060D01*
X84907Y149516D01*
X85345Y149334D01*
X85246Y148834D01*
X84588D01*
X76162Y157261D01*
X75902Y157435D01*
X75595Y157496D01*
X42463D01*
X27737Y172221D01*
X27477Y172395D01*
X27169Y172456D01*
X22542D01*
X22509Y172505D01*
X22118Y172766D01*
X21657Y172858D01*
X21197Y172766D01*
X20806Y172505D01*
X20545Y172114D01*
X20453Y171653D01*
X20545Y171193D01*
X20806Y170802D01*
X21197Y170541D01*
X21657Y170449D01*
X22118Y170541D01*
X22509Y170802D01*
X22542Y170851D01*
X26837D01*
X41562Y156125D01*
X41823Y155951D01*
X42130Y155890D01*
X75262D01*
X83688Y147464D01*
X83688Y147464D01*
X83949Y147290D01*
X84256Y147229D01*
X84256Y147229D01*
X92169D01*
X92476Y147290D01*
X92737Y147464D01*
X94840Y149567D01*
X94907Y149516D01*
X95474Y149281D01*
X95612Y148714D01*
X95611Y148711D01*
X90388Y143488D01*
X90384Y143487D01*
X89821Y143616D01*
X89583Y144192D01*
X89038Y144901D01*
X88330Y145445D01*
X87504Y145787D01*
X86618Y145903D01*
X85732Y145787D01*
X84907Y145445D01*
X84198Y144901D01*
X84192Y144900D01*
X75375Y153717D01*
X75114Y153891D01*
X74807Y153952D01*
X41281D01*
X26162Y169072D01*
X25902Y169246D01*
X25594Y169307D01*
X19689D01*
X19382Y169246D01*
X19121Y169072D01*
X16418Y166368D01*
X15947Y166604D01*
Y168111D01*
X9451D01*
X2955D01*
Y166437D01*
X3545D01*
Y164272D01*
X2955D01*
Y162599D01*
X9451D01*
X15947D01*
Y164272D01*
X16331Y164552D01*
X16540D01*
X16847Y164613D01*
X17108Y164787D01*
X20021Y167701D01*
X25262D01*
X40381Y152582D01*
X40642Y152408D01*
X40949Y152347D01*
X74475D01*
X83354Y143468D01*
X83312Y143366D01*
X83195Y142480D01*
X83312Y141594D01*
X83654Y140769D01*
X84198Y140060D01*
X84907Y139516D01*
X84965Y139492D01*
X84865Y138992D01*
X84195D01*
X72619Y150568D01*
X72358Y150742D01*
X72051Y150803D01*
X40100D01*
X24981Y165922D01*
X24721Y166096D01*
X24413Y166157D01*
X22542D01*
X22509Y166206D01*
X22118Y166467D01*
X21657Y166559D01*
X21197Y166467D01*
X20806Y166206D01*
X20545Y165815D01*
X20453Y165354D01*
X20545Y164893D01*
X20806Y164503D01*
X21197Y164242D01*
X21657Y164150D01*
X22118Y164242D01*
X22509Y164503D01*
X22542Y164551D01*
X24081D01*
X39200Y149432D01*
X39461Y149258D01*
X39768Y149197D01*
X71719D01*
X83294Y137621D01*
X83294Y137621D01*
X83555Y137447D01*
X83862Y137386D01*
X92327D01*
X92634Y137447D01*
X92895Y137621D01*
X94840Y139567D01*
X94907Y139516D01*
X95418Y139304D01*
X95499Y138757D01*
X90361Y133619D01*
X89771Y133736D01*
X89583Y134192D01*
X89038Y134901D01*
X88330Y135445D01*
X87504Y135787D01*
X86618Y135903D01*
X85732Y135787D01*
X84907Y135445D01*
X84198Y134901D01*
X84152Y134842D01*
X83653Y134809D01*
X71044Y147418D01*
X70784Y147592D01*
X70476Y147653D01*
X38132D01*
X23013Y162772D01*
X22752Y162946D01*
X22445Y163007D01*
X19295D01*
X18988Y162946D01*
X18728Y162772D01*
X16447Y160492D01*
X15947Y160699D01*
Y161811D01*
X9451D01*
X2955D01*
Y160138D01*
X3545D01*
Y157579D01*
X15356D01*
Y158253D01*
X16146D01*
X16453Y158314D01*
X16714Y158488D01*
X19628Y161402D01*
X22112D01*
X37231Y146283D01*
X37492Y146109D01*
X37799Y146048D01*
X70144D01*
X83255Y132936D01*
X83195Y132480D01*
X83312Y131594D01*
X83654Y130769D01*
X84198Y130060D01*
X84907Y129516D01*
X85732Y129174D01*
X86618Y129057D01*
X87504Y129174D01*
X88330Y129516D01*
X89038Y130060D01*
X89583Y130769D01*
X89925Y131594D01*
X89935Y131677D01*
X90358D01*
X90666Y131739D01*
X90926Y131913D01*
X93047Y134034D01*
X93471Y133750D01*
X93312Y133366D01*
X93195Y132480D01*
X93312Y131594D01*
X93654Y130769D01*
X93705Y130702D01*
X91364Y128362D01*
X83801D01*
X67107Y145056D01*
X66847Y145230D01*
X66539Y145291D01*
X36557D01*
X22850Y158998D01*
X22862Y159055D01*
X22770Y159516D01*
X22509Y159907D01*
X22118Y160168D01*
X21657Y160259D01*
X21197Y160168D01*
X20806Y159907D01*
X20545Y159516D01*
X20453Y159055D01*
X20545Y158594D01*
X20806Y158204D01*
X21197Y157943D01*
X21657Y157851D01*
X21715Y157862D01*
X35657Y143921D01*
X35917Y143746D01*
X36224Y143685D01*
X66207D01*
X82901Y126991D01*
X82901Y126991D01*
X83161Y126817D01*
X83469Y126756D01*
X83469Y126756D01*
X91697D01*
X92004Y126817D01*
X92264Y126991D01*
X94840Y129567D01*
X94907Y129516D01*
X95732Y129174D01*
X96618Y129057D01*
X97504Y129174D01*
X98330Y129516D01*
X99038Y130060D01*
X99582Y130769D01*
X99924Y131594D01*
X100041Y132480D01*
X99924Y133366D01*
X99582Y134192D01*
X99532Y134258D01*
X101084Y135811D01*
X103637D01*
X103743Y135498D01*
X103768Y135311D01*
X103138Y134490D01*
X102736Y133520D01*
X102651Y132874D01*
X106618D01*
X110585D01*
X110500Y133520D01*
X110098Y134490D01*
X109468Y135311D01*
X109493Y135498D01*
X109600Y135811D01*
X129651D01*
X129714Y135740D01*
X129842Y134769D01*
X130217Y133864D01*
X130813Y133086D01*
X131590Y132490D01*
X132495Y132115D01*
X133467Y131987D01*
X134438Y132115D01*
X135343Y132490D01*
X136120Y133086D01*
X136717Y133864D01*
X137092Y134769D01*
X137219Y135740D01*
X137092Y136711D01*
X136717Y137616D01*
X136120Y138393D01*
X135343Y138990D01*
X134719Y139248D01*
X134818Y139748D01*
X141212D01*
X141398Y139299D01*
X141994Y138521D01*
X142772Y137925D01*
X143677Y137550D01*
X144648Y137422D01*
X145619Y137550D01*
X146524Y137925D01*
X147301Y138521D01*
X147898Y139299D01*
X148273Y140204D01*
X148400Y141175D01*
X148273Y142146D01*
X147898Y143051D01*
X147301Y143828D01*
X146524Y144425D01*
X145619Y144800D01*
X144648Y144928D01*
X143677Y144800D01*
X142772Y144425D01*
X141994Y143828D01*
X141398Y143051D01*
X141023Y142146D01*
X140919Y141354D01*
X138082D01*
X137875Y141854D01*
X141828Y145807D01*
X152182D01*
X152204Y145639D01*
X152579Y144734D01*
X153175Y143956D01*
X153953Y143360D01*
X154858Y142985D01*
X155829Y142857D01*
X156800Y142985D01*
X157705Y143360D01*
X158482Y143956D01*
X159079Y144734D01*
X159454Y145639D01*
X159581Y146610D01*
X159454Y147581D01*
X159079Y148486D01*
X158482Y149263D01*
X157705Y149860D01*
X156800Y150235D01*
X155829Y150363D01*
X154858Y150235D01*
X153953Y149860D01*
X153175Y149263D01*
X152579Y148486D01*
X152204Y147581D01*
X152182Y147413D01*
X141496D01*
X141189Y147352D01*
X140928Y147178D01*
X140928Y147178D01*
X136679Y142929D01*
X135565D01*
X135495Y143065D01*
X135433Y143429D01*
X136120Y143956D01*
X136717Y144734D01*
X137092Y145639D01*
X137219Y146610D01*
X137092Y147581D01*
X136717Y148486D01*
X136120Y149263D01*
X135343Y149860D01*
X135298Y149878D01*
X135398Y150378D01*
X141311D01*
X141398Y150169D01*
X141994Y149391D01*
X142772Y148795D01*
X143677Y148420D01*
X144648Y148292D01*
X145619Y148420D01*
X146524Y148795D01*
X147301Y149391D01*
X147898Y150169D01*
X148273Y151074D01*
X148400Y152045D01*
X148273Y153016D01*
X147898Y153921D01*
X147301Y154698D01*
X146524Y155295D01*
X145619Y155670D01*
X144648Y155798D01*
X143677Y155670D01*
X142772Y155295D01*
X141994Y154698D01*
X141398Y153921D01*
X141023Y153016D01*
X140895Y152045D01*
X140842Y151984D01*
X137689D01*
X137481Y152484D01*
X141675Y156677D01*
X152182D01*
X152204Y156509D01*
X152579Y155604D01*
X153175Y154826D01*
X153953Y154230D01*
X154858Y153855D01*
X155829Y153727D01*
X156800Y153855D01*
X157705Y154230D01*
X158482Y154826D01*
X159079Y155604D01*
X159454Y156509D01*
X159581Y157480D01*
X159454Y158451D01*
X159079Y159356D01*
X158482Y160134D01*
X157705Y160730D01*
X156800Y161105D01*
X155829Y161233D01*
X154858Y161105D01*
X153953Y160730D01*
X153175Y160134D01*
X152579Y159356D01*
X152204Y158451D01*
X152182Y158283D01*
X141342D01*
X141342Y158283D01*
X141035Y158222D01*
X140775Y158048D01*
X140775Y158048D01*
X136286Y153559D01*
X135029D01*
X134929Y154059D01*
X135343Y154230D01*
X136120Y154826D01*
X136717Y155604D01*
X137092Y156509D01*
X137219Y157480D01*
X137092Y158451D01*
X136717Y159356D01*
X136120Y160134D01*
X135343Y160730D01*
X134928Y160902D01*
X135027Y161402D01*
X141248D01*
X141398Y161039D01*
X141994Y160262D01*
X142772Y159665D01*
X143677Y159290D01*
X144648Y159162D01*
X145619Y159290D01*
X146524Y159665D01*
X147301Y160262D01*
X147898Y161039D01*
X148273Y161944D01*
X148400Y162915D01*
X148273Y163886D01*
X147898Y164791D01*
X147301Y165568D01*
X146524Y166165D01*
X145619Y166540D01*
X144648Y166668D01*
X143677Y166540D01*
X142772Y166165D01*
X141994Y165568D01*
X141398Y164791D01*
X141023Y163886D01*
X140908Y163007D01*
X137295D01*
X137088Y163507D01*
X141128Y167547D01*
X152182D01*
X152204Y167379D01*
X152579Y166474D01*
X153175Y165697D01*
X153953Y165100D01*
X154858Y164725D01*
X155829Y164597D01*
X156800Y164725D01*
X157705Y165100D01*
X158482Y165697D01*
X159079Y166474D01*
X159454Y167379D01*
X159581Y168350D01*
X159454Y169321D01*
X159079Y170226D01*
X158482Y171004D01*
X157705Y171600D01*
X156800Y171975D01*
X155829Y172103D01*
X154858Y171975D01*
X153953Y171600D01*
X153175Y171004D01*
X152579Y170226D01*
X152204Y169321D01*
X152182Y169153D01*
X146037D01*
X145937Y169653D01*
X146822Y170019D01*
X147722Y170711D01*
X148414Y171611D01*
X148848Y172660D01*
X148944Y173391D01*
X144648D01*
X140351D01*
X140448Y172660D01*
X140882Y171611D01*
X141573Y170711D01*
X142474Y170019D01*
X143359Y169653D01*
X143259Y169153D01*
X140795D01*
X140795Y169153D01*
X140488Y169092D01*
X140227Y168918D01*
X135892Y164582D01*
X135399D01*
X135300Y165082D01*
X135343Y165100D01*
X136120Y165697D01*
X136717Y166474D01*
X137092Y167379D01*
X137219Y168350D01*
X137092Y169321D01*
X136717Y170226D01*
X136120Y171004D01*
X135343Y171600D01*
X134438Y171975D01*
X133467Y172103D01*
X132495Y171975D01*
X131590Y171600D01*
X131456Y171496D01*
X124038Y178914D01*
X123778Y179088D01*
X123470Y179149D01*
X109600D01*
X109493Y179463D01*
X109468Y179649D01*
X110098Y180471D01*
X110500Y181440D01*
X110585Y182087D01*
X106618D01*
Y182874D01*
X110585D01*
X110500Y183520D01*
X110098Y184490D01*
X109468Y185311D01*
X109493Y185498D01*
X109600Y185811D01*
X122506D01*
X129665Y178653D01*
X129665Y178653D01*
X129801Y178562D01*
X129842Y178249D01*
X130217Y177344D01*
X130813Y176567D01*
X131590Y175970D01*
X132495Y175595D01*
X133467Y175468D01*
X134438Y175595D01*
X135343Y175970D01*
X136120Y176567D01*
X136717Y177344D01*
X137092Y178249D01*
X137219Y179220D01*
X137092Y180191D01*
X136717Y181096D01*
X136120Y181874D01*
X135343Y182470D01*
X135137Y182555D01*
X135236Y183055D01*
X141284D01*
X141398Y182779D01*
X141994Y182002D01*
X142772Y181405D01*
X143677Y181030D01*
X144648Y180903D01*
X145619Y181030D01*
X146524Y181405D01*
X147301Y182002D01*
X147898Y182779D01*
X148273Y183684D01*
X148400Y184655D01*
X148273Y185626D01*
X147898Y186531D01*
X147301Y187309D01*
X146524Y187905D01*
X145619Y188280D01*
X144648Y188408D01*
X143677Y188280D01*
X142772Y187905D01*
X141994Y187309D01*
X141398Y186531D01*
X141023Y185626D01*
X140896Y184661D01*
X137689D01*
X137481Y185161D01*
X141608Y189287D01*
X152182D01*
X152204Y189119D01*
X152579Y188214D01*
X153175Y187437D01*
X153953Y186840D01*
X154858Y186466D01*
X155829Y186338D01*
X156800Y186466D01*
X157705Y186840D01*
X158482Y187437D01*
X159079Y188214D01*
X159454Y189119D01*
X159581Y190090D01*
X159454Y191061D01*
X159079Y191966D01*
X158482Y192744D01*
X157705Y193340D01*
X156800Y193715D01*
X155829Y193843D01*
X154858Y193715D01*
X153953Y193340D01*
X153175Y192744D01*
X152579Y191966D01*
X152204Y191061D01*
X152182Y190893D01*
X141275D01*
X140968Y190832D01*
X140708Y190658D01*
X140708Y190658D01*
X136286Y186236D01*
X135190D01*
X135091Y186736D01*
X135343Y186840D01*
X136120Y187437D01*
X136717Y188214D01*
X137092Y189119D01*
X137219Y190090D01*
X137092Y191061D01*
X136717Y191966D01*
X136120Y192744D01*
X135343Y193340D01*
X134766Y193579D01*
X134866Y194079D01*
X141220D01*
X141398Y193649D01*
X141994Y192872D01*
X142772Y192276D01*
X143677Y191901D01*
X144648Y191773D01*
X145619Y191901D01*
X146524Y192276D01*
X147301Y192872D01*
X147898Y193649D01*
X148273Y194554D01*
X148400Y195525D01*
X148273Y196496D01*
X147898Y197402D01*
X147301Y198179D01*
X146524Y198775D01*
X145619Y199150D01*
X144648Y199278D01*
X143677Y199150D01*
X142772Y198775D01*
X141994Y198179D01*
X141398Y197402D01*
X141023Y196496D01*
X140916Y195685D01*
X138476D01*
X138269Y196185D01*
X142242Y200157D01*
X152182D01*
X152204Y199989D01*
X152579Y199084D01*
X153175Y198307D01*
X153953Y197711D01*
X154858Y197336D01*
X155829Y197208D01*
X156800Y197336D01*
X157705Y197711D01*
X158482Y198307D01*
X159079Y199084D01*
X159454Y199989D01*
X159581Y200960D01*
X159454Y201932D01*
X159079Y202837D01*
X158482Y203614D01*
X157705Y204210D01*
X156800Y204585D01*
X155829Y204713D01*
X154858Y204585D01*
X153953Y204210D01*
X153175Y203614D01*
X152579Y202837D01*
X152204Y201932D01*
X152182Y201763D01*
X141909D01*
X141602Y201702D01*
X141341Y201528D01*
X141341Y201528D01*
X137073Y197259D01*
X135545D01*
X135424Y197529D01*
X135407Y197759D01*
X136120Y198307D01*
X136717Y199084D01*
X137092Y199989D01*
X137219Y200960D01*
X137092Y201932D01*
X136717Y202837D01*
X136120Y203614D01*
X135343Y204210D01*
X135445Y204709D01*
X141319D01*
X141398Y204519D01*
X141994Y203742D01*
X142772Y203146D01*
X143677Y202771D01*
X144648Y202643D01*
X145619Y202771D01*
X146524Y203146D01*
X147301Y203742D01*
X147898Y204519D01*
X148273Y205424D01*
X148400Y206395D01*
X148273Y207367D01*
X147898Y208272D01*
X147301Y209049D01*
X146524Y209645D01*
X145619Y210020D01*
X144648Y210148D01*
X143677Y210020D01*
X142772Y209645D01*
X141994Y209049D01*
X141398Y208272D01*
X141023Y207367D01*
X140895Y206395D01*
X140824Y206315D01*
X137949D01*
X137827Y206815D01*
X137973Y206913D01*
X142088Y211028D01*
X152182D01*
X152204Y210859D01*
X152579Y209954D01*
X153175Y209177D01*
X153953Y208581D01*
X154858Y208206D01*
X155829Y208078D01*
X156800Y208206D01*
X157705Y208581D01*
X158482Y209177D01*
X159079Y209954D01*
X159454Y210859D01*
X159581Y211830D01*
X159454Y212802D01*
X159079Y213707D01*
X158482Y214484D01*
X157705Y215080D01*
X156800Y215455D01*
X155829Y215583D01*
X154858Y215455D01*
X153953Y215080D01*
X153175Y214484D01*
X152579Y213707D01*
X152204Y212802D01*
X152182Y212633D01*
X146037D01*
X145937Y213133D01*
X146822Y213500D01*
X147722Y214191D01*
X148414Y215091D01*
X148848Y216140D01*
X148944Y216872D01*
X144648D01*
X140351D01*
X140448Y216140D01*
X140882Y215091D01*
X141573Y214191D01*
X142474Y213500D01*
X143359Y213133D01*
X143259Y212633D01*
X141756D01*
X141756Y212633D01*
X141448Y212572D01*
X141188Y212398D01*
X141188Y212398D01*
X137073Y208283D01*
X135777D01*
X135607Y208783D01*
X136120Y209177D01*
X136717Y209954D01*
X137092Y210859D01*
X137219Y211830D01*
X137092Y212802D01*
X136717Y213707D01*
X136120Y214484D01*
X135343Y215080D01*
X134438Y215455D01*
X133467Y215583D01*
X132495Y215455D01*
X131590Y215080D01*
X131456Y214977D01*
X116731Y229701D01*
X116471Y229876D01*
X116163Y229937D01*
D02*
G37*
G36*
X156223Y183517D02*
Y179614D01*
X160125D01*
X160029Y180346D01*
X159595Y181394D01*
X158904Y182295D01*
X158003Y182986D01*
X156954Y183420D01*
X156223Y183517D01*
D02*
G37*
G36*
X155435D02*
X154704Y183420D01*
X153655Y182986D01*
X152754Y182295D01*
X152063Y181394D01*
X151629Y180346D01*
X151533Y179614D01*
X155435D01*
Y183517D01*
D02*
G37*
G36*
X160125Y178826D02*
X156223D01*
Y174924D01*
X156954Y175020D01*
X158003Y175454D01*
X158904Y176146D01*
X159595Y177046D01*
X160029Y178095D01*
X160125Y178826D01*
D02*
G37*
G36*
X155435D02*
X151533D01*
X151629Y178095D01*
X152063Y177046D01*
X152754Y176146D01*
X153655Y175454D01*
X154704Y175020D01*
X155435Y174924D01*
Y178826D01*
D02*
G37*
G36*
X145042Y178082D02*
Y174179D01*
X148944D01*
X148848Y174910D01*
X148414Y175959D01*
X147722Y176860D01*
X146822Y177551D01*
X145773Y177985D01*
X145042Y178082D01*
D02*
G37*
G36*
X144254D02*
X143523Y177985D01*
X142474Y177551D01*
X141573Y176860D01*
X140882Y175959D01*
X140448Y174910D01*
X140351Y174179D01*
X144254D01*
Y178082D01*
D02*
G37*
G36*
X15947Y145375D02*
X9844D01*
Y143701D01*
X15947D01*
Y145375D01*
D02*
G37*
G36*
X9057D02*
X2955D01*
Y143701D01*
X9057D01*
Y145375D01*
D02*
G37*
G36*
X156223Y140036D02*
Y136134D01*
X160125D01*
X160029Y136865D01*
X159595Y137914D01*
X158904Y138814D01*
X158003Y139506D01*
X156954Y139940D01*
X156223Y140036D01*
D02*
G37*
G36*
X155435D02*
X154704Y139940D01*
X153655Y139506D01*
X152754Y138814D01*
X152063Y137914D01*
X151629Y136865D01*
X151533Y136134D01*
X155435D01*
Y140036D01*
D02*
G37*
G36*
X160125Y135346D02*
X156223D01*
Y131444D01*
X156954Y131540D01*
X158003Y131974D01*
X158904Y132665D01*
X159595Y133566D01*
X160029Y134615D01*
X160125Y135346D01*
D02*
G37*
G36*
X155435D02*
X151533D01*
X151629Y134615D01*
X152063Y133566D01*
X152754Y132665D01*
X153655Y131974D01*
X154704Y131540D01*
X155435Y131444D01*
Y135346D01*
D02*
G37*
G36*
X145042Y134601D02*
Y130699D01*
X148944D01*
X148848Y131430D01*
X148414Y132479D01*
X147722Y133379D01*
X146822Y134071D01*
X145773Y134505D01*
X145042Y134601D01*
D02*
G37*
G36*
X144254D02*
X143523Y134505D01*
X142474Y134071D01*
X141573Y133379D01*
X140882Y132479D01*
X140448Y131430D01*
X140351Y130699D01*
X144254D01*
Y134601D01*
D02*
G37*
G36*
X110585Y132087D02*
X107012D01*
Y128514D01*
X107658Y128599D01*
X108627Y129000D01*
X109460Y129639D01*
X110098Y130471D01*
X110500Y131440D01*
X110585Y132087D01*
D02*
G37*
G36*
X106224D02*
X102651D01*
X102736Y131440D01*
X103138Y130471D01*
X103777Y129639D01*
X104609Y129000D01*
X105578Y128599D01*
X106224Y128514D01*
Y132087D01*
D02*
G37*
G36*
X156223Y96556D02*
Y92653D01*
X160125D01*
X160029Y93385D01*
X159595Y94434D01*
X158904Y95334D01*
X158003Y96025D01*
X156954Y96460D01*
X156223Y96556D01*
D02*
G37*
G36*
X155435D02*
X154704Y96460D01*
X153655Y96025D01*
X152754Y95334D01*
X152063Y94434D01*
X151629Y93385D01*
X151533Y92653D01*
X155435D01*
Y96556D01*
D02*
G37*
G36*
X160125Y91866D02*
X156223D01*
Y87963D01*
X156954Y88060D01*
X158003Y88494D01*
X158904Y89185D01*
X159595Y90085D01*
X160029Y91134D01*
X160125Y91866D01*
D02*
G37*
G36*
X155435D02*
X151533D01*
X151629Y91134D01*
X152063Y90085D01*
X152754Y89185D01*
X153655Y88494D01*
X154704Y88060D01*
X155435Y87963D01*
Y91866D01*
D02*
G37*
G36*
X145042Y91121D02*
Y87218D01*
X148944D01*
X148848Y87950D01*
X148414Y88999D01*
X147722Y89899D01*
X146822Y90590D01*
X145773Y91025D01*
X145042Y91121D01*
D02*
G37*
G36*
X144254D02*
X143523Y91025D01*
X142474Y90590D01*
X141573Y89899D01*
X140882Y88999D01*
X140448Y87950D01*
X140351Y87218D01*
X144254D01*
Y91121D01*
D02*
G37*
G36*
X42323Y69398D02*
X39764D01*
Y67036D01*
X42323D01*
Y69398D01*
D02*
G37*
G36*
Y66248D02*
X39764D01*
Y63886D01*
X42323D01*
Y66248D01*
D02*
G37*
G36*
X96618Y55403D02*
X95732Y55287D01*
X94907Y54945D01*
X94198Y54401D01*
X93654Y53692D01*
X93312Y52866D01*
X93195Y51980D01*
X93312Y51094D01*
X93654Y50269D01*
X94198Y49560D01*
X94907Y49016D01*
X95732Y48674D01*
X96618Y48557D01*
X97504Y48674D01*
X98330Y49016D01*
X99038Y49560D01*
X99582Y50269D01*
X99924Y51094D01*
X100041Y51980D01*
X99924Y52866D01*
X99582Y53692D01*
X99038Y54401D01*
X98330Y54945D01*
X97504Y55287D01*
X96618Y55403D01*
D02*
G37*
G36*
X192801Y10924D02*
X175886D01*
Y3809D01*
X192801D01*
Y10924D01*
D02*
G37*
%LPD*%
G36*
X132495Y117624D02*
X131590Y117250D01*
X130813Y116653D01*
X130217Y115876D01*
X129842Y114971D01*
X129820Y114803D01*
X121484D01*
X121484Y114803D01*
X121177Y114741D01*
X120916Y114567D01*
X120916Y114567D01*
X113451Y107102D01*
X112885D01*
X112678Y107602D01*
X123171Y118095D01*
X132386D01*
X132495Y117624D01*
D02*
G37*
G36*
X121975Y119170D02*
X111482Y108677D01*
X109616D01*
X109542Y108896D01*
X109489Y109177D01*
X110098Y109971D01*
X110500Y110940D01*
X110585Y111587D01*
X106618D01*
X102651D01*
X102736Y110940D01*
X103138Y109971D01*
X103747Y109177D01*
X103694Y108896D01*
X103620Y108677D01*
X98709D01*
X98539Y109177D01*
X99038Y109560D01*
X99582Y110269D01*
X99924Y111094D01*
X100041Y111980D01*
X99924Y112866D01*
X99582Y113692D01*
X99532Y113758D01*
X105443Y119670D01*
X121768D01*
X121975Y119170D01*
D02*
G37*
G36*
X129842Y113029D02*
X130217Y112123D01*
X130813Y111346D01*
X131590Y110750D01*
X131487Y110252D01*
X124020D01*
X123713Y110190D01*
X123452Y110017D01*
X123452Y110017D01*
X111876Y98441D01*
X109371D01*
X109202Y98941D01*
X109460Y99139D01*
X110098Y99971D01*
X110500Y100940D01*
X110585Y101587D01*
X106618D01*
Y102374D01*
X110585D01*
X110500Y103020D01*
X110098Y103990D01*
X109460Y104822D01*
X109232Y104996D01*
X109402Y105496D01*
X113784D01*
X114091Y105558D01*
X114351Y105731D01*
X121817Y113197D01*
X129820D01*
X129842Y113029D01*
D02*
G37*
G36*
X101896Y96335D02*
X99708Y94146D01*
X99209Y94179D01*
X99038Y94401D01*
X98330Y94945D01*
X97504Y95287D01*
X96618Y95403D01*
X95732Y95287D01*
X94907Y94945D01*
X94198Y94401D01*
X93654Y93692D01*
X93312Y92866D01*
X93195Y91980D01*
X93312Y91094D01*
X93654Y90269D01*
X94198Y89560D01*
X94800Y89098D01*
X94688Y88629D01*
X94671Y88598D01*
X93311D01*
X93311Y88598D01*
X93004Y88537D01*
X92743Y88363D01*
X88893Y84513D01*
X88330Y84945D01*
X87504Y85287D01*
X87421Y85298D01*
Y85433D01*
X87360Y85740D01*
X87186Y86001D01*
X87186Y86001D01*
X84452Y88735D01*
X84782Y89111D01*
X84907Y89016D01*
X85732Y88674D01*
X86618Y88557D01*
X87504Y88674D01*
X88330Y89016D01*
X89038Y89560D01*
X89583Y90269D01*
X89925Y91094D01*
X90041Y91980D01*
X90033Y92043D01*
X94825Y96835D01*
X101689D01*
X101896Y96335D01*
D02*
G37*
G36*
X132053Y106571D02*
X131590Y106379D01*
X130813Y105783D01*
X130217Y105006D01*
X129842Y104101D01*
X129820Y103932D01*
X125181D01*
X124874Y103871D01*
X124613Y103697D01*
X109514Y88598D01*
X108565D01*
X108548Y88629D01*
X108437Y89098D01*
X109038Y89560D01*
X109582Y90269D01*
X109924Y91094D01*
X110041Y91980D01*
X109924Y92866D01*
X109582Y93692D01*
X109038Y94401D01*
X108570Y94760D01*
X108740Y95260D01*
X114571D01*
X114878Y95321D01*
X115139Y95495D01*
X126714Y107071D01*
X131954D01*
X132053Y106571D01*
D02*
G37*
G36*
X129842Y102158D02*
X130217Y101253D01*
X130813Y100476D01*
X131590Y99880D01*
X131957Y99728D01*
X131857Y99228D01*
X124807D01*
X124500Y99167D01*
X124239Y98993D01*
X124239Y98993D01*
X112270Y87023D01*
X110917D01*
X110710Y87523D01*
X125513Y102327D01*
X129820D01*
X129842Y102158D01*
D02*
G37*
G36*
X63768Y75652D02*
Y64961D01*
X63829Y64653D01*
X64003Y64393D01*
X67705Y60691D01*
Y55118D01*
X67766Y54811D01*
X67940Y54550D01*
X72823Y49668D01*
Y33858D01*
X72884Y33551D01*
X73058Y33291D01*
X80539Y25810D01*
X80799Y25636D01*
X81106Y25575D01*
X85122D01*
X85221Y25075D01*
X84907Y24945D01*
X84198Y24401D01*
X83654Y23692D01*
X83312Y22866D01*
X83195Y21980D01*
X83312Y21094D01*
X83519Y20594D01*
X83185Y20094D01*
X69689D01*
X69689Y20094D01*
X69382Y20033D01*
X69121Y19859D01*
X68301Y19039D01*
X68243Y19050D01*
X67783Y18958D01*
X67449Y18735D01*
X67199Y18800D01*
X66948Y18934D01*
Y59842D01*
X66887Y60150D01*
X66713Y60410D01*
X66713Y60410D01*
X63011Y64112D01*
Y74803D01*
X62950Y75110D01*
X62776Y75371D01*
X57264Y80883D01*
X57004Y81057D01*
X56696Y81118D01*
X15710D01*
X15356Y81472D01*
Y81792D01*
X15356Y82309D01*
X15710Y82662D01*
X29529D01*
X29531Y82662D01*
X29534Y82662D01*
X56757D01*
X63768Y75652D01*
D02*
G37*
G36*
X127093Y97122D02*
X109995Y80024D01*
X109582Y80269D01*
X109924Y81094D01*
X110041Y81980D01*
X109924Y82866D01*
X109582Y83692D01*
X109038Y84401D01*
X108365Y84918D01*
X108363Y84972D01*
X108656Y85418D01*
X112602D01*
X112910Y85479D01*
X113170Y85653D01*
X125140Y97622D01*
X126886D01*
X127093Y97122D01*
D02*
G37*
G36*
X131683Y95548D02*
X131590Y95509D01*
X130813Y94913D01*
X130217Y94136D01*
X129842Y93231D01*
X129820Y93062D01*
X128090D01*
X127783Y93001D01*
X127523Y92827D01*
X111876Y77181D01*
X110130D01*
X109923Y77681D01*
X128289Y96048D01*
X131583D01*
X131683Y95548D01*
D02*
G37*
G36*
X65737Y78801D02*
Y76528D01*
X65237Y76405D01*
X65139Y76552D01*
X65139Y76552D01*
X57658Y84033D01*
X57397Y84207D01*
X57090Y84268D01*
X15356D01*
Y84941D01*
X15356D01*
Y85138D01*
X15356D01*
Y85812D01*
X58726D01*
X65737Y78801D01*
D02*
G37*
G36*
X105221Y75075D02*
X104907Y74945D01*
X104198Y74401D01*
X103654Y73692D01*
X103312Y72866D01*
X103195Y71980D01*
X103312Y71094D01*
X103654Y70269D01*
X104198Y69560D01*
X104389Y69413D01*
X104219Y68913D01*
X99017D01*
X98847Y69413D01*
X99038Y69560D01*
X99582Y70269D01*
X99924Y71094D01*
X100041Y71980D01*
X99924Y72866D01*
X99582Y73692D01*
X99532Y73758D01*
X101348Y75575D01*
X105122D01*
X105221Y75075D01*
D02*
G37*
G36*
X97604Y66846D02*
X96092Y65334D01*
X95732Y65287D01*
X94907Y64945D01*
X94198Y64401D01*
X93654Y63692D01*
X93312Y62866D01*
X93195Y61980D01*
X93312Y61094D01*
X93654Y60269D01*
X94198Y59560D01*
X94697Y59177D01*
X94527Y58677D01*
X88709D01*
X88539Y59177D01*
X89038Y59560D01*
X89583Y60269D01*
X89925Y61094D01*
X90004Y61699D01*
X95612Y67307D01*
X97413D01*
X97604Y66846D01*
D02*
G37*
G36*
X77941Y84707D02*
Y72835D01*
X78002Y72527D01*
X78176Y72267D01*
X85007Y65436D01*
X84955Y65175D01*
X84842Y64895D01*
X84198Y64401D01*
X83654Y63692D01*
X83312Y62866D01*
X83195Y61980D01*
X83312Y61094D01*
X83654Y60269D01*
X84198Y59560D01*
X84697Y59177D01*
X84527Y58677D01*
X83407D01*
X82303Y59781D01*
Y66535D01*
X82303Y66535D01*
X82242Y66843D01*
X82068Y67103D01*
X82068Y67103D01*
X76791Y72380D01*
Y84252D01*
X76730Y84559D01*
X76556Y84820D01*
X76556Y84820D01*
X55295Y106080D01*
X55035Y106254D01*
X54728Y106315D01*
X15356D01*
Y106989D01*
X15356D01*
Y107186D01*
X15356D01*
Y107859D01*
X54789D01*
X77941Y84707D01*
D02*
G37*
G36*
X68099Y80376D02*
Y68110D01*
X68160Y67803D01*
X68334Y67542D01*
X72823Y63053D01*
Y57087D01*
X72884Y56779D01*
X73058Y56519D01*
X78335Y51242D01*
Y50544D01*
X77835Y50421D01*
X77737Y50568D01*
X77737Y50568D01*
X71279Y57025D01*
Y62992D01*
X71218Y63299D01*
X71044Y63560D01*
X71044Y63560D01*
X67342Y67262D01*
Y79134D01*
X67281Y79441D01*
X67107Y79702D01*
X59626Y87182D01*
X59366Y87356D01*
X59058Y87418D01*
X15356D01*
Y88091D01*
X15356D01*
Y88288D01*
X15356D01*
Y88961D01*
X59513D01*
X68099Y80376D01*
D02*
G37*
G36*
X99989Y39999D02*
Y33961D01*
X99489Y33814D01*
X99038Y34401D01*
X98330Y34945D01*
X97504Y35287D01*
X96618Y35403D01*
X95732Y35287D01*
X94907Y34945D01*
X94198Y34401D01*
X93827Y33917D01*
X93326Y34087D01*
Y39874D01*
X93827Y40044D01*
X94198Y39560D01*
X94907Y39016D01*
X95732Y38674D01*
X96618Y38557D01*
X97504Y38674D01*
X98330Y39016D01*
X99038Y39560D01*
X99489Y40146D01*
X99989Y39999D01*
D02*
G37*
G36*
X78570Y38893D02*
X83705Y33758D01*
X83654Y33692D01*
X83312Y32866D01*
X83195Y31980D01*
X83312Y31094D01*
X83654Y30269D01*
X84198Y29560D01*
X84594Y29256D01*
X84425Y28756D01*
X83407D01*
X77972Y34191D01*
Y38917D01*
X78472Y39040D01*
X78570Y38893D01*
D02*
G37*
G36*
X69909Y56125D02*
X76367Y49668D01*
Y33858D01*
X76428Y33551D01*
X76602Y33291D01*
X82211Y27681D01*
X82004Y27181D01*
X81439D01*
X74429Y34191D01*
Y50000D01*
X74368Y50307D01*
X74194Y50568D01*
X69311Y55451D01*
Y56149D01*
X69811Y56272D01*
X69909Y56125D01*
D02*
G37*
G36*
X103669Y30249D02*
X104198Y29560D01*
X104907Y29016D01*
X105732Y28674D01*
X105736Y28673D01*
X105786Y28177D01*
X100434Y22825D01*
X100221Y22842D01*
X99879Y22977D01*
X99582Y23692D01*
X99038Y24401D01*
X98330Y24945D01*
X97504Y25287D01*
X96618Y25403D01*
X95732Y25287D01*
X94907Y24945D01*
X94198Y24401D01*
X93654Y23692D01*
X93312Y22866D01*
X93195Y21980D01*
X93312Y21094D01*
X93654Y20269D01*
X93705Y20202D01*
X92022Y18519D01*
X88437D01*
X88330Y19016D01*
X89038Y19560D01*
X89583Y20269D01*
X89925Y21094D01*
X90041Y21980D01*
X89925Y22866D01*
X89583Y23692D01*
X89038Y24401D01*
X88330Y24945D01*
X88015Y25075D01*
X88114Y25575D01*
X89374D01*
X89681Y25636D01*
X89942Y25810D01*
X93091Y28960D01*
X93091Y28960D01*
X93265Y29220D01*
X93326Y29528D01*
X93326Y29528D01*
Y29874D01*
X93827Y30044D01*
X94198Y29560D01*
X94907Y29016D01*
X95732Y28674D01*
X96618Y28557D01*
X96719Y28571D01*
X96900Y28090D01*
X96790Y28017D01*
X96529Y27626D01*
X96438Y27165D01*
X96529Y26704D01*
X96790Y26314D01*
X97181Y26053D01*
X97642Y25961D01*
X98103Y26053D01*
X98493Y26314D01*
X98526Y26362D01*
X98823D01*
X99130Y26424D01*
X99391Y26598D01*
X100673Y27880D01*
X101238Y27738D01*
X101266Y27645D01*
X101254Y27626D01*
X101162Y27165D01*
X101254Y26704D01*
X101515Y26314D01*
X101905Y26053D01*
X102366Y25961D01*
X102827Y26053D01*
X103218Y26314D01*
X103479Y26704D01*
X103570Y27165D01*
X103479Y27626D01*
X103218Y28017D01*
X103169Y28049D01*
Y30097D01*
X103619Y30253D01*
X103669Y30249D01*
D02*
G37*
G36*
X99849Y19795D02*
X99889Y19524D01*
X96522Y16157D01*
X71678D01*
X71529Y16657D01*
X71798Y16914D01*
X92354D01*
X92662Y16975D01*
X92922Y17149D01*
X94840Y19067D01*
X94907Y19016D01*
X95732Y18674D01*
X96618Y18557D01*
X97504Y18674D01*
X98330Y19016D01*
X99038Y19560D01*
X99325Y19933D01*
X99849Y19795D01*
D02*
G37*
G36*
X65343Y59499D02*
Y18525D01*
X64843Y18376D01*
X64586Y18644D01*
Y59449D01*
X64560Y59580D01*
X64975Y59795D01*
X65343Y59499D01*
D02*
G37*
%LPC*%
G36*
X107012Y115947D02*
Y112374D01*
X110585D01*
X110500Y113020D01*
X110098Y113990D01*
X109460Y114822D01*
X108627Y115461D01*
X107658Y115862D01*
X107012Y115947D01*
D02*
G37*
G36*
X106224D02*
X105578Y115862D01*
X104609Y115461D01*
X103777Y114822D01*
X103138Y113990D01*
X102736Y113020D01*
X102651Y112374D01*
X106224D01*
Y115947D01*
D02*
G37*
%LPD*%
G36*
X100833Y227831D02*
X98396Y225394D01*
X98330Y225445D01*
X97504Y225787D01*
X96618Y225903D01*
X95732Y225787D01*
X94907Y225445D01*
X94198Y224901D01*
X93654Y224192D01*
X93312Y223366D01*
X93195Y222480D01*
X93312Y221594D01*
X93654Y220769D01*
X93705Y220702D01*
X91128Y218126D01*
X83469D01*
X83161Y218065D01*
X82901Y217891D01*
X67782Y202771D01*
X67083D01*
X66960Y203271D01*
X67107Y203369D01*
X82942Y219204D01*
X83224Y219087D01*
Y219087D01*
X90012D01*
Y224739D01*
X93604Y228331D01*
X100626D01*
X100833Y227831D01*
D02*
G37*
G36*
X127154Y213841D02*
Y210236D01*
X127215Y209929D01*
X127389Y209668D01*
X130145Y206913D01*
X130292Y206815D01*
X130169Y206315D01*
X129077D01*
X116713Y218678D01*
X116453Y218852D01*
X116146Y218913D01*
X109335D01*
X109166Y219413D01*
X109460Y219639D01*
X110098Y220471D01*
X110500Y221440D01*
X110585Y222087D01*
X106618D01*
X102651D01*
X102736Y221440D01*
X103138Y220471D01*
X103777Y219639D01*
X104071Y219413D01*
X103901Y218913D01*
X98181D01*
X98081Y219413D01*
X98330Y219516D01*
X99038Y220060D01*
X99582Y220769D01*
X99924Y221594D01*
X100041Y222480D01*
X99924Y223366D01*
X99582Y224192D01*
X99532Y224258D01*
X102029Y226756D01*
X105223D01*
X105323Y226256D01*
X104609Y225961D01*
X103777Y225322D01*
X103138Y224490D01*
X102736Y223520D01*
X102651Y222874D01*
X106618D01*
X110585D01*
X110500Y223520D01*
X110098Y224490D01*
X109460Y225322D01*
X108627Y225961D01*
X107914Y226256D01*
X108013Y226756D01*
X114238D01*
X127154Y213841D01*
D02*
G37*
G36*
X99810Y216807D02*
X98396Y215394D01*
X98330Y215445D01*
X97504Y215787D01*
X96618Y215903D01*
X95732Y215787D01*
X94907Y215445D01*
X94198Y214901D01*
X93654Y214192D01*
X93312Y213366D01*
X93195Y212480D01*
X93312Y211594D01*
X93654Y210769D01*
X93705Y210702D01*
X91286Y208283D01*
X82288D01*
X82287Y208283D01*
X81980Y208222D01*
X81720Y208048D01*
X81720Y208048D01*
X72506Y198834D01*
X71020D01*
X70897Y199334D01*
X71044Y199432D01*
X82898Y211286D01*
X83488Y211169D01*
X83654Y210769D01*
X84198Y210060D01*
X84907Y209516D01*
X85732Y209174D01*
X86618Y209057D01*
X87504Y209174D01*
X88330Y209516D01*
X89038Y210060D01*
X89583Y210769D01*
X89925Y211594D01*
X89943Y211736D01*
X89957Y211739D01*
X90217Y211913D01*
X95612Y217307D01*
X99603D01*
X99810Y216807D01*
D02*
G37*
G36*
X94847Y219324D02*
X94878Y219205D01*
X94849Y218770D01*
X94712Y218678D01*
X94712Y218678D01*
X90089Y214055D01*
X89682Y214136D01*
X89555Y214228D01*
X89038Y214901D01*
X88330Y215445D01*
X87504Y215787D01*
X86618Y215903D01*
X85732Y215787D01*
X84907Y215445D01*
X84198Y214901D01*
X83654Y214192D01*
X83312Y213366D01*
X83301Y213283D01*
X82957D01*
X82649Y213222D01*
X82389Y213048D01*
X82389Y213048D01*
X70144Y200803D01*
X68658D01*
X68535Y201303D01*
X68682Y201401D01*
X83801Y216520D01*
X91461D01*
X91768Y216581D01*
X92028Y216755D01*
X94677Y219404D01*
X94847Y219324D01*
D02*
G37*
G36*
X94907Y209516D02*
X95346Y209334D01*
X95422Y209085D01*
X95424Y208760D01*
X90338Y203674D01*
X89748Y203792D01*
X89583Y204192D01*
X89038Y204901D01*
X88330Y205445D01*
X87504Y205787D01*
X86618Y205903D01*
X85732Y205787D01*
X84907Y205445D01*
X84198Y204901D01*
X83654Y204192D01*
X83312Y203366D01*
X83301Y203283D01*
X81618D01*
X81311Y203222D01*
X81050Y203048D01*
X74868Y196866D01*
X73382D01*
X73260Y197366D01*
X73406Y197464D01*
X82620Y206678D01*
X91618D01*
X91925Y206739D01*
X92186Y206913D01*
X94840Y209567D01*
X94907Y209516D01*
D02*
G37*
G36*
X93527Y203885D02*
X93312Y203366D01*
X93195Y202480D01*
X93312Y201594D01*
X93654Y200769D01*
X93705Y200702D01*
X91443Y198441D01*
X81500D01*
X81500Y198441D01*
X81193Y198380D01*
X80932Y198205D01*
X80932Y198205D01*
X77624Y194897D01*
X75744D01*
X75622Y195397D01*
X75769Y195495D01*
X81951Y201677D01*
X83301D01*
X83312Y201594D01*
X83654Y200769D01*
X84198Y200060D01*
X84907Y199516D01*
X85732Y199174D01*
X86618Y199057D01*
X87504Y199174D01*
X88330Y199516D01*
X89038Y200060D01*
X89583Y200769D01*
X89925Y201594D01*
X89935Y201677D01*
X90280D01*
X90587Y201739D01*
X90847Y201913D01*
X93103Y204168D01*
X93527Y203885D01*
D02*
G37*
G36*
X129578Y200393D02*
X129578Y200393D01*
X129809Y200238D01*
X129842Y199989D01*
X130143Y199262D01*
X129719Y198979D01*
X119863Y208835D01*
X119603Y209009D01*
X119295Y209071D01*
X109497D01*
X109336Y209544D01*
X109460Y209639D01*
X110098Y210471D01*
X110500Y211440D01*
X110585Y212087D01*
X106618D01*
Y212874D01*
X110585D01*
X110500Y213520D01*
X110098Y214490D01*
X109528Y215233D01*
X109672Y215733D01*
X114238D01*
X129578Y200393D01*
D02*
G37*
G36*
X99731Y196729D02*
X98396Y195394D01*
X98330Y195445D01*
X97504Y195787D01*
X96618Y195903D01*
X95732Y195787D01*
X94907Y195445D01*
X94198Y194901D01*
X93654Y194192D01*
X93312Y193366D01*
X93195Y192480D01*
X93312Y191594D01*
X93654Y190769D01*
X93705Y190702D01*
X91601Y188598D01*
X86961D01*
X86928Y189098D01*
X87504Y189174D01*
X88330Y189516D01*
X89038Y190060D01*
X89583Y190769D01*
X89925Y191594D01*
X89941Y191720D01*
X90036Y191739D01*
X90296Y191913D01*
X95612Y197229D01*
X99524D01*
X99731Y196729D01*
D02*
G37*
G36*
X94907Y199516D02*
X95345Y199334D01*
X95284Y198871D01*
X95257Y198830D01*
X94972Y198773D01*
X94712Y198599D01*
X90112Y194000D01*
X89622Y194097D01*
X89583Y194192D01*
X89038Y194901D01*
X88330Y195445D01*
X87504Y195787D01*
X86618Y195903D01*
X85732Y195787D01*
X84907Y195445D01*
X84198Y194901D01*
X83654Y194192D01*
X83312Y193366D01*
X83254Y192929D01*
X78500D01*
X78378Y193429D01*
X78524Y193527D01*
X81832Y196835D01*
X91776D01*
X92083Y196896D01*
X92343Y197070D01*
X94840Y199567D01*
X94907Y199516D01*
D02*
G37*
G36*
X128964Y194314D02*
X128964Y194314D01*
X129224Y194140D01*
X129532Y194079D01*
X132068D01*
X132167Y193579D01*
X131590Y193340D01*
X130813Y192744D01*
X130447Y192266D01*
X129802Y192203D01*
X123406Y198599D01*
X123146Y198773D01*
X122839Y198834D01*
X109233D01*
X109063Y199334D01*
X109460Y199639D01*
X110098Y200471D01*
X110500Y201440D01*
X110585Y202087D01*
X106618D01*
Y202874D01*
X110585D01*
X110500Y203520D01*
X110098Y204490D01*
X109460Y205322D01*
X109336Y205417D01*
X109497Y205890D01*
X117388D01*
X128964Y194314D01*
D02*
G37*
G36*
X129849Y185161D02*
X129642Y184661D01*
X129077D01*
X124981Y188757D01*
X124721Y188931D01*
X124413Y188992D01*
X109438D01*
X109268Y189492D01*
X109460Y189639D01*
X110098Y190471D01*
X110500Y191440D01*
X110585Y192087D01*
X106618D01*
Y192874D01*
X110585D01*
X110500Y193520D01*
X110098Y194490D01*
X109589Y195154D01*
X109809Y195654D01*
X119356D01*
X129849Y185161D01*
D02*
G37*
G36*
X99889Y186886D02*
X98396Y185394D01*
X98330Y185445D01*
X97504Y185787D01*
X96618Y185903D01*
X95732Y185787D01*
X94907Y185445D01*
X94198Y184901D01*
X93654Y184192D01*
X93312Y183366D01*
X93195Y182480D01*
X93312Y181594D01*
X93654Y180769D01*
X93705Y180702D01*
X91364Y178362D01*
X83407D01*
X74981Y186788D01*
X74834Y186886D01*
X74957Y187386D01*
X80577D01*
X83705Y184258D01*
X83654Y184192D01*
X83312Y183366D01*
X83195Y182480D01*
X83312Y181594D01*
X83654Y180769D01*
X84198Y180060D01*
X84907Y179516D01*
X85732Y179174D01*
X86618Y179057D01*
X87504Y179174D01*
X88330Y179516D01*
X89038Y180060D01*
X89583Y180769D01*
X89925Y181594D01*
X89950Y181787D01*
X90139Y181913D01*
X95612Y187386D01*
X99682D01*
X99889Y186886D01*
D02*
G37*
G36*
X82507Y176991D02*
X82507Y176991D01*
X82768Y176817D01*
X83075Y176756D01*
X91697D01*
X92004Y176817D01*
X92264Y176991D01*
X94840Y179567D01*
X94907Y179516D01*
X95273Y179364D01*
X95333Y179244D01*
X95368Y178783D01*
X90315Y173730D01*
X89725Y173847D01*
X89583Y174192D01*
X89038Y174901D01*
X88330Y175445D01*
X87504Y175787D01*
X86618Y175903D01*
X85732Y175787D01*
X84907Y175445D01*
X84198Y174901D01*
X83654Y174192D01*
X83312Y173366D01*
X83301Y173283D01*
X51085D01*
X39548Y184820D01*
X39402Y184918D01*
X39526Y185418D01*
X74081D01*
X82507Y176991D01*
D02*
G37*
G36*
X50184Y171913D02*
X50184Y171913D01*
X50445Y171739D01*
X50752Y171677D01*
X50752Y171677D01*
X83301D01*
X83312Y171594D01*
X83654Y170769D01*
X84198Y170060D01*
X84907Y169516D01*
X85732Y169174D01*
X86618Y169057D01*
X87504Y169174D01*
X88330Y169516D01*
X89038Y170060D01*
X89583Y170769D01*
X89925Y171594D01*
X89935Y171677D01*
X90201D01*
X90508Y171739D01*
X90768Y171913D01*
X93158Y174302D01*
X93582Y174019D01*
X93312Y173366D01*
X93195Y172480D01*
X93312Y171594D01*
X93654Y170769D01*
X93705Y170702D01*
X91522Y168519D01*
X83801D01*
X82068Y170253D01*
X81807Y170427D01*
X81500Y170488D01*
X49549D01*
X37186Y182851D01*
X37038Y182950D01*
X37159Y183450D01*
X38647D01*
X50184Y171913D01*
D02*
G37*
G36*
X48649Y169117D02*
X48649Y169117D01*
X48909Y168943D01*
X49216Y168882D01*
X49217Y168882D01*
X81167D01*
X82901Y167149D01*
X83161Y166975D01*
X83469Y166914D01*
X83469Y166914D01*
X91854D01*
X92162Y166975D01*
X92422Y167149D01*
X94840Y169567D01*
X94907Y169516D01*
X95307Y169350D01*
X95339Y169081D01*
X95304Y168810D01*
X95106Y168678D01*
X95105Y168678D01*
X90204Y163777D01*
X89714Y163874D01*
X89583Y164192D01*
X89038Y164901D01*
X88330Y165445D01*
X87504Y165787D01*
X86618Y165903D01*
X85732Y165787D01*
X84907Y165445D01*
X84198Y164901D01*
X83654Y164192D01*
X83522Y163874D01*
X83032Y163777D01*
X79706Y167103D01*
X79445Y167277D01*
X79138Y167338D01*
X47974D01*
X34430Y180883D01*
X34283Y180981D01*
X34406Y181481D01*
X36286D01*
X48649Y169117D01*
D02*
G37*
G36*
X127941Y169746D02*
Y166142D01*
X128002Y165834D01*
X128176Y165574D01*
X129911Y163840D01*
X129746Y163297D01*
X129603Y163269D01*
X124194Y168678D01*
X123933Y168852D01*
X123626Y168913D01*
X109335D01*
X109166Y169413D01*
X109460Y169639D01*
X110098Y170471D01*
X110500Y171440D01*
X110585Y172087D01*
X106618D01*
Y172874D01*
X110585D01*
X110500Y173520D01*
X110098Y174490D01*
X109460Y175322D01*
X109268Y175469D01*
X109438Y175969D01*
X121719D01*
X127941Y169746D01*
D02*
G37*
G36*
X47074Y165968D02*
X47335Y165794D01*
X47642Y165733D01*
X47642Y165733D01*
X78805D01*
X82625Y161913D01*
X82625Y161913D01*
X82886Y161739D01*
X83193Y161678D01*
X83312Y161594D01*
X83654Y160769D01*
X84198Y160060D01*
X84907Y159516D01*
X85732Y159174D01*
X85677Y158677D01*
X83801D01*
X78524Y163953D01*
X78264Y164128D01*
X77957Y164189D01*
X46006D01*
X31674Y178521D01*
X31413Y178694D01*
X31106Y178756D01*
X22585D01*
X22317Y179012D01*
X22465Y179512D01*
X33530D01*
X47074Y165968D01*
D02*
G37*
G36*
X129744Y157707D02*
X129714Y157480D01*
X129842Y156509D01*
X130021Y156078D01*
X129597Y155795D01*
X126556Y158835D01*
X126295Y159009D01*
X125988Y159071D01*
X109497D01*
X109336Y159544D01*
X109460Y159639D01*
X110098Y160471D01*
X110500Y161440D01*
X110585Y162087D01*
X106618D01*
Y162874D01*
X110585D01*
X110500Y163520D01*
X110098Y164490D01*
X109528Y165233D01*
X109672Y165733D01*
X121719D01*
X129744Y157707D01*
D02*
G37*
G36*
X129358Y150613D02*
X129358Y150613D01*
X129618Y150439D01*
X129925Y150378D01*
X129925Y150378D01*
X131536D01*
X131635Y149878D01*
X131590Y149860D01*
X130813Y149263D01*
X130786Y149228D01*
X109672D01*
X109528Y149728D01*
X110098Y150471D01*
X110500Y151440D01*
X110585Y152087D01*
X106618D01*
Y152874D01*
X110585D01*
X110500Y153520D01*
X110098Y154490D01*
X109460Y155322D01*
X109336Y155417D01*
X109497Y155890D01*
X124081D01*
X129358Y150613D01*
D02*
G37*
G36*
X129849Y141854D02*
X129642Y141354D01*
X111421D01*
X111421Y141354D01*
X111114Y141293D01*
X110929Y141169D01*
X110663Y141299D01*
X110504Y141474D01*
X110585Y142087D01*
X106618D01*
Y142874D01*
X110585D01*
X110500Y143520D01*
X110098Y144490D01*
X109460Y145322D01*
X109166Y145548D01*
X109335Y146048D01*
X125656D01*
X129849Y141854D01*
D02*
G37*
G36*
X132215Y139248D02*
X131590Y138990D01*
X130813Y138393D01*
X130217Y137616D01*
X130134Y137417D01*
X110130D01*
X109923Y137917D01*
X111754Y139748D01*
X132116D01*
X132215Y139248D01*
D02*
G37*
G36*
X190351Y10412D02*
X190489Y10402D01*
X190528D01*
X190567Y10392D01*
X190626Y10382D01*
X190695Y10373D01*
X190774Y10363D01*
X190862Y10343D01*
X190961Y10323D01*
X190971D01*
X191010Y10313D01*
X191059Y10304D01*
X191138Y10284D01*
X191217Y10254D01*
X191305Y10215D01*
X191512Y10126D01*
X191522Y10117D01*
X191561Y10097D01*
X191610Y10067D01*
X191679Y10028D01*
X191758Y9969D01*
X191837Y9910D01*
X191994Y9753D01*
X192004Y9743D01*
X192024Y9713D01*
X192063Y9664D01*
X192102Y9605D01*
X192151Y9526D01*
X192210Y9438D01*
X192260Y9339D01*
X192299Y9231D01*
X192309Y9221D01*
X192319Y9182D01*
X192338Y9123D01*
X192358Y9034D01*
X192378Y8936D01*
X192388Y8828D01*
X192407Y8700D01*
Y8562D01*
Y8552D01*
Y8542D01*
Y8513D01*
Y8473D01*
X192397Y8375D01*
X192388Y8257D01*
X192368Y8109D01*
X192338Y7952D01*
X192299Y7804D01*
X192240Y7647D01*
X192230Y7627D01*
X192210Y7578D01*
X192171Y7509D01*
X192122Y7421D01*
X192053Y7312D01*
X191974Y7194D01*
X191876Y7086D01*
X191768Y6978D01*
X191758Y6968D01*
X191709Y6928D01*
X191650Y6879D01*
X191561Y6820D01*
X191453Y6751D01*
X191325Y6692D01*
X191177Y6623D01*
X191020Y6564D01*
X191000Y6555D01*
X190941Y6545D01*
X190853Y6525D01*
X190725Y6496D01*
X190567Y6466D01*
X190390Y6446D01*
X190183Y6436D01*
X189967Y6427D01*
X189465D01*
Y4478D01*
Y4468D01*
Y4449D01*
X189445Y4419D01*
X189426Y4390D01*
X189416Y4380D01*
X189406Y4370D01*
X189377Y4350D01*
X189327Y4331D01*
X189318D01*
X189278Y4321D01*
X189219Y4311D01*
X189140Y4301D01*
X189121D01*
X189091Y4291D01*
X189062D01*
X188963Y4281D01*
X188737D01*
X188639Y4291D01*
X188540Y4301D01*
X188521D01*
X188471Y4311D01*
X188412Y4321D01*
X188343Y4331D01*
X188333D01*
X188304Y4350D01*
X188275Y4360D01*
X188245Y4390D01*
Y4400D01*
X188235Y4419D01*
X188225Y4478D01*
Y9969D01*
Y9979D01*
Y10008D01*
X188235Y10048D01*
Y10097D01*
X188275Y10205D01*
X188294Y10254D01*
X188333Y10304D01*
X188343Y10313D01*
X188353Y10323D01*
X188383Y10343D01*
X188412Y10363D01*
X188511Y10402D01*
X188570Y10422D01*
X190213D01*
X190351Y10412D01*
D02*
G37*
G36*
X180816D02*
X180835Y10392D01*
X180845Y10382D01*
X180855Y10373D01*
X180875Y10343D01*
X180894Y10304D01*
X180904Y10294D01*
X180914Y10264D01*
X180924Y10215D01*
X180934Y10146D01*
Y10126D01*
X180944Y10077D01*
X180954Y10008D01*
Y9910D01*
Y9900D01*
Y9890D01*
Y9831D01*
X180944Y9753D01*
X180934Y9674D01*
Y9654D01*
X180924Y9615D01*
X180914Y9566D01*
X180894Y9516D01*
Y9506D01*
X180885Y9487D01*
X180865Y9457D01*
X180835Y9428D01*
X180816Y9418D01*
X180767Y9408D01*
X179241D01*
Y4478D01*
Y4468D01*
Y4449D01*
X179222Y4419D01*
X179202Y4390D01*
X179192Y4380D01*
X179182Y4370D01*
X179153Y4350D01*
X179104Y4331D01*
X179094D01*
X179054Y4321D01*
X178995Y4311D01*
X178907Y4301D01*
X178887D01*
X178828Y4291D01*
X178730Y4281D01*
X178503D01*
X178405Y4291D01*
X178307Y4301D01*
X178287D01*
X178238Y4311D01*
X178179Y4321D01*
X178120Y4331D01*
X178110D01*
X178080Y4350D01*
X178051Y4360D01*
X178021Y4390D01*
Y4400D01*
X178011Y4419D01*
X178001Y4449D01*
X177992Y4478D01*
Y9408D01*
X176427D01*
X176378Y9428D01*
Y9438D01*
X176358Y9448D01*
X176339Y9477D01*
X176319Y9516D01*
Y9526D01*
X176309Y9556D01*
X176299Y9605D01*
X176289Y9674D01*
Y9693D01*
Y9743D01*
X176279Y9812D01*
Y9910D01*
Y9920D01*
Y9930D01*
Y9989D01*
Y10067D01*
X176289Y10146D01*
Y10166D01*
X176299Y10205D01*
X176309Y10254D01*
X176319Y10304D01*
X176329Y10313D01*
X176339Y10333D01*
X176358Y10363D01*
X176378Y10392D01*
X176388Y10402D01*
X176398Y10412D01*
X176427Y10422D01*
X180786D01*
X180816Y10412D01*
D02*
G37*
G36*
X184516Y10520D02*
X184584D01*
X184752Y10510D01*
X184939Y10481D01*
X185145Y10451D01*
X185352Y10402D01*
X185559Y10343D01*
X185568D01*
X185578Y10333D01*
X185608Y10323D01*
X185647Y10304D01*
X185746Y10264D01*
X185873Y10205D01*
X186011Y10126D01*
X186159Y10028D01*
X186307Y9910D01*
X186444Y9772D01*
X186464Y9753D01*
X186503Y9703D01*
X186572Y9625D01*
X186651Y9506D01*
X186740Y9369D01*
X186828Y9201D01*
X186917Y9014D01*
X186985Y8808D01*
Y8798D01*
X186995Y8778D01*
X187005Y8749D01*
X187015Y8709D01*
X187025Y8651D01*
X187045Y8582D01*
X187064Y8503D01*
X187084Y8414D01*
X187113Y8218D01*
X187143Y7981D01*
X187163Y7716D01*
X187172Y7430D01*
Y7421D01*
Y7401D01*
Y7361D01*
Y7302D01*
X187163Y7233D01*
Y7155D01*
X187153Y6978D01*
X187123Y6771D01*
X187094Y6535D01*
X187045Y6299D01*
X186976Y6072D01*
Y6063D01*
X186966Y6043D01*
X186956Y6013D01*
X186936Y5974D01*
X186897Y5856D01*
X186838Y5718D01*
X186759Y5561D01*
X186661Y5384D01*
X186543Y5216D01*
X186415Y5049D01*
X186395Y5029D01*
X186346Y4980D01*
X186267Y4911D01*
X186159Y4813D01*
X186021Y4715D01*
X185864Y4606D01*
X185687Y4508D01*
X185490Y4419D01*
X185480D01*
X185460Y4409D01*
X185431Y4400D01*
X185391Y4390D01*
X185342Y4370D01*
X185273Y4350D01*
X185126Y4311D01*
X184939Y4272D01*
X184722Y4232D01*
X184486Y4213D01*
X184220Y4203D01*
X184102D01*
X184043Y4213D01*
X183965D01*
X183797Y4222D01*
X183610Y4242D01*
X183404Y4281D01*
X183187Y4321D01*
X182981Y4380D01*
X182971D01*
X182961Y4390D01*
X182931Y4400D01*
X182892Y4419D01*
X182794Y4459D01*
X182676Y4518D01*
X182528Y4606D01*
X182380Y4705D01*
X182233Y4813D01*
X182095Y4951D01*
X182075Y4970D01*
X182036Y5020D01*
X181977Y5108D01*
X181898Y5216D01*
X181810Y5354D01*
X181721Y5521D01*
X181642Y5718D01*
X181564Y5925D01*
Y5935D01*
X181554Y5954D01*
X181544Y5984D01*
X181534Y6033D01*
X181524Y6082D01*
X181505Y6151D01*
X181495Y6230D01*
X181475Y6318D01*
X181446Y6525D01*
X181416Y6761D01*
X181396Y7027D01*
X181386Y7322D01*
Y7332D01*
Y7352D01*
Y7391D01*
Y7450D01*
X181396Y7509D01*
Y7588D01*
X181406Y7775D01*
X181436Y7981D01*
X181465Y8198D01*
X181514Y8434D01*
X181573Y8660D01*
Y8670D01*
X181583Y8690D01*
X181593Y8719D01*
X181613Y8759D01*
X181652Y8867D01*
X181711Y9005D01*
X181790Y9162D01*
X181888Y9329D01*
X182006Y9506D01*
X182134Y9664D01*
X182154Y9684D01*
X182203Y9733D01*
X182282Y9812D01*
X182390Y9900D01*
X182528Y9999D01*
X182685Y10107D01*
X182862Y10215D01*
X183059Y10304D01*
X183069D01*
X183089Y10313D01*
X183118Y10323D01*
X183158Y10343D01*
X183207Y10353D01*
X183276Y10373D01*
X183423Y10422D01*
X183610Y10461D01*
X183837Y10491D01*
X184073Y10520D01*
X184338Y10530D01*
X184457D01*
X184516Y10520D01*
D02*
G37*
%LPC*%
G36*
X190124Y9467D02*
X189465D01*
Y7381D01*
X190124D01*
X190193Y7391D01*
X190351Y7411D01*
X190508Y7460D01*
X190518D01*
X190548Y7480D01*
X190577Y7489D01*
X190626Y7519D01*
X190735Y7588D01*
X190843Y7676D01*
X190853Y7686D01*
X190862Y7706D01*
X190892Y7735D01*
X190912Y7775D01*
X190981Y7883D01*
X191040Y8021D01*
Y8031D01*
X191049Y8060D01*
X191059Y8099D01*
X191079Y8158D01*
X191089Y8218D01*
X191099Y8296D01*
X191108Y8473D01*
Y8483D01*
Y8523D01*
X191099Y8582D01*
Y8660D01*
X191059Y8828D01*
X191030Y8916D01*
X190990Y8995D01*
X190981Y9005D01*
X190971Y9034D01*
X190941Y9074D01*
X190912Y9113D01*
X190823Y9221D01*
X190764Y9270D01*
X190705Y9310D01*
X190695D01*
X190675Y9329D01*
X190646Y9339D01*
X190607Y9359D01*
X190498Y9408D01*
X190361Y9438D01*
X190351D01*
X190331Y9448D01*
X190292D01*
X190252Y9457D01*
X190124Y9467D01*
D02*
G37*
G36*
X184289Y9506D02*
X184211D01*
X184132Y9497D01*
X184024Y9487D01*
X183896Y9467D01*
X183768Y9428D01*
X183640Y9388D01*
X183522Y9329D01*
X183512Y9320D01*
X183473Y9300D01*
X183414Y9261D01*
X183345Y9201D01*
X183266Y9143D01*
X183177Y9064D01*
X183099Y8965D01*
X183020Y8867D01*
X183010Y8857D01*
X182990Y8818D01*
X182961Y8759D01*
X182922Y8680D01*
X182872Y8582D01*
X182833Y8463D01*
X182784Y8336D01*
X182754Y8198D01*
Y8178D01*
X182744Y8129D01*
X182735Y8050D01*
X182725Y7952D01*
X182705Y7834D01*
X182695Y7696D01*
X182685Y7538D01*
Y7381D01*
Y7371D01*
Y7361D01*
Y7332D01*
Y7293D01*
Y7204D01*
X182695Y7076D01*
X182705Y6938D01*
X182715Y6791D01*
X182754Y6476D01*
Y6456D01*
X182774Y6407D01*
X182794Y6338D01*
X182813Y6240D01*
X182853Y6141D01*
X182892Y6023D01*
X182951Y5905D01*
X183010Y5797D01*
X183020Y5787D01*
X183040Y5748D01*
X183089Y5698D01*
X183138Y5639D01*
X183207Y5570D01*
X183296Y5502D01*
X183384Y5433D01*
X183492Y5374D01*
X183502Y5364D01*
X183551Y5354D01*
X183610Y5325D01*
X183699Y5305D01*
X183817Y5275D01*
X183945Y5246D01*
X184092Y5236D01*
X184260Y5226D01*
X184338D01*
X184427Y5236D01*
X184526Y5246D01*
X184653Y5266D01*
X184781Y5295D01*
X184909Y5334D01*
X185027Y5393D01*
X185037Y5403D01*
X185076Y5423D01*
X185135Y5462D01*
X185204Y5511D01*
X185283Y5580D01*
X185362Y5659D01*
X185441Y5748D01*
X185519Y5856D01*
X185529Y5866D01*
X185549Y5905D01*
X185588Y5974D01*
X185627Y6053D01*
X185677Y6151D01*
X185716Y6269D01*
X185765Y6397D01*
X185795Y6535D01*
Y6555D01*
X185805Y6604D01*
X185824Y6683D01*
X185834Y6791D01*
X185854Y6909D01*
X185864Y7046D01*
X185873Y7204D01*
Y7361D01*
Y7371D01*
Y7381D01*
Y7440D01*
Y7538D01*
X185864Y7657D01*
X185854Y7784D01*
X185844Y7932D01*
X185795Y8237D01*
Y8257D01*
X185775Y8306D01*
X185755Y8375D01*
X185736Y8473D01*
X185696Y8572D01*
X185647Y8690D01*
X185598Y8798D01*
X185529Y8906D01*
X185519Y8916D01*
X185500Y8956D01*
X185460Y9005D01*
X185401Y9074D01*
X185332Y9143D01*
X185254Y9211D01*
X185155Y9290D01*
X185047Y9349D01*
X185037Y9359D01*
X184988Y9379D01*
X184929Y9398D01*
X184840Y9428D01*
X184732Y9457D01*
X184594Y9487D01*
X184457Y9497D01*
X184289Y9506D01*
D02*
G37*
%LPD*%
D10*
X61945Y242915D02*
D03*
X43126D02*
D03*
X61945Y227955D02*
D03*
X43126D02*
D03*
X61945Y212994D02*
D03*
X43126D02*
D03*
D11*
X54528Y72925D02*
D03*
Y66626D02*
D03*
X48528Y66642D02*
D03*
Y72941D02*
D03*
X42717Y66642D02*
D03*
Y72941D02*
D03*
D12*
X9451Y74016D02*
D03*
Y77166D02*
D03*
Y80316D02*
D03*
Y83465D02*
D03*
Y86615D02*
D03*
Y89764D02*
D03*
Y92914D02*
D03*
Y96064D02*
D03*
Y99213D02*
D03*
Y102363D02*
D03*
Y105512D02*
D03*
Y108662D02*
D03*
Y111812D02*
D03*
Y114961D02*
D03*
Y118111D02*
D03*
Y121260D02*
D03*
Y124410D02*
D03*
Y127560D02*
D03*
Y130709D02*
D03*
Y133859D02*
D03*
Y137008D02*
D03*
Y140158D02*
D03*
Y143308D02*
D03*
Y159056D02*
D03*
Y162205D02*
D03*
Y165355D02*
D03*
Y168505D02*
D03*
Y171654D02*
D03*
Y174804D02*
D03*
Y177953D02*
D03*
Y181103D02*
D03*
Y184253D02*
D03*
Y187402D02*
D03*
Y190552D02*
D03*
Y193701D02*
D03*
Y196851D02*
D03*
Y200001D02*
D03*
Y203150D02*
D03*
Y206300D02*
D03*
Y209449D02*
D03*
Y212599D02*
D03*
Y215749D02*
D03*
Y218898D02*
D03*
Y222048D02*
D03*
Y225197D02*
D03*
Y228347D02*
D03*
Y231497D02*
D03*
Y234646D02*
D03*
Y237796D02*
D03*
Y240945D02*
D03*
D13*
X54528Y66626D02*
X56394D01*
X57878Y68110D01*
X9451Y74016D02*
X57484D01*
X59847Y71653D01*
X77169Y33858D02*
Y50000D01*
X70476Y56693D02*
X77169Y50000D01*
X70476Y56693D02*
Y62992D01*
X66539Y66929D02*
X70476Y62992D01*
X66539Y66929D02*
Y79134D01*
X59058Y86615D02*
X66539Y79134D01*
X64571Y64961D02*
Y75984D01*
X57090Y83465D02*
X64571Y75984D01*
X29531Y83465D02*
X57090D01*
X62209Y63779D02*
Y74803D01*
X56696Y80316D02*
X62209Y74803D01*
X9451Y80316D02*
X56696D01*
X79138Y39461D02*
X86618Y31980D01*
X79138Y39461D02*
Y51575D01*
X73626Y57087D02*
X79138Y51575D01*
X73626Y57087D02*
Y63386D01*
X68902Y68110D02*
X73626Y63386D01*
X68902Y68110D02*
Y80709D01*
X59846Y89764D02*
X68902Y80709D01*
X9451Y89764D02*
X59846D01*
X81894Y46705D02*
X86618Y41980D01*
X81894Y46705D02*
Y52362D01*
X76382Y57874D02*
X81894Y52362D01*
X76382Y57874D02*
Y64567D01*
X71264Y69685D02*
X76382Y64567D01*
X71264Y69685D02*
Y81890D01*
X57090Y96064D02*
X71264Y81890D01*
X29531Y96064D02*
X57090D01*
X85819Y51980D02*
X86618D01*
X78744Y59055D02*
X85819Y51980D01*
X78744Y59055D02*
Y65748D01*
X73626Y70866D02*
X78744Y65748D01*
X73626Y70866D02*
Y83071D01*
X57484Y99213D02*
X73626Y83071D01*
X9451Y99213D02*
X57484D01*
X81500Y59449D02*
Y66535D01*
X75988Y72047D02*
X81500Y66535D01*
X75988Y72047D02*
Y84252D01*
X54728Y105512D02*
X75988Y84252D01*
X29531Y105512D02*
X54728D01*
X9451Y86615D02*
X59058D01*
X86618Y61980D02*
Y64961D01*
X78744Y72835D02*
X86618Y64961D01*
X78744Y72835D02*
Y85039D01*
X55121Y108662D02*
X78744Y85039D01*
X9451Y108662D02*
X55121D01*
X81500Y79134D02*
X86618Y74016D01*
X81500Y79134D02*
Y86221D01*
X52759Y114961D02*
X81500Y86221D01*
X29137Y114961D02*
X52759D01*
X86618Y81980D02*
Y85433D01*
X50791Y121260D02*
X86618Y85433D01*
X29531Y121260D02*
X50791D01*
X51039Y127560D02*
X86618Y91980D01*
X29531Y127560D02*
X51039D01*
X54740Y133859D02*
X86618Y101980D01*
X29531Y133859D02*
X54740D01*
X58440Y140158D02*
X86618Y111980D01*
X29531Y140158D02*
X58440D01*
X29531Y83465D02*
X29531Y83465D01*
X9451Y83465D02*
X29531D01*
X29531Y96064D02*
X29531Y96063D01*
X9451Y96064D02*
X29531D01*
Y105512D02*
X29531Y105512D01*
X9451Y105512D02*
X29531D01*
X29137Y114961D02*
X29138Y114961D01*
X9451Y114961D02*
X29137D01*
X29531Y121260D02*
X29531Y121260D01*
X9451Y121260D02*
X29531D01*
X29531Y127560D02*
X29531Y127559D01*
X9451Y127560D02*
X29531D01*
Y133859D02*
X29531Y133858D01*
X9451Y133859D02*
X29531D01*
X29531Y140158D02*
X29531Y140157D01*
X9451Y140158D02*
X29531D01*
X91697Y127559D02*
X96618Y132480D01*
X84847D02*
X86618D01*
X92327Y138189D02*
X96618Y142480D01*
X83862Y138189D02*
X92327D01*
X85476Y142480D02*
X86618D01*
X92169Y148031D02*
X96618Y152480D01*
X92012Y157874D02*
X96618Y162480D01*
X91854Y167717D02*
X96618Y172480D01*
X91697Y177559D02*
X96618Y182480D01*
X83075Y177559D02*
X91697D01*
X74413Y186221D02*
X83075Y177559D01*
X26382Y186221D02*
X74413D01*
X80909Y188189D02*
X86618Y182480D01*
X27957Y188189D02*
X80909D01*
X91933Y187795D02*
X96618Y192480D01*
X84256Y187795D02*
X91933D01*
X81894Y190157D02*
X84256Y187795D01*
X29138Y190157D02*
X81894D01*
X86264Y192126D02*
X86618Y192480D01*
X30713Y192126D02*
X86264D01*
X91776Y197638D02*
X96618Y202480D01*
X81500Y197638D02*
X91776D01*
X77957Y194095D02*
X81500Y197638D01*
X31894Y194095D02*
X77957D01*
X81618Y202480D02*
X86618D01*
X75201Y196063D02*
X81618Y202480D01*
X33075Y196063D02*
X75201D01*
X91618Y207480D02*
X96618Y212480D01*
X82287Y207480D02*
X91618D01*
X72839Y198031D02*
X82287Y207480D01*
X34256Y198031D02*
X72839D01*
X35437Y200000D02*
X70476D01*
X82957Y212480D02*
X86618D01*
X70476Y200000D02*
X82957Y212480D01*
X91461Y217323D02*
X96618Y222480D01*
X83469Y217323D02*
X91461D01*
X68114Y201969D02*
X83469Y217323D01*
X36618Y201969D02*
X68114D01*
X24413Y188189D02*
X26382Y186221D01*
X21657Y188189D02*
X24413D01*
X25594Y190552D02*
X27957Y188189D01*
X9451Y190552D02*
X25594D01*
X24807Y194488D02*
X29138Y190157D01*
X21657Y194488D02*
X24807D01*
X25988Y196851D02*
X30713Y192126D01*
X9451Y196851D02*
X25988D01*
X25201Y200787D02*
X31894Y194095D01*
X21657Y200787D02*
X25201D01*
X25988Y203150D02*
X33075Y196063D01*
X9451Y203150D02*
X25988D01*
X25594Y206693D02*
X34256Y198031D01*
X21657Y206693D02*
X25594D01*
X25988Y209449D02*
X35437Y200000D01*
X9451Y209449D02*
X25988D01*
X25988Y212598D02*
X36618Y201969D01*
X21657Y212598D02*
X25988D01*
X85083Y222480D02*
X86618D01*
X66539Y203937D02*
X85083Y222480D01*
X37405Y203937D02*
X66539D01*
X25594Y215749D02*
X37405Y203937D01*
X9451Y215749D02*
X25594D01*
X77169Y33858D02*
X83075Y27953D01*
X64571Y64961D02*
X68508Y61024D01*
Y55118D02*
Y61024D01*
Y55118D02*
X73626Y50000D01*
Y33858D02*
Y50000D01*
Y33858D02*
X81106Y26378D01*
X62209Y63779D02*
X66146Y59842D01*
X92354Y17717D02*
X96618Y21980D01*
X70870Y17717D02*
X92354D01*
X96854Y15354D02*
X100791Y19291D01*
X83929D02*
X86618Y21980D01*
X68243Y17846D02*
X69689Y19291D01*
X83929D01*
X66146Y16929D02*
Y59842D01*
Y16929D02*
X67721Y15354D01*
X96854D01*
X86618Y222480D02*
X93272Y229134D01*
X116163D01*
X133467Y211830D01*
X96618Y222480D02*
X101697Y227559D01*
X114571D01*
X127957Y214173D01*
Y210236D02*
Y214173D01*
Y210236D02*
X130713Y207480D01*
X137406D01*
X141756Y211830D01*
X155829D01*
X86618Y212480D02*
X89650D01*
X128744Y205512D02*
X143764D01*
X144648Y206395D01*
X89650Y212480D02*
X95280Y218110D01*
X96618Y212480D02*
X100673Y216535D01*
X114571D01*
X130146Y200960D01*
X133467D01*
X95280Y218110D02*
X116146D01*
X128744Y205512D01*
X86618Y202480D02*
X90280D01*
X96067Y208268D01*
X119295D01*
X131106Y196457D01*
X137406D01*
X141909Y200960D01*
X155829D01*
X96618Y202480D02*
X100831Y206693D01*
X117720D01*
X129532Y194882D01*
X144004D01*
X144648Y195525D01*
X86618Y192480D02*
X89728D01*
X95280Y198031D01*
X122839D01*
X130780Y190090D01*
X133467D01*
X96618Y192480D02*
X100594Y196457D01*
X119689D01*
X130713Y185433D01*
X136618D02*
X141275Y190090D01*
X155829D01*
X86618Y182480D02*
X89571D01*
X95280Y188189D01*
X124413D01*
X128744Y183858D01*
X143851D01*
X144648Y184655D01*
X96618Y182480D02*
X100752Y186614D01*
X122839D01*
X130233Y179220D01*
X133467D01*
X86618Y172480D02*
X90201D01*
X96067Y178347D01*
X123470D01*
X133467Y168350D01*
X96618Y172480D02*
X100909Y176772D01*
X122051D01*
X128744Y170079D01*
Y166142D02*
Y170079D01*
Y166142D02*
X131106Y163779D01*
X136224D01*
X140795Y168350D01*
X155829D01*
X86618Y162480D02*
X90043D01*
X95673Y168110D01*
X123626D01*
X129532Y162205D01*
X143938D01*
X144648Y162915D01*
X96618Y162480D02*
X100673Y166535D01*
X122051D01*
X131107Y157480D01*
X133467D01*
X86618Y152480D02*
X90280D01*
X96067Y158268D01*
X125988D01*
X131500Y152756D01*
X136618D01*
X141342Y157480D01*
X155829D01*
X96618Y152480D02*
X100831Y156693D01*
X124413D01*
X129925Y151181D01*
X143784D01*
X144648Y152045D01*
X86618Y142480D02*
X90516D01*
X96461Y148425D01*
X131651D01*
X133467Y146610D01*
X96618Y142480D02*
X100988Y146850D01*
X125988D01*
X130713Y142126D01*
X137012D01*
X141496Y146610D01*
X155829D01*
X86618Y132480D02*
X90358D01*
X96067Y138189D01*
X109059D01*
X111421Y140551D01*
X144024D01*
X144648Y141175D01*
X96618Y132480D02*
X100752Y136614D01*
X132592D01*
X133467Y135740D01*
X86618Y111980D02*
X89150D01*
X102039Y124870D01*
X133467D01*
X96618Y111980D02*
X105110Y120472D01*
X137012D01*
X141409Y124870D01*
X155829D01*
X86618Y101980D02*
X92512Y107874D01*
X111815D01*
X122839Y118898D01*
X144111D01*
X144648Y119435D01*
X96618Y101980D02*
X100937Y106299D01*
X113784D01*
X121484Y114000D01*
X133467D01*
X86618Y91980D02*
X88835D01*
X94492Y97638D01*
X112209D01*
X124020Y109449D01*
X137799D01*
X142350Y114000D01*
X155829D01*
X96618Y91980D02*
X98677D01*
X102760Y96063D01*
X114571D01*
X126382Y107874D01*
X143957D01*
X144648Y108565D01*
X86618Y81980D02*
X87496D01*
X93311Y87795D01*
X109846D01*
X125181Y103130D01*
X133467D01*
X96618Y81980D02*
X98913D01*
X103154Y86221D01*
X112602D01*
X124807Y98425D01*
X137012D01*
X141716Y103130D01*
X155829D01*
X86618Y73622D02*
X90949Y77953D01*
X109059D01*
X127957Y96850D01*
X143804D01*
X144648Y97695D01*
X86618Y71980D02*
Y73622D01*
Y74016D01*
X96618Y71980D02*
X101016Y76378D01*
X112209D01*
X128090Y92260D01*
X133467D01*
X81500Y59449D02*
X83075Y57874D01*
X98823D01*
X100791Y59842D01*
Y64173D01*
X100004Y64961D02*
X100791Y64173D01*
X100004Y64961D02*
Y65354D01*
X96618Y61980D02*
Y64724D01*
X98823Y66929D01*
X86618Y61980D02*
X89150D01*
X95280Y68110D01*
X136224Y76378D02*
X141236Y81389D01*
X155829D01*
X100791Y19291D02*
Y22047D01*
X106618Y27874D01*
Y31980D01*
X90949Y48425D02*
X91736Y49213D01*
X83075Y27953D02*
X88587D01*
X90949Y30315D01*
Y48425D01*
X101579Y46941D02*
X106618Y51980D01*
X94976Y46941D02*
X101579D01*
X92524Y44488D02*
X94976Y46941D01*
X92524Y29528D02*
Y44488D01*
X89374Y26378D02*
X92524Y29528D01*
X81106Y26378D02*
X89374D01*
X102366Y27165D02*
Y37728D01*
X106618Y41980D01*
Y60158D02*
Y61980D01*
X98823Y27165D02*
X100791Y29134D01*
X97642Y27165D02*
X98823D01*
X95280Y68110D02*
X118508D01*
X131787Y81389D01*
X133467D01*
X98823Y66929D02*
X120083D01*
X129532Y76378D01*
X136224D01*
X130713Y74803D02*
X143497D01*
X144648Y75954D01*
X129578Y70519D02*
X133467D01*
X128350Y65354D02*
X150664D01*
X155829Y70519D01*
Y222701D02*
X159981D01*
X165752Y216929D01*
Y67323D02*
Y216929D01*
X159453Y61024D02*
X165752Y67323D01*
X131106Y61024D02*
X159453D01*
X120083Y50000D02*
X131106Y61024D01*
X120083Y26378D02*
Y50000D01*
X103941Y10236D02*
X120083Y26378D01*
X65358Y10236D02*
X103941D01*
X61028Y14567D02*
X65358Y10236D01*
X59847Y63386D02*
Y71653D01*
Y63386D02*
X63784Y59449D01*
Y17717D02*
Y59449D01*
X61028Y14567D02*
Y59842D01*
X57878Y62992D02*
X61028Y59842D01*
X52177Y62992D02*
X57878D01*
X48528Y66642D02*
X52177Y62992D01*
X130713Y185433D02*
X136618D01*
X83469Y127559D02*
X91697D01*
X36224Y144488D02*
X66539D01*
X83469Y127559D01*
X21657Y159055D02*
X36224Y144488D01*
X70476Y146850D02*
X84847Y132480D01*
X37799Y146850D02*
X70476D01*
X21657Y165354D02*
X24413D01*
X39768Y150000D01*
X72051D01*
X83862Y138189D01*
X40949Y153150D02*
X74807D01*
X85476Y142480D01*
X21657Y171653D02*
X27169D01*
X42130Y156693D01*
X22445Y162205D02*
X37799Y146850D01*
X9451Y159056D02*
X16146D01*
X19295Y162205D01*
X22445D01*
X9451Y165355D02*
X16540D01*
X19689Y168504D01*
X25594D01*
X40949Y153150D01*
X84256Y148031D02*
X92169D01*
X42130Y156693D02*
X75595D01*
X84256Y148031D01*
X83744Y152480D02*
X86618D01*
X76382Y159843D02*
X83744Y152480D01*
X43705Y159843D02*
X76382D01*
X28744Y174803D02*
X43705Y159843D01*
X9451Y171654D02*
X16540D01*
X19689Y174803D01*
X28744D01*
X21657Y177953D02*
X31106D01*
X45673Y163386D01*
X77957D01*
X83469Y157874D01*
X92012D01*
X83193Y162480D02*
X86618D01*
X33862Y180315D02*
X47642Y166535D01*
X79138D01*
X83193Y162480D01*
X9451Y177953D02*
X16934D01*
X19295Y180315D01*
X33862D01*
X36618Y182283D02*
X49216Y169685D01*
X21657Y182283D02*
X36618D01*
X49216Y169685D02*
X81500D01*
X83469Y167717D01*
X91854D01*
X9451Y184253D02*
X38980D01*
X50752Y172480D01*
X86618D01*
X106618Y21980D02*
X117327Y32689D01*
Y54331D01*
X128350Y65354D01*
X111815Y36220D02*
X114965Y39370D01*
Y55905D01*
X129578Y70519D01*
X111421Y38976D02*
X112996Y40551D01*
Y57087D01*
X130713Y74803D01*
X100791Y29134D02*
Y42913D01*
X104728Y46850D01*
X108272D01*
X111028Y49606D01*
Y58661D01*
X107709Y61980D02*
X111028Y58661D01*
X106618Y61980D02*
X107709D01*
D14*
X86618Y252480D02*
X96618D01*
X83980D02*
X86618D01*
X78744Y247244D02*
X83980Y252480D01*
X78744Y225984D02*
Y247244D01*
X65754Y212994D02*
X78744Y225984D01*
X61945Y212994D02*
X65754D01*
X86618Y272480D02*
X96618D01*
X79177D02*
X86618D01*
X71658Y264961D02*
X79177Y272480D01*
X71658Y233858D02*
Y264961D01*
X66146Y228346D02*
X71658Y233858D01*
X62337Y228346D02*
X66146D01*
X61945Y227955D02*
X62337Y228346D01*
X86618Y292480D02*
X96618D01*
X76736D02*
X86618D01*
X64965Y280709D02*
X76736Y292480D01*
X64965Y245935D02*
Y280709D01*
X61945Y242915D02*
X64965Y245935D01*
X96618Y252480D02*
X103687D01*
X133467Y222701D01*
X96618Y272480D02*
X102327D01*
X109453Y265354D01*
Y257480D02*
Y265354D01*
Y257480D02*
X133362Y233571D01*
X133467D01*
X96618Y292480D02*
X100043D01*
X118902Y273622D01*
Y261024D02*
Y273622D01*
Y261024D02*
X133467Y246458D01*
Y244441D02*
Y246458D01*
Y244441D02*
X135483Y246457D01*
X153813D01*
X155829Y244441D01*
D15*
X38191Y212994D02*
X43126D01*
X32681Y218504D02*
X38191Y212994D01*
X38010Y233071D02*
X42734Y228347D01*
X35831Y233071D02*
X38010D01*
X40161Y239764D02*
X43126Y242728D01*
X32287Y239764D02*
X40161D01*
X31106Y238583D02*
X32287Y239764D01*
X43126Y242728D02*
Y242915D01*
X34072Y222048D02*
X43126Y212994D01*
X9451Y222048D02*
X34072D01*
X42734Y228347D02*
X43126Y227955D01*
X9451Y228347D02*
X42734D01*
X29927Y242915D02*
X43126D01*
X21658Y234646D02*
X29927Y242915D01*
X9451Y234646D02*
X21658D01*
X133467Y233571D02*
X155829D01*
X133467Y222701D02*
X155829D01*
D16*
Y70519D02*
D03*
Y81389D02*
D03*
Y92260D02*
D03*
Y103130D02*
D03*
Y114000D02*
D03*
Y124870D02*
D03*
Y135740D02*
D03*
Y146610D02*
D03*
Y157480D02*
D03*
Y168350D02*
D03*
Y179220D02*
D03*
Y190090D02*
D03*
Y200960D02*
D03*
Y211830D02*
D03*
Y222701D02*
D03*
Y233571D02*
D03*
Y244441D02*
D03*
X144648Y75954D02*
D03*
Y86825D02*
D03*
Y97695D02*
D03*
Y108565D02*
D03*
Y119435D02*
D03*
Y130305D02*
D03*
Y141175D02*
D03*
Y152045D02*
D03*
Y162915D02*
D03*
Y173785D02*
D03*
Y184655D02*
D03*
Y195525D02*
D03*
Y206395D02*
D03*
Y217265D02*
D03*
Y228135D02*
D03*
Y239006D02*
D03*
X133467Y70519D02*
D03*
Y81389D02*
D03*
Y92260D02*
D03*
Y103130D02*
D03*
Y114000D02*
D03*
Y233571D02*
D03*
Y222701D02*
D03*
Y211830D02*
D03*
Y200960D02*
D03*
Y190090D02*
D03*
Y179220D02*
D03*
Y168350D02*
D03*
Y157480D02*
D03*
Y146610D02*
D03*
Y135740D02*
D03*
Y124870D02*
D03*
D17*
X144648Y277775D02*
D03*
Y37185D02*
D03*
D18*
X133467Y244441D02*
D03*
D19*
X96618Y242480D02*
D03*
X86618D02*
D03*
X96618Y252480D02*
D03*
X86618D02*
D03*
X96618Y262480D02*
D03*
X86618D02*
D03*
X96618Y272480D02*
D03*
X86618D02*
D03*
X96618Y282480D02*
D03*
X86618D02*
D03*
X96618Y292480D02*
D03*
X106618Y21980D02*
D03*
X96618D02*
D03*
X86618D02*
D03*
X106618Y31980D02*
D03*
X96618D02*
D03*
X86618D02*
D03*
X106618Y41980D02*
D03*
X96618D02*
D03*
X86618D02*
D03*
X106618Y51980D02*
D03*
X96618D02*
D03*
X86618D02*
D03*
X106618Y61980D02*
D03*
X96618D02*
D03*
X86618D02*
D03*
X106618Y71980D02*
D03*
X96618D02*
D03*
X86618D02*
D03*
X106618Y81980D02*
D03*
X96618D02*
D03*
X86618D02*
D03*
X106618Y91980D02*
D03*
X96618D02*
D03*
X86618D02*
D03*
X106618Y101980D02*
D03*
X96618D02*
D03*
X86618D02*
D03*
X106618Y111980D02*
D03*
X96618D02*
D03*
X106618Y132480D02*
D03*
X96618D02*
D03*
X86618D02*
D03*
X106618Y142480D02*
D03*
X96618D02*
D03*
X86618D02*
D03*
X106618Y152480D02*
D03*
X96618D02*
D03*
X86618D02*
D03*
X106618Y162480D02*
D03*
X96618D02*
D03*
X86618D02*
D03*
X106618Y172480D02*
D03*
X96618D02*
D03*
X86618D02*
D03*
X106618Y182480D02*
D03*
X96618D02*
D03*
X86618D02*
D03*
X106618Y192480D02*
D03*
X96618D02*
D03*
X86618D02*
D03*
X106618Y202480D02*
D03*
X96618D02*
D03*
X86618D02*
D03*
X106618Y212480D02*
D03*
X96618D02*
D03*
X86618D02*
D03*
X106618Y222480D02*
D03*
X96618D02*
D03*
D20*
X86618Y292480D02*
D03*
Y111980D02*
D03*
Y222480D02*
D03*
D21*
X57878Y68110D02*
D03*
X21657Y159055D02*
D03*
Y165354D02*
D03*
Y171653D02*
D03*
Y177953D02*
D03*
Y182283D02*
D03*
Y188189D02*
D03*
Y194488D02*
D03*
Y200787D02*
D03*
Y206693D02*
D03*
Y212598D02*
D03*
X70870Y17717D02*
D03*
X68243Y17846D02*
D03*
X63784Y17717D02*
D03*
X91736Y49213D02*
D03*
X100004Y65354D02*
D03*
X97642Y27165D02*
D03*
X102366D02*
D03*
X111421Y38976D02*
D03*
X111815Y36220D02*
D03*
D22*
X32681Y218504D02*
D03*
X35831Y233071D02*
D03*
X31106Y238583D02*
D03*
M02*
