M48
;Layer_Color=9474304
;FILE_FORMAT=2:5
INCH,TZ
;TYPE=PLATED
T1F00S00C0.00787
T2F00S00C0.01968
T3F00S00C0.04000
T4F00S00C0.04291
T5F00S00C0.12835
%
T01
X63847Y14636
X68243Y17846
X71260Y14961
X75420Y26772
X83519Y35369
X91736Y49213
X102536Y55118
X111421Y38976
X111815Y36220
X103150Y27165
X98035Y26704
X100004Y65354
X91275Y68962
X91364Y80269
X118898Y87386
X57878Y68110
X58748Y178237
X22835Y177386
X21657Y182283
X16934Y181496
X17501Y187008
X21657Y188189
Y194488
X18504Y193376
X18110Y199334
X21657Y200787
Y206693
X18110Y205906
Y212138
X17241Y175591
X17323Y169307
X17324Y163386
X21657Y165354
Y159055
Y171653
X18110Y136615
Y130315
Y124016
Y118111
X18504Y111707
Y102363
X19121Y92520
X20805Y77165
X21657Y212598
X17717Y231496
T02
X32681Y218504
X35831Y233071
X31106Y238583
T03
X86618Y21980
X96618
X106618
Y31980
X96618
X86618
Y41980
X96618
X106618
Y51980
X96618
X86618
Y61980
X96618
X106618
Y71980
X96618
X86618
Y81980
X96618
X106618
Y91980
X96618
X86618
Y101980
X96618
X106618
Y111980
X96618
X86618
Y132480
X96618
X106618
Y142480
X96618
X86618
Y152480
X96618
X106618
Y162480
X96618
X86618
Y172480
X96618
X106618
Y182480
X96618
X86618
Y192480
X96618
X106618
Y202480
X96618
X86618
Y212480
X96618
X106618
Y222480
X96618
X86618
Y242480
X96618
Y252480
X86618
Y262480
X96618
Y272480
X86618
Y282480
X96618
Y292480
X86618
T04
X133467Y70519
Y81389
Y92260
Y103130
Y114000
Y124870
Y135740
Y146610
Y157480
Y168350
Y179220
Y190090
Y200960
Y211830
X144648Y206395
Y195525
Y184655
Y173785
Y162915
Y152045
Y141175
Y130305
Y119435
Y108565
Y97695
Y86825
Y75954
X155829Y70519
Y81389
Y92260
Y103130
Y114000
Y124870
Y135740
Y146610
Y157480
Y168350
Y179220
Y190090
Y200960
Y211830
Y222701
Y233571
Y244441
X144648Y239006
Y228135
Y217265
X133467Y222701
Y233571
Y244441
T05
X144648Y37185
Y277775
M30
